<?xml version="1.0" standalone="no"?>
<!DOCTYPE svg PUBLIC "-//W3C//DTD SVG 20010904//EN"
 "http://www.w3.org/TR/2001/REC-SVG-20010904/DTD/svg10.dtd">
<svg version="1.0" xmlns="http://www.w3.org/2000/svg"
 width="16.000000pt" height="16.000000pt" viewBox="0 0 16.000000 16.000000"
 preserveAspectRatio="xMidYMid meet">
<metadata>
Created by potrace 1.11, written by Peter Selinger 2001-2013
</metadata>
<g transform="translate(0.000000,16.000000) scale(0.001600,-0.001600)"
fill="#000000" stroke="none">
<path d="M5106 9693 c-1 -1 -40 -5 -87 -8 -122 -8 -257 -22 -302 -31 -11 -2
-39 -6 -62 -9 -465 -64 -1159 -298 -1565 -526 -200 -113 -534 -349 -656 -464
-6 -5 -45 -39 -85 -75 -86 -75 -125 -114 -234 -234 -44 -49 -85 -94 -90 -100
-34 -37 -190 -233 -236 -296 -115 -158 -273 -418 -361 -595 -38 -76 -42 -94
-21 -93 20 1 204 -11 268 -17 22 -2 74 -6 115 -10 109 -9 162 -14 211 -21 24
-3 65 -7 90 -9 26 -2 65 -6 88 -9 23 -3 58 -8 79 -11 109 -13 130 -16 162 -21
19 -2 49 -6 65 -8 35 -5 109 -15 145 -21 14 -2 45 -7 70 -10 25 -3 83 -12 130
-20 47 -8 103 -17 125 -20 22 -3 51 -7 65 -10 14 -3 41 -7 60 -10 19 -3 46 -7
60 -10 14 -3 43 -8 65 -11 22 -3 49 -7 60 -9 11 -2 61 -11 110 -20 50 -10 101
-19 115 -21 14 -3 36 -7 50 -9 59 -12 77 -15 102 -20 15 -3 73 -14 128 -25 55
-11 113 -22 128 -25 48 -9 73 -14 90 -19 9 -3 32 -8 51 -11 19 -3 37 -7 40 -9
3 -2 23 -7 43 -10 44 -7 289 -61 368 -81 30 -8 66 -16 80 -19 42 -8 63 -13
110 -26 25 -7 53 -14 63 -16 10 -2 27 -6 37 -9 10 -3 27 -8 37 -10 31 -6 292
-75 403 -107 58 -16 112 -31 120 -33 65 -15 467 -138 615 -188 l100 -34 110
149 c143 192 228 329 319 508 369 726 477 1605 256 2078 -62 131 -132 210
-270 303 -200 135 -522 248 -807 284 -24 3 -60 7 -80 10 -108 14 -467 28 -477
18z"/>
<path d="M6535 9485 c11 -8 56 -39 100 -67 273 -178 443 -481 482 -863 13
-133 5 -586 -12 -615 -1 -3 -6 -32 -10 -65 -39 -346 -273 -883 -707 -1618 -62
-104 -72 -117 -91 -111 -12 3 -69 23 -127 44 -58 20 -150 52 -205 70 -55 18
-104 35 -110 39 -5 3 -14 6 -20 7 -5 2 -48 14 -95 29 -47 15 -123 38 -170 51
-47 14 -92 28 -100 31 -8 3 -19 7 -25 9 -5 1 -75 21 -155 44 -80 22 -152 43
-160 45 -8 2 -87 22 -175 45 -88 23 -167 43 -175 45 -8 2 -91 22 -185 45 -93
23 -181 44 -195 46 -14 3 -71 16 -128 29 -57 14 -116 27 -130 30 -15 3 -38 7
-52 10 -14 4 -34 8 -45 10 -11 2 -42 9 -70 15 -27 6 -59 12 -70 14 -11 2 -90
18 -175 35 -85 17 -168 33 -185 36 -16 3 -43 7 -60 10 -16 3 -41 8 -55 10 -51
10 -75 15 -110 20 -20 3 -47 8 -60 10 -25 5 -183 33 -230 40 -14 2 -56 9 -95
15 -68 11 -101 16 -156 25 -14 3 -41 7 -60 9 -41 6 -174 25 -209 31 -14 2 -50
7 -80 10 -30 4 -63 9 -72 10 -9 2 -43 6 -75 10 -33 3 -70 7 -84 9 -13 3 -49 7
-79 10 -30 3 -75 8 -100 11 -275 29 -370 37 -625 51 -344 18 -767 4 -925 -31
-14 -3 -38 -8 -55 -11 -16 -3 -48 -10 -70 -16 -22 -6 -44 -11 -50 -13 -54 -12
-172 -74 -204 -107 -97 -99 -53 -201 151 -355 173 -130 312 -217 477 -299
l106 -53 6 57 c7 68 26 109 77 158 63 62 212 123 342 140 25 3 62 9 82 14 36
7 481 5 598 -4 111 -8 226 -18 252 -21 14 -2 59 -6 100 -10 40 -3 111 -10 158
-15 47 -5 112 -12 145 -15 33 -3 74 -8 90 -10 17 -2 55 -7 85 -10 57 -6 110
-12 170 -20 19 -3 53 -7 75 -9 200 -25 304 -38 325 -42 14 -2 79 -11 145 -19
66 -9 127 -18 135 -20 8 -2 38 -7 65 -10 28 -3 75 -9 105 -14 30 -6 75 -12
100 -15 25 -4 56 -8 70 -10 14 -3 57 -9 95 -15 58 -10 246 -40 345 -56 62 -10
271 -46 292 -51 13 -2 59 -11 103 -19 44 -8 105 -19 135 -25 30 -6 66 -13 80
-15 20 -3 217 -43 400 -81 214 -45 598 -142 728 -185 l63 -21 -27 -46 c-15
-25 -104 -172 -198 -327 l-171 -281 -250 82 c-138 46 -349 112 -470 148 -121
36 -233 70 -250 75 -116 37 -786 209 -915 235 -14 3 -35 7 -46 10 -135 30
-241 51 -349 72 -71 14 -139 27 -150 29 -62 12 -322 55 -362 60 -27 4 -73 10
-103 15 -30 5 -98 14 -150 20 -52 6 -108 13 -125 15 -16 2 -79 9 -140 15 -60
6 -126 12 -145 15 -19 2 -64 7 -100 10 -36 3 -81 8 -100 10 -19 2 -64 7 -100
10 -36 3 -81 8 -100 10 -19 2 -71 7 -115 10 -44 3 -100 8 -125 10 -25 3 -76 7
-115 10 -38 3 -99 7 -135 10 -326 25 -826 25 -951 -1 -13 -2 -40 -7 -59 -10
-64 -10 -184 -46 -231 -70 -167 -84 -189 -213 -57 -343 54 -54 249 -184 466
-311 l167 -99 6 50 c15 115 118 200 304 250 143 39 263 49 560 44 154 -3 291
-7 305 -9 14 -2 75 -7 135 -10 61 -4 126 -9 145 -11 19 -2 73 -7 120 -11 47
-3 92 -8 101 -9 9 -2 56 -6 105 -10 49 -4 96 -8 104 -10 8 -2 49 -6 90 -9 41
-4 86 -9 100 -11 14 -2 50 -7 80 -10 30 -3 71 -8 90 -10 19 -3 76 -9 125 -15
50 -6 104 -13 120 -15 17 -3 68 -9 115 -15 89 -11 110 -14 225 -31 39 -6 84
-12 100 -14 32 -3 369 -53 407 -60 12 -3 40 -7 63 -10 33 -5 271 -45 350 -59
72 -13 145 -26 172 -31 247 -41 810 -176 939 -225 l24 -9 -41 -73 c-71 -129
-140 -269 -174 -354 -60 -150 -122 -393 -139 -551 -3 -29 -9 -76 -12 -104 -8
-70 -8 -348 0 -439 10 -107 17 -160 43 -315 9 -56 12 -37 11 87 -1 151 9 268
37 408 3 14 7 35 10 48 12 63 73 260 111 361 178 461 500 954 1141 1751 469
582 619 788 731 1000 71 137 154 352 176 460 3 14 14 68 25 120 47 217 66 445
65 755 0 229 -9 292 -65 459 -38 113 -89 210 -160 306 -56 75 -161 184 -209
217 -14 9 -27 20 -30 24 -25 33 -273 162 -390 202 -94 32 -150 47 -234 63 -16
2 -34 7 -40 10 -6 3 -2 -2 9 -11z"/>
<path d="M7600 9015 c0 -2 33 -30 73 -62 66 -53 396 -376 478 -468 492 -557
850 -1189 1047 -1850 43 -142 102 -390 117 -490 2 -16 9 -59 14 -95 6 -36 13
-92 17 -125 3 -33 7 -71 10 -85 19 -120 26 -612 12 -817 l-7 -101 63 -41 c34
-23 65 -41 68 -41 5 0 9 25 23 160 17 158 23 552 11 700 -13 169 -20 233 -51
445 -32 228 -145 635 -238 866 -156 384 -401 798 -646 1092 -101 121 -154 182
-205 236 -150 157 -286 288 -385 371 -29 25 -65 55 -80 68 -14 12 -60 48 -101
80 -41 31 -77 59 -80 63 -9 11 -140 99 -140 94z"/>
<path d="M7621 8788 c113 -192 203 -466 225 -683 8 -83 8 -289 -1 -360 -3 -27
-8 -70 -11 -95 -25 -223 -150 -582 -302 -873 -215 -409 -434 -721 -1043 -1483
-565 -708 -750 -987 -872 -1314 -38 -102 -91 -310 -102 -400 -4 -30 -9 -63
-10 -72 -4 -17 -12 -98 -20 -188 -6 -71 -6 -260 0 -310 4 -25 17 -85 30 -135
94 -359 393 -674 868 -912 112 -57 146 -65 80 -20 -105 71 -261 230 -340 347
-131 193 -191 375 -198 600 -4 141 6 229 45 385 76 308 226 609 533 1070 152
228 244 348 405 524 42 46 84 92 93 102 9 10 76 82 150 160 74 78 139 147 144
153 6 6 30 34 55 61 82 92 149 171 202 241 29 38 56 71 59 74 3 3 40 55 81
115 193 282 312 533 407 855 131 441 127 874 -11 1310 -60 189 -178 442 -288
617 -61 95 -197 283 -206 283 -2 0 10 -24 27 -52z"/>
<path d="M8271 7773 c13 -35 55 -231 63 -298 4 -27 9 -61 11 -75 14 -71 20
-381 10 -495 -26 -291 -106 -598 -216 -830 -103 -219 -307 -537 -503 -787 -97
-124 -378 -468 -411 -504 -5 -6 -32 -37 -60 -69 -27 -32 -54 -63 -60 -69 -5
-6 -46 -51 -90 -101 -44 -49 -90 -101 -103 -115 -13 -14 -76 -90 -141 -170
-249 -308 -406 -558 -506 -810 -210 -527 -156 -1011 149 -1322 84 -85 159
-143 271 -207 134 -77 358 -160 480 -178 22 -3 50 -9 63 -14 36 -14 26 6 -25
47 -173 142 -290 317 -337 507 -20 78 -23 112 -20 227 3 149 5 163 40 300 60
227 191 502 408 855 59 96 473 723 491 743 1 1 13 -2 26 -7 13 -6 71 -29 129
-51 157 -62 149 -52 92 -113 -84 -89 -102 -109 -202 -228 -348 -411 -611 -829
-710 -1127 -99 -297 -85 -582 40 -835 55 -109 182 -287 206 -287 4 0 -5 15
-18 33 -194 254 -205 856 -22 1144 70 110 143 156 244 156 176 0 272 -129 273
-368 0 -68 -11 -204 -18 -215 -2 -3 -6 -26 -10 -50 -18 -124 -107 -413 -185
-605 -43 -105 -44 -105 50 -20 307 278 520 554 623 805 63 153 81 244 80 410
-1 175 -40 314 -161 571 -93 197 -133 366 -128 546 1 57 5 106 9 109 18 18
620 -276 866 -424 52 -32 106 -64 120 -72 128 -75 415 -279 525 -374 87 -75
53 -26 -67 95 -357 361 -880 680 -1554 948 l-141 56 89 140 c104 165 230 379
284 485 22 41 40 77 42 79 5 6 160 -54 313 -121 296 -131 670 -336 915 -502
50 -33 92 -63 95 -66 3 -3 28 -21 55 -40 28 -19 57 -40 65 -47 8 -6 51 -40 95
-75 44 -34 94 -75 110 -90 105 -97 -28 92 -143 203 -113 109 -134 126 -261
218 -271 197 -650 407 -1076 598 -55 25 -101 46 -103 48 -1 1 11 38 29 81 60
150 128 382 145 494 3 19 7 41 9 48 3 7 7 40 11 75 3 34 8 64 10 67 22 40 22
682 0 719 -2 3 -7 34 -10 69 -23 226 -121 589 -237 880 -16 39 -33 44 -18 5z"/>
<path d="M1507 6544 c-1 -1 -42 -4 -92 -8 -142 -9 -286 -38 -303 -60 -5 -6
-14 -38 -22 -71 -7 -33 -16 -75 -21 -94 -5 -19 -7 -36 -6 -37 1 -1 63 -5 137
-8 74 -4 162 -9 195 -11 33 -3 98 -7 145 -10 47 -3 108 -7 135 -10 101 -8 201
-17 242 -20 23 -2 70 -7 105 -10 34 -4 83 -9 108 -11 107 -9 148 -13 190 -18
25 -3 72 -8 105 -11 33 -4 74 -8 90 -10 17 -2 57 -6 90 -10 124 -13 154 -17
325 -41 739 -106 1660 -326 2485 -592 50 -16 93 -27 97 -25 3 1 27 41 52 88
25 46 83 146 129 223 l84 138 -116 28 c-115 27 -395 89 -481 106 -209 41 -419
82 -440 85 -24 3 -60 10 -105 19 -11 2 -40 7 -65 11 -25 4 -54 9 -65 11 -45 9
-358 60 -420 69 -22 3 -51 8 -65 10 -14 3 -38 7 -55 9 -16 3 -59 10 -95 15
-36 6 -83 13 -105 16 -22 3 -49 7 -61 9 -12 2 -45 7 -75 11 -30 3 -65 8 -79
10 -14 3 -43 7 -65 10 -22 3 -53 8 -70 10 -16 3 -49 7 -72 10 -24 3 -75 10
-115 15 -40 6 -93 13 -118 15 -25 3 -58 7 -75 10 -16 2 -55 7 -85 10 -30 3
-70 8 -88 11 -55 9 -169 22 -347 39 -33 4 -75 8 -93 10 -18 2 -65 7 -105 10
-40 3 -88 8 -107 10 -19 2 -73 6 -120 10 -47 3 -105 8 -130 10 -128 10 -447
23 -453 19z"/>
<path d="M1507 5554 c-1 -1 -54 -4 -117 -7 -126 -7 -267 -34 -345 -65 l-50
-20 1 -103 c1 -157 30 -479 49 -549 2 -8 7 -35 10 -60 3 -25 22 -123 41 -219
109 -534 311 -1036 591 -1471 50 -78 189 -270 238 -329 202 -246 449 -485 706
-683 132 -101 381 -271 474 -324 11 -6 77 -43 147 -83 240 -134 586 -292 694
-316 10 -2 51 -13 89 -25 39 -11 79 -22 90 -24 11 -2 40 -9 65 -16 25 -7 54
-14 65 -16 11 -2 31 -6 45 -9 42 -9 193 -34 235 -39 22 -3 63 -8 90 -11 28 -4
62 -8 76 -11 151 -24 828 -23 982 1 12 2 54 7 92 10 39 4 81 9 95 11 14 1 48
5 75 9 28 3 64 8 80 11 17 3 39 7 50 9 52 7 185 32 265 50 14 4 36 8 50 11 14
3 34 8 45 11 21 7 25 8 65 16 14 3 36 10 50 15 14 5 28 10 33 10 44 5 266 90
340 129 52 29 60 43 23 43 -33 0 -243 61 -363 106 -190 70 -390 171 -543 273
-47 31 -89 58 -94 60 -5 2 -16 10 -25 17 -9 7 -54 43 -101 80 -168 134 -365
349 -484 529 -189 286 -279 518 -332 855 -13 83 -13 496 -1 565 3 17 13 79 22
138 32 214 105 473 210 745 36 93 65 172 65 175 0 3 -35 13 -77 23 -43 10 -82
19 -88 20 -23 6 -443 93 -475 98 -19 3 -46 8 -60 11 -148 30 -877 145 -1020
160 -25 3 -70 9 -100 14 -30 6 -80 12 -110 16 -30 3 -66 7 -80 9 -14 3 -68 10
-120 16 -52 6 -108 13 -125 15 -16 2 -57 7 -90 10 -33 3 -76 8 -95 10 -92 12
-120 15 -180 20 -36 3 -78 7 -95 10 -16 2 -61 7 -100 10 -38 3 -88 8 -110 10
-41 4 -98 9 -240 20 -44 4 -100 8 -125 10 -104 8 -497 23 -503 19z"/>
<path d="M9296 4473 c-10 -54 -41 -186 -68 -293 -28 -107 -52 -204 -54 -215
-3 -15 7 -28 36 -47 22 -16 44 -28 50 -28 13 0 84 223 136 429 25 95 43 175
42 176 -21 16 -114 75 -119 75 -3 0 -13 -44 -23 -97z"/>
<path d="M9021 3547 c-104 -267 -309 -654 -465 -877 -52 -73 -57 -85 -26 -50
127 139 305 391 425 600 72 125 195 370 195 387 0 9 -66 53 -77 53 -5 0 -28
-51 -52 -113z"/>
<path d="M5060 566 c0 -2 8 -10 18 -17 15 -13 16 -12 3 4 -13 16 -21 21 -21
13z"/>
<path d="M5695 560 c-3 -5 -3 -10 2 -10 4 0 1 -5 -7 -11 -12 -8 -12 -10 -1 -7
8 2 15 12 17 21 3 19 -2 22 -11 7z"/>
<path d="M5659 555 c-1 -3 -3 -9 -4 -15 -1 -5 -3 -14 -4 -20 -2 -17 -19 -11
-24 8 -4 16 -5 16 -6 -1 0 -10 -6 -15 -11 -12 -6 4 -8 10 -5 15 3 4 -2 11 -11
14 -15 6 -15 4 0 -19 21 -31 9 -33 -19 -2 -11 13 -16 17 -11 10 5 -8 6 -17 2
-20 -4 -4 -11 -1 -16 7 -18 29 -48 18 -40 -15 1 -5 3 -16 3 -22 0 -15 13 -17
22 -4 3 5 -1 16 -10 24 -13 13 -13 16 0 21 13 5 19 -4 17 -25 -1 -3 10 -5 24
-3 15 1 22 -2 18 -8 -4 -7 -2 -8 4 -4 7 4 22 9 34 11 27 6 37 16 43 43 3 18
-2 33 -6 17z"/>
<path d="M4592 545 c4 -4 4 -13 -1 -19 -6 -7 -2 -20 10 -35 11 -14 19 -18 19
-10 0 12 2 12 9 0 6 -9 11 -10 15 -2 4 6 2 11 -4 11 -6 0 -8 5 -5 11 5 6 12 4
22 -8 8 -10 12 -13 9 -8 -2 6 4 11 14 11 10 0 17 -3 14 -7 -5 -9 24 -5 31 4 3
4 2 5 -2 2 -4 -3 -13 5 -20 17 -10 18 -12 20 -13 6 0 -10 -5 -18 -11 -18 -5 0
-7 5 -3 12 4 7 3 8 -4 4 -6 -4 -20 -2 -31 4 -14 7 -22 7 -27 -2 -4 -7 -3 -8 4
-4 7 4 12 3 12 -2 0 -17 -13 -22 -27 -11 -9 8 -10 15 -3 24 8 10 7 15 -2 21
-7 4 -10 4 -6 -1z"/>
<path d="M4817 534 c5 -13 3 -15 -7 -9 -9 5 -11 4 -6 -3 4 -7 3 -12 -3 -12 -5
0 -11 3 -14 8 -2 4 -2 0 1 -8 2 -8 5 -21 5 -27 0 -7 5 -13 10 -13 5 0 6 8 3
18 -5 15 -4 15 8 -2 8 -10 19 -15 25 -12 14 9 20 -6 10 -29 -7 -18 -8 -18 -8
-2 -1 10 -6 15 -11 12 -6 -4 -7 -11 -4 -17 4 -7 2 -8 -4 -4 -6 4 -9 12 -6 19
3 8 -4 13 -16 13 -11 0 -20 -4 -20 -8 0 -11 -27 -10 -34 1 -3 4 1 17 10 27 14
18 14 18 4 -5 -9 -18 -9 -22 1 -19 15 5 21 36 9 43 -5 3 -7 12 -3 20 3 8 0 15
-5 15 -6 0 -9 -9 -7 -20 2 -11 0 -20 -6 -20 -5 0 -9 -6 -9 -13 0 -10 -13 -13
-45 -12 -25 1 -48 -2 -51 -6 -3 -5 -10 -7 -15 -4 -5 4 -9 2 -9 -4 0 -19 19
-21 28 -4 9 14 10 13 9 -8 -2 -19 -6 -25 -19 -21 -10 2 -18 8 -18 12 0 5 -6
15 -13 22 -7 7 -20 23 -29 36 -13 20 -18 21 -29 9 -8 -8 -23 -12 -34 -10 -11
3 -29 6 -40 7 -11 2 -19 8 -18 13 1 5 -9 9 -23 9 -13 0 -24 -4 -24 -9 0 -5 6
-7 14 -4 8 3 20 -1 26 -8 7 -8 16 -13 20 -10 11 7 41 -5 35 -14 -2 -4 2 -8 10
-8 8 0 11 5 8 10 -3 6 -1 7 5 3 6 -3 13 -2 17 4 3 5 12 10 18 10 7 -1 -1 -12
-18 -25 -21 -18 -32 -21 -42 -13 -9 7 -13 7 -13 -1 0 -6 14 -17 30 -26 17 -9
30 -18 30 -21 0 -3 -16 4 -36 15 -35 21 -35 21 -29 1 4 -11 2 -20 -4 -20 -6 0
-10 3 -10 8 3 18 -2 32 -12 32 -5 0 -7 -6 -3 -12 6 -10 4 -10 -7 0 -16 14 -33
16 -24 2 3 -5 1 -10 -4 -10 -6 0 -11 4 -11 8 0 5 -6 9 -12 9 -7 0 -22 4 -33 9
-17 6 -18 5 -8 -7 8 -10 9 -19 1 -29 -8 -12 -9 -12 -4 2 4 13 -4 22 -25 34
-22 11 -29 20 -24 32 3 9 3 13 -1 10 -3 -4 -14 1 -23 10 -9 10 -13 13 -8 8 14
-19 7 -28 -10 -15 -14 12 -16 12 -9 0 6 -9 5 -12 -5 -9 -8 3 -22 -2 -33 -11
-18 -15 -18 -15 -12 6 4 12 2 24 -3 28 -7 4 -8 -1 -4 -12 3 -10 3 -15 -2 -11
-4 4 -16 3 -26 -2 -13 -8 -20 -6 -28 7 -6 10 -11 13 -11 6 0 -6 -11 -10 -25
-9 -21 3 -23 1 -14 -16 7 -14 8 -23 1 -30 -12 -12 -35 -1 -27 13 4 5 2 9 -4 9
-21 0 -20 -19 1 -35 22 -15 24 -14 40 5 16 20 19 20 47 6 31 -17 49 -36 32
-36 -5 0 -11 4 -13 9 -4 12 -58 23 -58 11 0 -18 -30 -18 -54 1 -25 20 -37 14
-16 -7 8 -8 6 -15 -5 -24 -10 -8 -15 -9 -15 -1 0 6 5 11 11 11 8 0 8 4 -1 15
-6 8 -9 19 -5 25 3 5 -1 10 -10 10 -10 0 -13 -5 -9 -12 5 -9 3 -9 -9 1 -9 7
-15 17 -12 21 6 10 -14 25 -21 17 -3 -3 0 -15 6 -27 10 -18 8 -24 -7 -35 -10
-7 -20 -11 -23 -8 -3 2 3 9 13 14 17 10 15 29 -4 29 -6 0 -7 -5 -3 -12 4 -7 3
-8 -4 -4 -11 6 -16 -5 -14 -26 1 -3 -5 -12 -13 -18 -11 -9 -15 -9 -15 -1 0 6
4 11 9 11 6 0 8 9 6 20 -2 11 2 20 8 20 8 0 8 3 -1 9 -11 7 -10 9 3 14 11 5
14 3 9 -6 -5 -9 -4 -9 6 0 19 17 6 27 -18 14 -23 -12 -41 3 -37 32 2 9 -1 15
-6 11 -5 -3 -7 -9 -4 -14 3 -4 -1 -11 -7 -13 -10 -4 -10 -6 0 -6 7 -1 10 -6 7
-11 -5 -8 -12 -7 -23 2 -12 10 -14 10 -8 1 4 -8 1 -13 -9 -13 -9 0 -14 4 -11
9 9 13 -25 23 -39 11 -6 -5 -16 -6 -20 -2 -5 4 -5 1 -1 -5 11 -19 -5 -16 -19
3 -10 15 -12 14 -10 -7 2 -22 6 -24 60 -24 38 0 60 -4 63 -13 3 -9 -8 -12 -35
-11 -57 2 -65 0 -57 -13 5 -9 2 -9 -9 1 -14 11 -20 11 -32 1 -10 -9 -15 -9
-15 -1 0 6 6 11 13 11 8 0 7 3 -3 10 -18 11 -32 -7 -24 -35 5 -19 4 -19 -7 -1
-9 15 -13 16 -20 5 -7 -11 -9 -11 -9 -1 0 7 7 15 15 18 22 9 18 19 -7 21 -24
2 -48 -13 -48 -30 0 -5 9 -2 20 8 18 17 20 17 14 2 -3 -9 -10 -17 -15 -17 -5
0 -9 -8 -10 -17 0 -12 -4 -8 -11 10 -10 29 -26 34 -47 15 -11 -11 -14 -10 -18
0 -3 6 -9 9 -14 6 -6 -3 -5 -12 3 -22 7 -10 -1 -6 -16 8 -22 18 -28 20 -23 8
8 -23 -8 -32 -30 -18 -15 9 -14 10 7 4 19 -5 22 -3 14 6 -6 6 -18 12 -25 13
-8 2 -20 6 -26 10 -14 9 -18 -5 -6 -17 4 -3 8 -13 9 -21 2 -11 -2 -12 -16 -5
-9 5 -20 6 -24 3 -3 -3 -6 -1 -6 6 0 8 8 10 23 6 16 -5 19 -4 11 4 -17 19 -53
21 -62 5 -8 -14 -10 -14 -21 0 -10 12 -8 17 10 26 12 7 19 8 16 3 -3 -5 5 -9
18 -9 13 0 22 3 20 6 -5 9 35 5 59 -5 11 -5 21 -3 26 4 5 9 9 8 14 -4 6 -17
26 -12 26 6 0 6 -5 7 -10 4 -6 -4 -10 -3 -9 2 1 4 1 15 0 23 -1 13 -2 13 -11
0 -10 -17 -39 -20 -57 -6 -7 5 -13 5 -13 0 0 -5 -5 -2 -10 6 -7 11 -10 11 -10
2 0 -7 -5 -10 -10 -7 -6 4 -8 10 -5 15 3 5 2 11 -3 14 -4 2 -9 -4 -9 -15 -1
-10 3 -19 8 -19 6 0 7 -5 3 -11 -4 -7 -15 -2 -31 15 -24 26 -45 37 -24 13 8
-10 7 -19 -5 -33 -15 -18 -15 -18 -9 4 5 17 2 22 -13 22 -11 0 -26 -8 -33 -17
-10 -11 -10 -14 -1 -9 6 4 12 2 12 -3 0 -6 -6 -11 -13 -11 -17 0 -39 38 -31
52 5 7 3 8 -5 4 -7 -5 -10 -14 -7 -22 3 -7 1 -16 -5 -20 -12 -7 7 -34 24 -34
7 0 7 4 -1 12 -7 7 -12 16 -12 20 0 12 44 -35 46 -49 2 -9 -5 -9 -26 2 -37 19
-41 19 -34 -2 4 -13 3 -15 -4 -5 -5 8 -8 30 -6 50 1 21 -1 31 -5 23 -7 -11
-10 -11 -15 0 -5 11 -7 12 -12 1 -5 -10 -9 -9 -18 4 -10 13 -15 14 -21 4 -5
-8 -4 -11 2 -7 6 4 16 -6 22 -24 6 -19 15 -28 22 -24 8 6 7 10 -2 16 -7 4 -10
11 -6 16 11 10 28 -18 19 -32 -4 -5 -7 -16 -7 -24 0 -8 -7 -15 -15 -17 -8 -1
-22 -4 -30 -6 -8 -3 -11 -3 -7 0 5 2 1 13 -9 23 -9 10 -12 19 -7 19 6 0 13 -7
17 -15 3 -8 10 -15 16 -15 7 0 8 5 3 13 -4 6 -6 21 -5 32 2 13 0 16 -6 8 -4
-7 -18 -11 -31 -8 -16 3 -21 0 -18 -9 3 -8 0 -22 -7 -31 -12 -17 -14 -16 -34
6 -20 20 -22 21 -22 4 0 -10 -3 -16 -6 -12 -3 3 -3 15 1 28 6 17 9 19 16 8 7
-12 9 -12 9 0 0 7 6 11 14 8 11 -4 13 -1 10 11 -5 14 -4 15 5 2 9 -13 11 -13
11 0 0 13 1 13 10 0 9 -13 10 -13 10 0 0 13 1 13 10 0 5 -8 10 -10 10 -5 0 6
-5 17 -10 25 -7 11 -10 11 -10 2 0 -8 -5 -10 -12 -5 -7 4 -17 8 -23 8 -5 1 -9
6 -8 12 3 13 -22 11 -34 -2 -4 -4 -3 -5 3 -2 7 4 17 1 23 -7 9 -10 7 -17 -6
-27 -14 -12 -16 -12 -11 1 4 12 -1 16 -21 17 -14 0 -18 -1 -8 -4 9 -2 17 -9
17 -14 0 -6 -4 -8 -9 -4 -5 3 -13 0 -17 -6 -5 -8 -3 -9 7 -4 12 7 12 6 1 -7
-7 -8 -9 -24 -5 -33 4 -13 3 -16 -6 -11 -7 5 -11 17 -8 27 4 13 0 19 -11 20
-11 0 -12 2 -4 6 6 2 12 9 12 15 0 7 -5 6 -14 -1 -9 -7 -17 -8 -20 -2 -3 5 -1
12 4 14 6 3 5 4 -2 2 -7 -1 -12 -8 -10 -14 4 -18 -16 -12 -21 7 -4 16 -5 16
-6 -1 0 -10 -5 -16 -10 -12 -5 3 -13 0 -17 -6 -5 -8 -3 -9 6 -4 9 6 11 4 5 -6
-8 -12 -6 -12 8 0 16 13 22 8 18 -13 -1 -5 4 -13 11 -17 10 -7 10 -9 0 -9 -7
0 -15 7 -19 17 -5 13 -8 12 -15 -8 -7 -19 -11 -21 -18 -9 -5 8 -7 27 -5 43 3
15 1 27 -5 27 -6 0 -9 -4 -6 -9 3 -5 -6 -8 -19 -8 -22 0 -24 2 -13 16 12 15
11 15 -6 1 -11 -8 -22 -14 -25 -12 -3 1 -6 -2 -6 -7 0 -5 -3 -13 -7 -17 -5 -4
-8 -3 -8 3 0 9 -19 19 -58 28 -6 2 -10 0 -7 -5 3 -4 -2 -13 -9 -19 -10 -8 -16
-9 -21 -1 -3 5 -2 10 4 10 11 0 9 26 -4 37 -4 4 -6 3 -2 -2 9 -17 -9 -39 -24
-29 -20 12 -39 14 -39 3 0 -8 15 -13 33 -10 4 0 7 -2 8 -6 0 -5 2 -16 4 -27 8
-40 -28 -66 -42 -31 -5 14 -8 14 -25 -1 -10 -10 -16 -24 -13 -31 3 -9 0 -11
-7 -7 -7 4 -8 3 -4 -4 4 -7 2 -12 -4 -12 -7 0 -9 8 -4 23 8 26 2 22 -16 -12
-8 -15 -8 -21 -1 -17 6 4 11 2 11 -4 0 -6 5 -8 10 -5 6 3 10 -1 10 -9 0 -9 5
-16 10 -16 7 0 7 6 0 19 -7 14 -7 22 0 26 6 4 8 10 5 15 -9 14 15 23 29 11 22
-18 70 2 59 24 -2 6 3 1 11 -9 24 -29 71 -29 49 0 -5 5 -1 1 9 -8 17 -19 33
-24 23 -8 -3 5 -1 10 5 10 7 0 10 -7 6 -15 -3 -8 -1 -15 4 -15 10 0 14 14 11
38 -3 17 31 12 35 -6 1 -7 0 -8 -3 -2 -2 5 -9 10 -14 10 -6 0 -5 -8 1 -20 6
-11 16 -17 25 -14 8 4 15 2 15 -4 0 -5 -13 -8 -30 -7 -16 1 -28 0 -26 -4 2 -3
-7 -7 -21 -8 -19 -1 -22 1 -12 8 10 7 6 8 -14 5 -15 -3 -25 -1 -22 5 4 5 1 9
-5 9 -7 0 -10 -6 -7 -14 3 -8 -1 -20 -9 -27 -13 -10 -14 -9 -11 12 4 19 1 25
-13 25 -10 0 -17 -3 -15 -6 2 -4 -9 -6 -25 -6 -18 0 -26 4 -23 10 4 6 -1 5
-10 -3 -21 -17 -22 -27 -1 -35 8 -3 12 -2 9 3 -3 5 -1 12 5 16 5 3 10 1 10 -5
0 -6 5 -8 10 -5 6 3 10 0 10 -7 0 -8 5 -6 11 5 5 9 15 17 22 17 8 0 8 -3 2 -8
-15 -11 -17 -32 -3 -30 7 2 12 -3 10 -10 -1 -8 2 -11 8 -7 6 3 8 10 5 14 -2 5
4 16 14 25 13 11 21 14 26 7 3 -6 1 -11 -4 -11 -6 0 -11 -5 -11 -11 0 -8 4 -8
14 0 8 7 25 10 39 7 15 -3 31 1 38 10 6 7 16 11 21 8 6 -4 5 -10 -3 -15 -7 -4
-10 -11 -6 -16 5 -4 12 -1 16 6 7 10 13 11 32 1 l24 -13 -20 20 c-11 11 -23
18 -28 16 -4 -2 -2 7 4 21 11 23 13 24 34 10 21 -14 24 -14 34 3 8 14 11 15
12 3 1 -8 1 -18 0 -22 0 -5 6 -8 14 -8 8 0 14 3 14 8 -1 4 -1 14 0 22 1 12 4
12 12 -3 5 -9 15 -17 21 -17 9 0 9 3 0 12 -7 7 -12 16 -12 22 0 5 6 1 14 -9 8
-11 12 -23 10 -27 -3 -5 0 -8 5 -8 6 0 11 7 11 15 0 19 14 19 31 -1 11 -14 14
-14 28 5 18 23 48 14 38 -11 -7 -19 -49 -17 -73 2 -16 13 -17 13 -11 -2 3 -10
1 -20 -5 -24 -6 -4 -8 -3 -5 3 8 13 -71 9 -84 -4 -8 -8 -5 -14 11 -23 12 -6
24 -9 28 -6 3 3 -1 6 -8 6 -22 0 -2 13 25 16 26 3 34 -11 13 -19 -10 -4 -10
-6 0 -6 7 -1 15 6 18 14 4 8 11 12 17 8 6 -3 7 -1 3 5 -4 7 -3 12 3 12 19 0
21 -19 4 -29 -10 -6 -13 -11 -7 -11 5 0 15 5 22 12 6 6 17 13 24 14 7 1 20 5
29 8 10 5 16 1 16 -9 0 -9 -6 -14 -14 -11 -8 4 -11 1 -8 -5 4 -6 13 -8 20 -5
7 2 18 -1 25 -7 9 -9 11 -9 7 -1 -4 7 0 15 9 18 12 5 15 2 10 -9 -3 -9 -2 -13
4 -10 6 3 10 14 10 23 1 16 2 15 14 -1 11 -14 15 -15 19 -4 3 8 1 20 -4 28 -5
8 -9 9 -9 3 0 -6 -7 -11 -15 -12 -8 -1 -22 -3 -30 -4 -8 -1 -15 -5 -15 -10 0
-5 -5 -6 -11 -3 -6 5 -4 12 8 22 16 13 16 14 1 9 -26 -8 -32 11 -9 31 11 9 18
20 15 25 -3 4 0 8 5 8 14 0 14 -13 1 -26 -15 -15 11 -47 33 -38 14 5 15 9 6
20 -7 8 -9 17 -7 20 8 7 49 -62 46 -76 -2 -7 6 -13 18 -15 17 -1 20 3 17 19
-4 21 -4 21 11 2 15 -19 22 -11 16 19 -1 6 2 6 6 2 4 -4 14 3 21 15 7 13 12
17 13 11 0 -7 5 -13 11 -13 5 0 7 5 4 10 -3 6 -1 10 5 10 7 0 9 -8 5 -21 -6
-18 -5 -19 14 -10 11 6 25 20 31 31 10 19 13 19 40 5 37 -19 46 -34 30 -48
-10 -9 -11 -9 -5 2 5 10 4 12 -4 7 -6 -4 -9 -11 -6 -16 3 -4 -1 -10 -7 -13 -8
-2 -9 -8 -4 -13 5 -5 11 -4 13 4 3 6 9 10 14 6 5 -3 5 -14 -2 -27 -10 -21 -9
-21 5 -3 12 14 13 23 5 33 -8 9 -8 13 -1 13 6 0 18 -12 27 -27 15 -27 15 -27
9 -3 -6 22 -5 23 10 11 10 -9 16 -10 16 -2 0 10 -13 15 -32 12 -5 0 -8 2 -9 7
0 4 -2 17 -5 29 -2 12 1 25 6 28 6 4 7 -1 3 -11 -4 -12 -2 -15 8 -12 8 3 14
10 14 15 0 20 11 23 12 4 1 -10 -8 -23 -20 -28 l-21 -10 22 -5 c14 -4 20 -2
15 4 -3 7 -1 8 5 4 10 -6 16 4 14 24 -1 9 41 6 56 -3 7 -5 12 -4 12 2 0 6 5
11 11 11 8 0 8 -5 -1 -15 -7 -8 -16 -12 -21 -9 -5 3 -9 0 -9 -5 0 -16 26 -13
40 4 9 11 17 12 30 5 25 -13 33 -13 24 3 -4 6 2 3 14 -7 21 -18 23 -18 42 -1
11 10 20 14 20 9 0 -5 5 -2 11 6 9 13 10 12 5 -2 -7 -24 9 -23 34 2 11 11 20
16 20 11 0 -6 -4 -13 -10 -16 -5 -3 -10 -11 -10 -16 0 -6 14 -1 31 12 20 14
34 18 41 11 6 -6 6 -12 -1 -16 -6 -4 -11 -17 -11 -28 0 -12 -3 -18 -7 -14 -5
4 -8 13 -8 18 0 6 -7 13 -15 15 -12 4 -13 3 -1 -5 10 -7 5 -9 -17 -9 -17 1
-28 5 -26 9 3 4 -3 5 -12 1 -10 -4 -13 -8 -7 -10 7 -3 9 -11 6 -19 -6 -16 12
-19 22 -4 4 6 11 7 17 4 6 -4 5 -10 -3 -16 -11 -8 -10 -9 2 -5 9 3 23 0 30 -6
7 -7 5 -2 -5 11 -11 12 -14 22 -8 22 6 0 14 -5 17 -10 4 -7 13 -7 26 0 13 7
19 7 19 0 0 -5 5 -10 11 -10 5 0 7 5 4 10 -3 6 1 13 9 16 9 3 13 11 9 17 -4 6
-11 3 -20 -8 -9 -14 -13 -15 -13 -4 0 12 -2 12 -10 -1 -5 -8 -10 -10 -10 -4 0
13 26 37 44 40 6 1 19 5 29 9 10 4 17 3 17 -4 0 -6 -3 -10 -7 -10 -20 3 -34
-2 -28 -11 3 -5 12 -7 19 -4 8 3 16 -3 19 -15 3 -14 1 -18 -9 -14 -8 3 -11 10
-8 17 4 6 -1 4 -10 -5 -13 -12 -14 -21 -7 -40 10 -24 10 -24 10 -1 1 12 6 22
12 22 5 0 7 -4 4 -10 -4 -6 1 -7 12 -3 15 6 16 4 6 -8 -10 -12 -8 -15 7 -15
15 0 17 4 8 19 -16 30 -19 65 -7 73 8 5 8 9 -1 14 -8 5 -4 9 10 13 20 5 21 4
6 -18 -20 -31 -20 -41 -1 -25 12 10 19 10 27 2 12 -12 52 3 44 16 -3 5 0 14 5
22 7 12 8 11 6 -5 -1 -11 -6 -25 -10 -32 -4 -6 -1 -13 5 -16 8 -2 9 -8 4 -13
-5 -5 -11 -4 -13 4 -9 25 -19 11 -19 -27 1 -22 4 -37 9 -34 4 2 7 13 7 24 0
10 4 19 10 19 5 0 7 -8 4 -17 -5 -14 -4 -15 4 -4 5 7 15 10 22 6 9 -6 9 -3 1
12 -6 11 -7 23 -4 27 3 3 1 6 -7 6 -9 0 -10 3 -1 13 6 8 7 18 3 22 -4 5 -2 5
5 2 6 -4 14 -1 16 5 4 9 6 10 6 1 1 -6 -3 -15 -9 -18 -5 -3 -10 -12 -10 -18 1
-7 10 -1 22 13 l21 25 -8 -24 c-4 -15 -3 -21 3 -17 12 7 42 -3 42 -13 0 -4 -7
-8 -15 -8 -8 0 -12 4 -9 9 3 4 0 8 -6 8 -7 0 -10 -6 -7 -13 3 -8 -1 -14 -8
-14 -7 0 -11 6 -8 14 3 7 1 13 -5 13 -9 0 -9 -20 -2 -40 1 -3 2 -8 1 -12 -2
-13 17 -9 22 5 3 9 8 9 23 -3 15 -11 16 -11 7 0 -7 8 -13 19 -13 25 1 5 9 0
19 -13 13 -15 21 -18 24 -10 3 10 7 10 19 1 11 -10 17 -10 26 -1 6 6 15 8 19
4 4 -4 1 -11 -7 -16 -9 -6 -10 -10 -3 -10 7 0 16 7 21 16 11 20 4 54 -10 54
-6 0 -7 -7 -4 -16 3 -8 2 -13 -3 -10 -5 3 -12 -2 -16 -12 -6 -16 -7 -16 -20 2
-8 10 -12 23 -9 27 3 5 0 9 -6 9 -7 0 -9 -7 -6 -16 3 -9 2 -12 -5 -9 -6 4 -8
13 -5 20 2 7 -4 15 -15 18 -20 5 -27 27 -8 27 5 0 7 -4 4 -10 -3 -5 2 -10 12
-10 11 0 25 -6 32 -12 11 -11 13 -10 8 5 -4 10 -3 16 2 12 6 -3 9 -14 8 -25
-1 -10 -5 -16 -11 -13 -5 3 -6 1 -2 -5 10 -16 14 -15 26 9 9 15 8 24 -2 37
-11 13 -11 14 1 7 11 -6 13 -4 8 9 -4 11 -3 15 4 11 6 -4 8 -12 6 -19 -5 -12
18 -38 26 -30 3 3 4 -3 4 -13 -2 -13 4 -17 20 -16 13 2 22 -1 22 -5 -4 -26 2
-33 16 -18 18 17 19 27 4 24 -6 -2 -14 4 -16 12 -4 13 -3 13 7 0 10 -12 11
-11 7 7 -3 15 -1 20 9 16 7 -2 10 -12 6 -21 -5 -15 -4 -15 11 -3 21 17 22 31
3 31 -20 0 -29 17 -15 26 8 4 9 3 5 -4 -4 -7 -1 -12 6 -12 7 -1 23 -9 36 -19
23 -20 31 -38 10 -25 -6 4 -8 3 -5 -3 4 -6 -3 -9 -16 -8 -16 2 -23 -3 -24 -16
-1 -10 3 -19 8 -19 6 0 7 5 3 11 -4 7 -1 10 7 7 8 -3 22 1 32 10 10 9 17 10
17 4 0 -6 -10 -18 -22 -26 -12 -9 -17 -16 -11 -16 6 0 16 7 23 15 13 16 40 20
40 7 0 -5 7 -9 14 -9 8 0 15 3 14 6 0 3 1 8 2 11 7 19 7 41 -1 46 -5 3 -9 -2
-9 -10 0 -9 -5 -16 -11 -16 -5 0 -7 5 -3 11 4 8 0 8 -15 0 -11 -7 -21 -8 -21
-4 0 4 19 16 41 25 27 11 38 21 33 29 -4 8 -3 9 5 5 7 -5 9 -12 3 -19 -12 -16
-11 -47 2 -47 6 0 5 -5 -2 -12 -7 -7 -12 -17 -12 -23 0 -5 5 -3 10 5 6 10 10
11 10 3 0 -7 4 -13 9 -13 5 0 8 8 6 18 -2 9 -4 17 -5 17 -1 0 -3 9 -5 20 -4
21 11 45 29 45 6 0 5 -4 -3 -9 -19 -12 -22 -51 -4 -51 16 0 16 -1 3 -35 -7
-17 -7 -24 0 -20 6 3 10 11 10 17 0 6 8 17 18 25 9 8 12 12 6 9 -7 -3 -18 2
-25 12 -7 9 -9 14 -4 9 4 -4 19 3 32 15 19 17 23 19 17 5 -3 -9 -11 -17 -17
-17 -15 0 1 -13 19 -16 10 -2 14 3 10 12 -4 9 -2 12 5 8 8 -4 9 1 4 17 l-7 24
17 -23 c12 -17 20 -20 34 -12 10 5 21 6 25 3 3 -3 6 -1 6 5 0 6 -4 14 -10 17
-14 8 -13 25 2 25 6 0 8 -3 5 -7 -4 -3 -2 -12 4 -19 12 -14 3 -38 -11 -29 -4
3 -10 -2 -14 -10 -3 -8 -1 -15 5 -15 6 0 8 -9 4 -19 -5 -15 -1 -19 14 -18 11
1 18 3 16 6 -12 11 21 31 52 31 34 0 43 -18 13 -28 -7 -3 -10 0 -7 5 4 6 -3
10 -15 9 -12 -1 -24 -11 -29 -24 -6 -15 -5 -21 1 -17 6 3 10 13 10 21 0 16 16
19 25 4 9 -14 17 -12 45 11 14 11 19 17 11 13 -10 -5 -12 -3 -6 6 5 8 4 11 -3
6 -6 -3 -14 -1 -18 6 -4 7 -3 10 1 5 5 -4 17 0 27 10 11 9 18 11 18 5 0 -7 -5
-12 -11 -12 -5 0 -8 -4 -4 -10 3 -5 12 -7 20 -4 11 5 12 11 5 24 -12 23 -13
30 -2 30 5 0 9 -7 10 -15 1 -8 3 -22 4 -30 1 -8 5 -15 10 -15 5 0 7 -4 3 -9
-3 -5 0 -13 6 -17 8 -4 7 -9 -2 -16 -11 -8 -11 -9 1 -5 8 2 14 10 12 17 -2 7
3 10 12 7 10 -4 13 -1 10 8 -3 8 -11 13 -16 12 -6 -1 -13 5 -15 13 -3 10 -2
11 4 3 6 -8 13 -3 22 18 7 16 18 29 24 29 8 0 7 -4 -1 -12 -16 -16 -15 -28 3
-28 8 0 15 -5 15 -10 0 -7 -7 -7 -21 1 -17 9 -20 8 -16 -3 2 -7 10 -12 17 -10
7 2 10 -3 7 -12 -4 -9 -2 -18 4 -21 5 -4 9 -3 8 2 -3 20 2 34 11 28 5 -3 8
-11 6 -18 -1 -7 -1 -9 1 -4 3 4 9 7 14 7 6 0 7 -6 3 -12 -4 -7 -4 -10 1 -6 4
4 15 3 25 -2 13 -7 16 -5 14 13 -1 12 -3 25 -3 30 -1 4 -5 7 -10 7 -6 0 -8 -9
-6 -20 2 -12 0 -18 -6 -15 -5 4 -7 10 -4 15 3 4 -2 11 -11 14 -10 4 -13 2 -8
-6 4 -7 3 -8 -4 -4 -17 10 -15 19 9 34 12 8 18 9 14 3 -3 -6 2 -11 12 -11 21
0 41 -28 37 -53 -1 -9 2 -15 7 -11 5 3 7 9 4 13 -2 5 7 8 21 8 15 0 30 6 34
13 5 8 10 9 14 2 4 -6 -2 -15 -11 -21 -10 -6 -14 -11 -9 -11 5 0 17 7 27 16
14 12 22 13 39 4 16 -8 19 -15 11 -24 -8 -9 -7 -13 3 -13 14 0 16 21 3 33 -4
4 -7 12 -7 18 1 6 10 0 20 -13 11 -13 20 -19 20 -14 0 5 -5 14 -11 20 -7 7 0
10 25 9 19 -1 39 -5 42 -9 8 -7 -10 -11 -36 -7 -8 1 -12 -1 -8 -5 11 -11 43
-13 50 -2 4 7 11 7 21 -1 11 -9 18 -8 31 7 16 17 16 20 1 35 -22 21 -41 21
-24 -1 12 -14 12 -16 0 -8 -9 5 -12 4 -7 -3 4 -6 14 -8 24 -5 15 6 15 5 3 -11
-14 -16 -16 -17 -27 -1 -7 9 -15 16 -18 16 -6 -1 -7 2 -5 17 1 4 2 13 3 21 2
21 25 25 32 7 3 -9 10 -13 15 -10 5 3 9 0 9 -6 0 -6 5 -8 10 -5 8 5 7 12 -2
23 -7 10 0 6 16 -8 l28 -25 -6 25 c-6 23 -6 24 6 5 14 -22 38 -31 38 -15 0 5
9 10 21 10 11 0 17 4 14 10 -3 6 -1 10 5 10 6 0 9 -8 6 -18 -4 -13 0 -18 15
-19 18 -2 19 0 7 15 -12 16 -11 16 7 1 11 -9 27 -16 35 -16 8 -1 23 -4 33 -8
12 -5 16 -3 12 6 -3 8 -1 21 5 29 8 13 11 13 22 1 10 -10 10 -12 1 -7 -7 4
-13 3 -13 -3 0 -18 17 -21 30 -6 11 14 15 14 31 -1 21 -19 25 -34 8 -34 -5 0
-8 4 -5 8 3 5 -1 9 -9 9 -8 0 -15 -4 -15 -9 0 -4 -5 -8 -11 -8 -5 0 -8 4 -5 9
9 13 -22 7 -36 -7 -15 -15 -31 -16 -22 0 4 6 3 8 -4 4 -5 -3 -13 0 -15 6 -4
10 -6 9 -6 -1 -1 -10 -4 -11 -14 -3 -10 8 -13 6 -14 -8 -1 -12 8 -24 20 -31
20 -9 20 -9 5 4 -22 17 -23 24 -3 24 8 0 15 -4 15 -9 0 -4 9 -8 19 -8 11 0 22
-6 25 -12 3 -7 3 -3 0 9 -5 23 12 26 37 7 23 -18 45 -27 25 -10 -11 9 -16 19
-12 23 4 5 17 -3 28 -17 18 -22 20 -22 14 -4 -4 15 -2 21 9 21 10 0 14 -7 10
-21 -3 -12 -2 -15 1 -8 3 6 10 12 15 12 6 0 8 -4 5 -8 -3 -5 2 -9 10 -9 9 0
11 4 5 10 -5 5 -7 16 -3 25 4 11 1 14 -12 9 -12 -5 -15 -3 -10 6 5 7 0 6 -12
-3 -10 -8 -16 -11 -12 -6 4 4 -2 17 -12 29 -11 11 -17 23 -14 26 3 3 9 -1 15
-9 8 -13 12 -12 24 4 8 11 15 15 15 9 0 -7 -4 -15 -10 -18 -5 -3 -10 -11 -10
-16 0 -6 13 -1 29 10 16 12 33 21 38 21 4 0 -5 -9 -22 -20 -18 -12 -24 -20
-15 -20 9 0 21 5 28 10 6 6 10 7 7 4 -9 -12 36 -43 53 -37 14 6 15 4 4 -9 -10
-13 -17 -14 -36 -5 -14 7 -22 15 -20 19 2 3 1 9 -4 12 -4 2 -9 -4 -9 -15 -1
-13 5 -19 18 -19 11 0 18 -4 15 -9 -9 -13 19 -7 38 8 9 7 14 16 12 20 -3 4 -1
13 4 20 9 15 30 6 30 -12 0 -8 -3 -8 -9 2 -6 9 -11 10 -15 2 -4 -6 -2 -11 5
-11 8 0 6 -6 -4 -18 -14 -15 -14 -19 -3 -19 8 0 14 5 13 10 -1 5 6 14 15 20
13 9 20 7 35 -9 10 -11 14 -14 10 -7 -10 14 -1 33 16 33 8 0 8 -3 -2 -9 -7 -5
-9 -11 -4 -14 5 -3 14 3 20 13 11 16 9 18 -28 15 -21 -2 -39 1 -39 6 0 5 0 11
0 14 0 3 3 5 6 4 4 0 10 5 15 12 4 8 11 10 15 6 4 -4 -1 -14 -12 -21 -19 -14
-19 -15 0 -12 11 1 27 12 37 24 14 18 18 19 23 7 3 -8 0 -14 -6 -12 -6 1 -12
-3 -15 -10 -2 -6 4 -10 14 -9 10 2 20 14 23 27 l6 24 7 -25 c3 -14 2 -29 -5
-35 -8 -7 -9 -6 -3 4 5 10 4 12 -4 7 -6 -4 -9 -12 -6 -17 4 -5 2 -9 -4 -9 -6
0 -15 -10 -21 -23 -10 -20 -10 -20 3 -4 12 14 16 15 26 4 6 -8 7 -18 3 -22 -4
-5 -1 -5 6 0 10 5 11 10 3 18 -18 18 -12 31 7 16 16 -13 16 -13 2 5 -14 18
-13 18 10 11 14 -4 31 -13 39 -19 11 -8 13 -8 8 1 -9 15 32 14 52 -1 11 -9 13
-8 7 2 -6 11 0 12 28 8 27 -4 36 -2 36 8 0 8 -7 17 -16 20 -15 6 -15 4 -3 -11
12 -15 12 -16 -1 -8 -21 13 -50 13 -50 1 0 -6 -5 -4 -10 4 -5 8 -10 11 -10 6
0 -4 -10 -1 -23 7 -15 10 -29 12 -38 6 -11 -7 -8 -9 9 -9 13 0 20 -4 17 -10
-8 -13 -38 3 -41 21 -1 8 -6 23 -10 33 -5 14 -4 17 4 12 7 -4 12 -14 12 -22 0
-17 29 -15 48 4 16 15 35 6 28 -14 -3 -7 -1 -16 3 -19 14 -8 23 26 11 40 -8
10 -8 15 1 21 7 4 9 3 6 -3 -8 -12 17 -36 26 -26 4 3 13 0 22 -7 9 -8 15 -9
15 -2 0 6 -8 16 -17 21 -11 6 -13 11 -5 11 8 0 10 5 6 13 -4 6 -4 9 1 5 4 -4
14 -3 22 4 11 8 12 7 7 -6 -3 -9 -11 -16 -16 -16 -7 0 -6 -5 1 -14 6 -7 9 -21
5 -30 -4 -12 0 -16 16 -16 12 0 18 -4 15 -10 -4 -6 -12 -7 -18 -4 -7 4 -6 1 2
-7 10 -11 15 -11 18 -2 3 9 10 9 27 -2 20 -14 25 -14 35 -1 7 8 19 12 27 9 17
-6 19 13 2 23 -7 5 -8 3 -3 -6 5 -9 4 -11 -4 -6 -6 4 -9 12 -6 17 4 5 1 9 -4
9 -6 0 -11 -4 -11 -8 0 -5 -13 -8 -30 -8 -16 0 -30 4 -30 8 0 5 -5 6 -12 2 -7
-4 -8 -3 -4 4 4 6 13 9 21 6 10 -4 13 0 10 14 -2 15 2 19 18 17 31 -3 31 -3
18 -19 -10 -11 -7 -14 14 -12 15 0 23 6 21 13 -7 17 7 24 24 12 10 -6 11 -9 3
-9 -21 0 -14 -16 7 -17 11 -1 18 2 15 7 -3 4 4 19 16 31 l20 24 -16 -27 c-9
-15 -12 -29 -7 -32 5 -3 12 4 15 16 4 12 9 19 12 16 4 -3 2 -15 -4 -26 -8 -16
-7 -21 5 -26 14 -5 14 -9 3 -24 -12 -15 -11 -15 8 1 19 16 22 17 30 3 6 -10
13 -12 23 -6 12 8 12 10 -4 10 -15 0 -16 3 -7 14 9 11 6 13 -18 11 -26 -2 -29
0 -21 15 5 9 20 25 34 34 21 13 24 14 20 1 -4 -8 -12 -15 -20 -15 -8 0 -11 -6
-7 -16 5 -13 7 -13 14 -2 7 10 9 10 10 -2 1 -8 1 -19 0 -24 -1 -5 5 -6 14 -2
9 3 34 -3 55 -14 27 -14 38 -16 34 -7 -3 8 2 14 10 14 11 0 14 -8 11 -25 -2
-13 -1 -21 3 -17 7 7 8 12 11 40 0 8 5 15 10 15 5 0 8 -12 5 -28 l-5 -27 16
23 c14 18 20 21 31 11 19 -16 28 -5 15 18 -7 12 -10 14 -11 4 0 -11 -5 -9 -22
5 -12 10 -18 13 -13 5 5 -9 4 -12 -3 -7 -6 4 -20 2 -30 -3 -11 -6 -22 -7 -26
-4 -4 4 -16 8 -29 10 -21 4 -21 3 -2 -12 19 -16 19 -16 -3 -5 -12 6 -20 16
-16 22 4 6 -2 8 -17 3 -19 -5 -21 -4 -9 4 13 9 13 11 -2 11 -10 0 -18 5 -18
10 0 7 7 7 21 0 15 -9 24 -8 35 1 10 8 18 9 27 0 8 -6 17 -7 21 -3 4 4 6 1 4
-7 -1 -7 3 -16 11 -19 8 -2 11 0 8 5 -3 5 3 22 14 39 10 16 19 25 19 21 0 -4
-7 -19 -16 -32 -9 -14 -12 -25 -6 -25 5 0 13 8 16 17 6 15 9 15 16 3 5 -8 6
-18 3 -23 -3 -4 1 -7 8 -6 8 2 25 -3 38 -10 19 -10 21 -15 10 -22 -9 -6 -10
-9 -2 -9 6 0 15 5 18 10 3 6 11 10 17 10 7 0 6 -5 -1 -14 -8 -10 -9 -16 -1
-21 6 -4 9 -1 8 7 -2 7 4 12 14 10 9 -1 19 2 23 8 10 15 23 12 28 -7 4 -17 5
-17 6 0 0 10 5 16 10 12 6 -3 8 3 6 15 -2 11 0 22 4 25 5 2 7 17 5 32 -4 28
-4 28 5 3 5 -14 9 -21 10 -17 1 4 10 3 22 -3 12 -7 18 -17 15 -26 -3 -8 -9
-22 -12 -31 -5 -15 -4 -16 5 -3 10 13 12 13 21 0 8 -11 9 -7 5 16 -5 32 14 52
36 38 5 -3 9 0 9 5 0 6 5 11 12 11 6 0 8 -3 5 -7 -4 -3 -2 -12 4 -19 7 -8 6
-14 -2 -20 -7 -4 -9 -3 -5 4 4 7 -1 10 -14 7 -11 -2 -18 0 -15 6 4 5 2 9 -4 9
-5 0 -13 -4 -16 -10 -3 -5 -2 -10 4 -10 5 0 8 -12 5 -26 -4 -22 -3 -23 10 -12
8 8 10 15 4 19 -7 4 -7 9 0 13 6 3 13 2 17 -4 4 -6 11 -7 17 -4 8 5 9 1 5 -12
-6 -17 -6 -17 5 -3 7 9 19 14 26 12 15 -6 15 7 1 27 -10 13 -10 13 -6 -1 3 -9
0 -16 -7 -16 -8 0 -12 12 -11 29 1 15 -1 28 -5 28 -3 0 -15 7 -26 15 -18 14
-17 14 8 4 15 -7 35 -23 43 -36 9 -13 20 -21 26 -17 6 3 3 12 -8 21 -17 13
-17 14 2 5 11 -5 25 -7 32 -5 7 2 11 -4 10 -16 0 -11 -5 -17 -9 -15 -5 3 -5
11 -1 17 4 7 -1 6 -10 -2 -10 -8 -15 -16 -13 -19 3 -2 1 -12 -4 -21 -5 -10 -5
-23 1 -32 8 -12 10 -12 8 1 -3 28 1 41 10 35 5 -3 12 -1 16 5 3 5 11 10 17 10
6 0 3 -9 -7 -20 -10 -11 -15 -20 -11 -20 4 0 17 10 28 23 18 20 19 20 13 2 -3
-11 -3 -16 1 -12 4 4 13 -1 21 -11 8 -9 12 -11 8 -4 -3 6 -3 18 2 25 13 20 12
34 -3 34 -8 0 -14 -5 -14 -11 0 -6 -5 -4 -10 4 -7 11 -10 11 -10 2 0 -7 -4
-10 -10 -7 -10 6 -7 61 4 72 3 4 4 -7 2 -24 -2 -23 1 -30 12 -29 9 2 18 9 20
16 3 7 0 10 -5 7 -5 -3 -10 1 -10 9 0 10 4 11 10 5 7 -7 15 -5 24 7 12 16 13
15 7 -3 -6 -16 -4 -18 6 -8 14 13 43 6 34 -9 -4 -6 2 -8 11 -6 10 1 20 9 23
16 2 7 -2 11 -8 10 -7 -2 -15 4 -17 12 -3 10 -2 11 4 4 4 -6 16 -10 26 -8 16
2 16 0 1 -25 -16 -27 -44 -38 -44 -18 0 5 -7 4 -15 -3 -8 -7 -15 -17 -15 -22
0 -6 6 -6 14 1 10 8 16 9 21 1 3 -5 2 -10 -2 -10 -5 0 -18 -7 -29 -15 -18 -14
-17 -15 7 -6 15 5 30 7 34 3 4 -4 5 -1 3 7 -2 7 3 16 10 18 6 3 10 -1 9 -9 -2
-7 -2 -9 1 -5 2 4 10 0 16 -9 10 -13 15 -14 21 -4 5 9 4 11 -3 6 -12 -7 -17 6
-6 17 9 8 35 -3 29 -13 -6 -10 15 -8 33 3 7 5 10 13 7 18 -4 5 -2 9 4 9 5 0
13 -10 16 -21 4 -12 10 -18 14 -13 10 14 30 15 53 3 13 -7 18 -7 14 -1 -7 12
10 25 37 29 10 2 15 -1 12 -7 -3 -5 -1 -10 4 -10 6 0 11 5 11 11 0 5 5 7 10 4
6 -4 8 -11 5 -16 -4 -5 -1 -9 4 -9 6 0 11 5 11 12 0 9 3 9 12 0 7 -7 16 -12
21 -12 5 0 -1 9 -14 20 -14 11 -19 19 -11 20 9 0 5 11 -12 31 -20 24 -24 35
-16 49 13 25 13 27 -5 27 -9 0 -14 -6 -11 -14 3 -8 -1 -16 -9 -19 -8 -4 -12
-10 -9 -15 3 -5 0 -9 -6 -9 -7 0 -9 8 -5 20 8 25 -3 26 -21 3 -8 -11 -13 -13
-14 -5 0 6 -5 12 -11 12 -6 0 -9 -7 -5 -15 3 -8 1 -15 -3 -15 -5 0 -12 8 -15
17 -5 13 -9 14 -15 5 -4 -8 -13 -1 -25 21 -12 23 -13 27 -2 13 9 -11 16 -15
16 -9 0 7 9 11 19 10 11 0 17 -5 15 -9 -3 -5 -11 -5 -17 -2 -9 5 -9 4 -1 -5 9
-10 17 -10 33 -2 12 7 21 9 21 5 0 -3 7 -1 15 6 12 10 15 10 15 -1 0 -11 2
-11 10 1 14 21 12 33 -4 27 -7 -3 -19 0 -25 6 -7 7 -12 8 -11 2 5 -24 -1 -27
-15 -9 -12 15 -14 16 -9 2 5 -14 1 -16 -18 -12 -12 3 -29 6 -36 6 -7 1 -10 8
-7 17 4 12 2 11 -9 -2 -16 -20 -15 -32 2 -65 7 -12 9 -22 5 -22 -4 0 -16 14
-25 31 -10 17 -23 27 -29 24 -6 -5 -4 -11 6 -19 10 -7 18 -27 18 -44 1 -19 7
-32 15 -32 7 0 10 4 7 10 -3 6 -2 10 3 10 6 0 12 -7 16 -15 3 -8 10 -15 16
-15 6 0 8 5 4 12 -4 6 -3 8 3 5 6 -4 14 1 17 10 5 12 9 14 18 5 17 -17 33 -15
18 3 -9 10 -9 15 -1 15 6 0 11 -5 11 -11 0 -5 5 -7 10 -4 6 4 9 1 8 -6 -2 -6
3 -14 10 -16 7 -3 12 -1 11 4 -5 28 3 33 20 12 22 -28 19 -40 -9 -33 -11 2
-30 6 -41 9 -12 2 -31 -1 -43 -7 -11 -7 -25 -11 -30 -10 -5 2 -13 -3 -19 -10
-7 -10 -8 -9 -4 4 4 12 0 15 -19 13 -22 -2 -26 2 -23 21 1 11 -24 22 -38 17
-7 -3 -13 -10 -13 -15 0 -6 6 -8 14 -5 10 4 12 0 9 -14 -5 -18 -6 -18 -18 -3
-8 12 -14 14 -19 6 -4 -7 -2 -12 4 -12 6 0 8 -5 5 -10 -7 -11 -25 -4 -25 9 0
18 50 61 64 55 11 -4 13 0 9 15 -3 11 -9 18 -14 15 -8 -5 -13 9 -10 28 0 4 -8
6 -19 5 -24 -2 -24 -4 -5 -23 8 -9 15 -20 15 -26 0 -6 -8 0 -19 13 -16 20 -21
21 -35 10 -10 -9 -16 -10 -16 -2 0 6 6 11 13 11 8 0 7 4 -3 11 -13 9 -12 10 2
5 10 -3 20 -1 23 5 4 5 10 7 15 4 13 -8 20 9 9 25 -6 11 -9 12 -9 2 0 -7 -4
-11 -10 -7 -5 3 -7 12 -3 20 3 8 0 15 -7 15 -6 0 -9 -4 -5 -9 3 -5 1 -12 -5
-16 -6 -4 -7 -11 -4 -17 4 -6 1 -9 -7 -6 -8 3 -13 14 -11 24 3 16 0 15 -14 -5
l-17 -24 -13 24 c-12 21 -20 14 -15 -13 0 -5 -5 -8 -13 -8 -9 0 -12 7 -10 17
3 11 -4 23 -17 31 -11 8 -18 9 -15 4 3 -6 0 -13 -6 -16 -7 -3 -4 -4 6 -3 10 1
21 -3 23 -9 4 -12 -26 -12 -45 0 -7 4 -10 11 -7 16 3 4 -3 14 -13 21 -15 12
-16 12 -5 -2 10 -12 9 -18 -7 -32 -27 -23 -33 -21 -20 4 7 11 9 23 6 27 -3 3
-6 -1 -6 -8 0 -7 -3 -10 -7 -7 -3 4 -18 -3 -31 -15 l-24 -23 7 24 c5 16 4 21
-4 17 -6 -4 -11 -14 -11 -22 0 -8 -5 -12 -10 -9 -7 4 -7 12 0 25 7 13 7 21 0
25 -6 4 -10 3 -9 -2 1 -4 1 -15 0 -23 -1 -13 -2 -13 -11 0 -5 8 -10 10 -10 5
0 -6 5 -16 12 -23 9 -9 7 -12 -11 -12 -12 0 -20 4 -17 9 8 12 -21 34 -36 28
-8 -3 -6 -6 5 -6 10 -1 15 -6 12 -11 -4 -6 -10 -8 -15 -5 -4 3 -11 -2 -14 -10
-5 -13 -2 -14 17 -5 20 10 21 10 4 -3 -12 -10 -14 -17 -8 -22 6 -3 14 1 17 9
3 9 11 13 16 10 6 -4 4 -11 -6 -16 -14 -8 -15 -13 -5 -24 22 -26 -2 -14 -26
14 -15 16 -24 21 -25 13 0 -8 8 -20 18 -28 15 -13 15 -13 -5 -3 -13 6 -23 17
-23 25 0 18 -21 15 -37 -5 -7 -8 -13 -10 -13 -5 -1 6 -3 17 -5 26 -1 9 3 16
11 16 7 0 11 -4 9 -8 -4 -6 18 -5 35 1 3 1 7 2 10 2 3 0 6 12 5 28 0 26 -1 27
-17 13 -9 -8 -14 -22 -10 -31 5 -15 4 -15 -11 -3 -16 13 -16 16 -2 40 15 23
14 23 -11 -4 -15 -16 -30 -29 -34 -28 -11 3 -5 -52 7 -62 9 -7 10 -14 2 -25
-10 -13 -10 -13 -6 1 7 22 -26 41 -44 26 -8 -7 -3 0 10 15 24 27 17 40 -7 16
-9 -9 -15 -9 -24 0 -19 19 -33 14 -15 -6 10 -10 17 -22 17 -27 0 -5 -7 0 -16
11 -14 18 -15 18 -8 -6 3 -14 3 -22 -2 -17 -10 10 -13 77 -3 77 5 0 13 9 19
20 7 14 7 20 0 20 -5 0 -10 -7 -10 -16 0 -13 -3 -14 -15 -4 -8 7 -12 17 -8 23
3 6 1 7 -6 3 -9 -6 -9 -11 0 -22 19 -23 4 -26 -16 -4 l-18 20 -25 -22 c-23
-21 -25 -21 -18 -3 4 11 4 16 0 13 -4 -4 -15 -3 -25 3 -11 5 -18 6 -17 2 4
-15 -15 -58 -31 -71 -14 -12 -14 -13 4 -7 11 3 16 3 12 -1 -4 -4 1 -13 11 -21
12 -10 8 -9 -15 2 -18 8 -33 20 -33 25 0 17 -18 11 -23 -7 -3 -14 -4 -13 -3 2
1 14 7 19 23 18 17 -2 21 1 17 15 -5 14 -4 15 5 2 6 -8 11 -10 12 -5 0 6 2 21
4 35 2 14 1 19 -1 12 -3 -6 -11 -9 -16 -6 -7 5 -8 2 -3 -6 5 -8 3 -11 -6 -8
-8 3 -13 11 -11 17 1 6 -3 11 -9 11 -6 0 -9 -7 -5 -15 7 -19 -8 -19 -24 0 -10
12 -16 12 -34 3 -36 -20 -47 -18 -42 5 3 12 3 16 0 9 -3 -6 -10 -10 -15 -7 -5
4 -6 -2 -2 -11 5 -13 3 -15 -8 -8 -21 13 -39 14 -39 1 0 -7 -7 -4 -14 6 -7 9
-17 17 -21 17 -4 0 -2 -6 5 -14 9 -12 8 -15 -9 -13 -12 1 -21 5 -21 10 0 4 -4
5 -10 2 -5 -3 -10 0 -10 7 0 10 -2 10 -9 -1 -10 -16 -41 -8 -41 10 0 8 6 7 18
-2 15 -13 16 -12 3 4 -9 12 -17 15 -24 8 -7 -7 -6 -15 2 -25 9 -11 10 -20 2
-35 -6 -11 -9 -26 -8 -33 2 -7 2 -10 0 -5 -3 4 -9 5 -14 2 -5 -4 -6 2 -2 12 6
15 4 16 -9 5 -14 -11 -17 -10 -23 9 -6 17 -9 19 -16 8 -5 -8 -9 -11 -9 -7 0
15 -40 -27 -41 -42 0 -10 -2 -11 -6 -2 -3 7 0 19 6 26 9 11 6 13 -16 12 -16
-1 -34 -5 -41 -10 -15 -9 -55 21 -46 35 3 5 10 7 15 3 5 -3 7 -10 3 -15 -9
-16 29 -6 44 11 8 8 11 10 8 4 -3 -7 4 -10 19 -8 14 1 25 -2 25 -7 0 -6 5 -7
11 -3 8 4 7 9 -2 15 -9 5 -3 7 16 5 23 -3 34 2 49 23 11 14 13 21 6 14 -10 -9
-19 -8 -39 4 l-26 15 25 -21 c27 -22 21 -28 -12 -10 -16 8 -19 8 -13 -1 5 -8
3 -11 -6 -8 -8 3 -13 12 -11 22 2 9 -2 16 -8 16 -5 0 -9 -6 -7 -12 1 -7 -4
-12 -12 -10 -12 3 -12 1 0 -14 12 -16 12 -17 -5 -11 -10 4 -25 2 -34 -5 -9 -7
-13 -8 -9 -2 3 6 0 20 -9 30 -15 18 -15 18 -5 -2 9 -18 7 -21 -19 -21 -18 0
-26 5 -23 13 2 7 -5 17 -16 23 -17 10 -20 9 -15 -4 3 -8 10 -12 15 -9 5 3 9 1
9 -5 0 -21 -19 -20 -34 1 -9 12 -16 16 -16 9 0 -11 -3 -11 -17 0 -16 13 -17
12 -4 -3 8 -11 9 -18 3 -18 -6 0 -14 5 -17 10 -3 6 -11 10 -18 10 -6 0 -3 -6
7 -13 17 -13 16 -14 -12 -14 -18 0 -29 5 -25 10 3 6 1 7 -5 3 -7 -4 -12 -2
-12 3 0 6 -4 11 -8 11 -5 0 -9 -7 -9 -15 0 -8 5 -11 10 -8 6 4 7 1 2 -7 -5 -8
-4 -11 3 -6 6 3 14 1 18 -5 4 -8 3 -9 -4 -5 -19 11 -14 -2 8 -24 11 -11 20
-26 20 -32 -1 -7 -7 -2 -15 12 -8 14 -15 21 -15 15 0 -5 -8 2 -16 18 -12 23
-18 26 -34 17 -10 -6 -22 -15 -25 -20 -10 -16 -28 -12 -21 5 3 9 0 15 -9 15
-8 0 -15 -6 -15 -14 0 -8 -5 -18 -12 -22 -8 -5 -9 -2 -5 9 7 20 -2 49 -13 42
-4 -2 -6 -16 -5 -30 3 -25 -8 -34 -19 -16 -4 5 0 11 6 14 7 2 10 8 6 12 -4 4
-14 2 -22 -4 -11 -9 -16 -9 -22 0 -5 8 -3 9 6 4 9 -6 11 -4 5 5 -6 9 -4 11 5
5 9 -6 11 -4 5 6 -5 8 -5 11 0 7 4 -4 14 -3 21 3 18 14 48 3 38 -13 -6 -10 -5
-10 7 -1 12 10 18 10 29 0 7 -6 10 -7 7 -1 -3 6 0 11 8 11 8 0 11 -5 8 -11 -3
-6 3 -3 13 7 16 15 17 19 4 27 -8 5 -19 10 -25 10 -5 0 -4 -4 4 -9 8 -5 9 -11
3 -15 -6 -4 -15 2 -21 11 -6 10 -11 13 -11 6 0 -7 -11 -10 -29 -7 -16 3 -32 0
-36 -6 -3 -6 -11 -8 -16 -4 -6 3 -16 -1 -22 -10 -7 -9 -22 -18 -35 -19 -17 -1
-21 -6 -16 -22 6 -20 6 -20 -10 0 -8 11 -16 16 -16 11 0 -5 -7 -2 -16 5 -14
11 -19 10 -36 -11 -16 -19 -21 -21 -28 -10 -5 8 -7 17 -4 21 2 4 -3 12 -11 19
-11 9 -12 17 -4 34 9 19 9 19 -4 4 -11 -14 -16 -15 -27 -5 -12 10 -12 9 -1 -6
12 -15 11 -17 -8 -14 -13 2 -27 10 -32 18 -7 12 -9 12 -10 -1 -1 -8 -1 -18 -1
-21 1 -3 -13 -6 -30 -6 -27 0 -29 2 -13 13 16 12 16 13 -1 13 -11 0 -31 2 -47
4 l-27 4 20 -34 c22 -38 17 -67 -7 -34 -8 12 -19 21 -25 21 -6 0 -3 -9 6 -19
10 -11 16 -28 13 -38 -4 -16 -5 -15 -6 2 0 12 -6 26 -12 32 -13 13 -42 5 -33
-9 4 -6 -5 -3 -18 6 -23 15 -38 13 -38 -6 0 -4 3 -7 8 -7 17 3 32 -2 32 -9 0
-4 -11 -8 -24 -8 -21 0 -24 4 -20 29 3 23 1 27 -10 18 -7 -6 -12 -24 -10 -41
2 -17 -1 -30 -6 -30 -5 0 -7 12 -4 26 3 19 1 24 -8 18 -20 -13 -38 -13 -38 -2
0 6 7 7 16 4 10 -4 14 -1 12 6 -3 7 -10 13 -16 13 -6 0 -17 6 -23 12 -10 10
-8 12 10 8 15 -3 19 0 14 8 -5 9 -3 9 8 2 8 -6 28 -10 44 -10 17 0 36 -6 44
-13 12 -11 15 -11 22 0 12 18 11 28 -2 28 -5 0 -7 -4 -4 -10 3 -5 1 -10 -5
-10 -7 0 -9 8 -5 19 7 24 -17 34 -42 16 -24 -19 -39 -19 -24 -1 8 10 9 16 1
21 -6 4 -9 1 -8 -5 2 -7 -6 -14 -16 -16 -10 -1 -22 -8 -26 -15 -6 -8 -11 -6
-20 7 -11 18 -11 18 -6 1 4 -12 2 -17 -6 -14 -7 2 -12 13 -11 23 1 10 0 14 -3
7 -3 -7 -13 -9 -22 -6 -15 4 -15 3 -2 -6 12 -9 7 -10 -22 -8 -24 3 -35 0 -32
-7 3 -7 -5 -12 -17 -13 -14 -1 -18 2 -11 10 12 15 12 47 0 47 -5 0 -6 -10 -3
-22 6 -19 5 -21 -6 -10 -19 17 -37 15 -43 -6 -4 -12 -14 -18 -29 -16 -33 4
-33 4 -19 13 11 7 10 9 -3 14 -9 4 -13 3 -10 -3 3 -6 1 -10 -4 -10 -6 0 -11 6
-11 14 0 8 -4 18 -10 21 -6 4 -7 -1 -3 -11z m400 -20 c-2 -3 -15 -7 -28 -9
-23 -4 -23 -4 -5 10 16 12 45 11 33 -1z m129 -2 c-10 -9 16 -32 28 -25 6 4 18
8 26 8 8 0 14 6 12 14 -2 11 0 12 10 4 7 -6 23 -9 36 -8 12 1 28 -5 35 -14 11
-14 10 -14 -5 -2 -21 15 -24 2 -5 -18 8 -10 8 -12 0 -7 -6 3 -14 2 -18 -4 -3
-5 -12 -10 -18 -10 -8 0 -8 3 2 9 9 6 10 11 2 15 -6 4 -14 0 -17 -9 -6 -14 -8
-14 -19 1 -11 16 -13 16 -24 -2 -11 -17 -11 -16 -5 6 6 22 5 23 -9 11 -12 -9
-14 -18 -8 -30 8 -14 5 -17 -15 -17 -13 0 -24 4 -24 9 0 5 7 7 15 3 18 -7 20
5 3 22 -7 7 -8 12 -3 12 5 0 -1 7 -13 16 -24 17 -21 37 4 27 8 -3 12 -8 10
-11z m-403 -10 c-1 -5 4 -16 12 -22 12 -10 15 -10 15 0 0 7 9 2 20 -11 10 -13
19 -19 20 -13 0 5 -5 15 -10 20 -8 8 -6 15 6 25 12 9 15 10 10 2 -9 -15 -1
-16 23 -3 14 7 24 4 40 -11 11 -11 21 -25 21 -32 0 -8 -4 -7 -10 3 -5 8 -12
11 -16 7 -4 -3 -1 -13 5 -21 9 -11 9 -16 0 -22 -7 -4 -9 -3 -5 4 3 6 2 14 -4
17 -6 4 -8 16 -4 28 6 20 4 19 -30 -6 -20 -16 -36 -25 -36 -21 0 3 -8 0 -17
-7 -16 -12 -17 -12 -6 2 7 9 10 19 6 22 -3 4 -12 -1 -20 -11 -12 -16 -13 -15
-7 3 6 16 4 18 -6 8 -10 -9 -19 -9 -40 2 -15 8 -30 11 -34 8 -3 -4 -6 -1 -6 6
0 8 7 11 15 7 9 -3 19 3 26 15 10 20 36 21 32 1z m1060 -6 c3 3 10 -3 16 -14
17 -33 -17 -38 -41 -7 -11 15 -23 24 -26 21 -2 -3 1 -13 9 -23 8 -9 9 -14 2
-10 -6 4 -14 3 -18 -2 -8 -14 -44 -9 -50 7 -7 18 3 32 18 26 7 -2 21 2 32 10
17 13 22 13 36 0 9 -8 18 -11 22 -8z m142 15 c3 -5 2 -12 -3 -15 -5 -3 -9 1
-9 9 0 17 3 19 12 6z m387 -46 c-7 -15 -9 -32 -6 -38 4 -7 3 -8 -2 -4 -5 5 -9
19 -9 30 0 17 -5 21 -22 20 -13 -2 -23 2 -23 8 0 5 -4 8 -10 4 -13 -8 -2 -32
15 -32 8 0 15 4 15 9 0 4 5 8 11 8 8 0 9 -4 0 -13 -6 -8 -7 -18 -3 -22 4 -5 0
-4 -8 1 -21 12 -40 14 -40 3 0 -5 -5 -9 -11 -9 -8 0 -7 5 1 15 7 9 10 18 6 22
-3 4 -13 -2 -21 -13 -9 -12 -13 -13 -10 -4 4 11 -1 16 -15 16 -24 0 -25 -4 -4
-27 10 -11 12 -19 4 -24 -6 -3 -10 -3 -9 2 4 20 -2 27 -12 13 -9 -13 -10 -12
-5 2 3 10 1 20 -4 23 -6 4 -10 0 -10 -7 0 -10 -2 -10 -9 1 -5 8 -7 21 -3 29 4
11 2 13 -9 7 -8 -5 -23 -9 -34 -10 -13 0 -20 -6 -19 -17 1 -10 -2 -15 -7 -12
-16 10 -3 49 16 46 11 -2 14 1 9 9 -5 8 -3 10 7 4 18 -12 71 -14 91 -4 9 5 19
5 22 1 7 -12 47 -9 71 5 31 18 53 -7 37 -42z m204 -10 c-12 -18 -12 -23 0 -31
10 -7 11 -13 3 -24 -9 -13 -10 -13 -5 2 3 11 -2 19 -14 23 -10 3 -22 15 -25
26 -4 11 -10 18 -13 14 -7 -6 -8 -10 -11 -37 -1 -10 -4 -9 -10 1 -5 8 -7 19
-5 26 3 6 -2 12 -11 12 -9 0 -14 -6 -10 -14 14 -35 15 -45 1 -22 -8 14 -13 34
-11 45 2 10 4 22 4 27 2 15 20 6 26 -13 3 -11 11 -20 17 -20 6 0 8 3 5 7 -4 3
0 14 9 24 15 17 17 16 40 -4 22 -18 23 -23 10 -42z m-1890 41 c17 -13 17 -14
1 -12 -19 2 -47 26 -31 26 6 0 19 -6 30 -14z m1724 -6 c0 -5 -5 -10 -11 -10
-5 0 -7 5 -4 10 3 6 8 10 11 10 2 0 4 -4 4 -10z m531 -9 c-10 -6 -9 -10 5 -15
10 -4 24 0 34 9 15 14 18 14 30 0 7 -8 16 -12 21 -9 14 8 29 -5 23 -21 -4 -8
-11 -12 -16 -9 -6 4 -5 10 3 16 11 8 11 9 -1 5 -8 -2 -14 -13 -13 -24 3 -25
-27 -26 -45 -1 -7 10 -18 18 -24 18 -7 0 -6 -6 2 -15 7 -8 9 -15 4 -15 -5 0
-2 -5 6 -11 10 -7 11 -9 2 -7 -8 2 -14 8 -14 13 0 28 -43 43 -64 22 -7 -7 9
-11 36 -8 13 2 13 0 1 -8 -10 -6 -23 -5 -40 3 -14 7 -34 11 -44 10 -12 -1 -12
0 -2 3 8 2 12 9 9 15 -4 7 -2 8 4 4 7 -4 12 -3 12 3 0 5 9 8 19 6 11 -2 27 5
37 16 9 10 20 17 23 14 3 -4 0 -10 -8 -14z m-3288 -3 c3 -8 -4 -13 -18 -13
-18 0 -21 3 -13 13 6 6 14 12 18 12 4 0 10 -6 13 -12z m335 2 c7 -7 28 -4 33
3 3 5 9 1 12 -8 4 -9 3 -14 -2 -10 -5 3 -11 0 -13 -7 -3 -7 -9 -8 -19 -2 -15
9 -20 11 -45 13 -8 0 -13 5 -10 10 5 8 34 8 44 1z m112 1 c0 8 6 5 15 -7 15
-19 15 -19 9 1 -5 16 -4 17 5 5 15 -21 14 -30 -3 -30 -8 0 -21 -9 -29 -21
l-15 -21 -7 21 c-7 24 -16 26 -33 9 -21 -21 -13 1 10 27 16 19 24 22 35 14 10
-9 13 -8 13 2z m333 -49 c-5 -11 -8 -11 -13 -1 -5 7 -5 19 -2 28 5 14 4 14
-12 2 -12 -10 -14 -17 -6 -25 5 -5 10 -14 10 -18 0 -4 -8 0 -17 9 -17 17 -17
19 2 38 20 20 20 20 31 1 7 -11 9 -26 7 -34z m-690 7 c-8 -27 -22 -34 -16 -7
3 15 2 19 -4 11 -6 -9 -12 -7 -22 8 -7 12 -8 18 -2 15 5 -4 13 -2 16 4 11 18
34 -8 28 -31z m1692 12 c-3 -2 -11 1 -18 7 -8 7 -18 8 -22 4 -5 -4 -5 -1 -1 5
5 10 11 10 26 1 11 -7 17 -14 15 -17z m60 18 c11 -16 1 -19 -13 -3 -7 8 -8 14
-3 14 5 0 13 -5 16 -11z m180 1 c-3 -5 -2 -10 3 -10 6 0 12 -7 16 -15 4 -13 1
-12 -20 2 -19 12 -22 18 -12 24 17 11 20 11 13 -1z m1510 1 c3 -5 2 -12 -3
-15 -5 -3 -9 1 -9 9 0 17 3 19 12 6z m-2644 -11 c14 -8 19 -7 19 2 0 8 5 5 11
-5 6 -10 8 -23 5 -30 -2 -7 -5 -4 -5 6 -1 10 -4 16 -9 13 -4 -2 -18 2 -32 10
-14 7 -21 13 -17 14 5 0 17 -5 28 -10z m1623 -6 c20 -19 20 -21 1 -21 -8 0
-13 3 -10 5 3 3 -3 11 -13 18 -9 7 -12 14 -5 14 6 0 19 -7 27 -16z m979 -1
c-6 -2 -10 -15 -7 -28 2 -13 0 -26 -6 -30 -6 -4 -7 1 -3 11 4 11 3 15 -5 10
-6 -3 -13 3 -17 14 -4 11 -11 18 -16 14 -5 -3 -6 -10 -3 -16 4 -6 2 -8 -4 -4
-5 3 -13 0 -15 -6 -4 -9 -6 -9 -6 -1 -1 13 26 43 40 43 5 0 9 -7 9 -15 0 -8 5
-15 10 -15 6 0 9 3 9 8 -4 21 2 32 13 26 9 -6 9 -9 1 -11z m-3978 -3 c-4 -6 1
-22 9 -36 9 -13 13 -24 9 -23 -20 3 -27 -2 -13 -11 13 -8 12 -10 -2 -10 -20 0
-24 15 -7 26 8 4 7 9 -2 14 -17 11 -19 50 -2 50 8 0 11 -5 8 -10z m1575 6 c0
-2 -7 -6 -15 -10 -8 -3 -15 -1 -15 4 0 6 7 10 15 10 8 0 15 -2 15 -4z m153 -9
c3 -8 -1 -14 -9 -14 -15 0 -18 9 -7 20 9 9 10 9 16 -6z m214 -19 c-3 -7 -5 -2
-5 12 0 14 2 19 5 13 2 -7 2 -19 0 -25z m423 11 c0 -6 -4 -7 -10 -4 -5 3 -10
11 -10 16 0 6 5 7 10 4 6 -3 10 -11 10 -16z m498 7 c-7 -8 -15 -12 -17 -11 -5
6 10 25 20 25 5 0 4 -6 -3 -14z m-1848 -11 c0 -1 -12 -2 -26 -2 -17 0 -22 2
-13 7 10 7 39 3 39 -5z m360 0 c0 -2 -6 -5 -13 -8 -8 -3 -14 1 -14 8 0 7 6 11
14 8 7 -3 13 -6 13 -8z m95 5 c-3 -5 -12 -10 -18 -10 -7 0 -6 4 3 10 19 12 23
12 15 0z m145 -6 c0 -2 -7 -4 -15 -4 -8 0 -15 4 -15 10 0 5 7 7 15 4 8 -4 15
-8 15 -10z m560 9 c0 -5 -12 -9 -27 -10 -19 -1 -22 1 -12 8 17 11 39 12 39 2z
m70 -3 c0 -5 -7 -7 -15 -4 -8 4 -15 8 -15 10 0 2 7 4 15 4 8 0 15 -4 15 -10z
m249 1 c10 -7 7 -9 -12 -8 -15 1 -27 5 -27 10 0 10 22 9 39 -2z m161 1 c0 -5
-7 -9 -15 -9 -8 0 -15 4 -15 9 0 4 7 8 15 8 8 0 15 -4 15 -8z m70 -2 c0 -5 -7
-7 -15 -4 -8 4 -15 8 -15 10 0 2 7 4 15 4 8 0 15 -4 15 -10z m60 -5 c0 -8 -2
-15 -4 -15 -2 0 -6 7 -10 15 -3 8 -1 15 4 15 6 0 10 -7 10 -15z m-3342 -23
c-12 -13 -10 -14 9 -4 15 8 24 9 28 2 9 -15 37 9 28 24 -3 6 3 2 15 -8 14 -12
22 -14 22 -7 0 7 5 9 10 6 6 -3 10 -11 10 -17 0 -6 -3 -8 -7 -5 -3 4 -15 -1
-25 -10 -12 -11 -22 -13 -26 -7 -4 5 -13 9 -19 8 -7 -1 -18 -2 -24 -3 -5 0 -8
-5 -4 -11 3 -5 13 -7 23 -4 14 5 15 4 2 -5 -14 -9 -41 5 -61 32 -3 5 -9 2 -12
-7 -4 -9 -2 -16 3 -16 6 0 10 -7 10 -15 0 -12 -3 -12 -18 3 -10 10 -21 27 -25
38 -6 17 -5 17 5 2 11 -14 13 -14 31 8 10 13 23 21 28 18 6 -3 5 -12 -3 -22z
m2758 3 c-1 -13 -4 -27 -7 -30 -5 -4 -4 41 0 53 4 10 8 -2 7 -23z m99 15 c3
-6 -1 -7 -9 -4 -18 7 -21 14 -7 14 6 0 13 -4 16 -10z m120 0 c3 -6 -1 -7 -9
-4 -18 7 -21 14 -7 14 6 0 13 -4 16 -10z m262 -5 c0 -8 -4 -15 -9 -15 -10 0
-11 14 -1 23 9 10 10 9 10 -8z m210 9 c-3 -3 -12 -4 -19 -1 -8 3 -5 6 6 6 11
1 17 -2 13 -5z m693 -3 c0 -5 -7 -12 -16 -15 -14 -5 -15 -4 -4 9 14 17 20 19
20 6z m-3914 -29 c-3 -2 -1 -12 4 -21 5 -11 5 -23 -2 -32 -8 -12 -9 -11 -5 3
3 9 -1 24 -8 35 -20 26 -20 50 0 33 9 -7 13 -15 11 -18z m1014 18 c0 -5 -4
-10 -10 -10 -5 0 -10 5 -10 10 0 6 5 10 10 10 6 0 10 -4 10 -10z m220 -10 c6
-11 8 -20 6 -20 -3 0 -10 9 -16 20 -6 11 -8 20 -6 20 3 0 10 -9 16 -20z m59
-3 c0 -9 -2 -8 -6 1 -2 6 -10 9 -15 6 -7 -4 -8 -2 -4 5 9 13 26 5 25 -12z m94
8 c-3 -9 -8 -14 -10 -11 -3 3 -2 9 2 15 9 16 15 13 8 -4z m421 3 c-5 -7 -2 -9
9 -5 11 4 14 2 10 -9 -4 -11 -9 -12 -19 -3 -12 10 -11 29 2 29 3 0 2 -5 -2
-12z m61 2 c-8 -13 8 -13 22 1 8 8 13 7 18 -2 5 -7 4 -10 -2 -6 -6 4 -16 0
-23 -9 -10 -11 -15 -12 -21 -2 -7 12 -3 28 7 28 3 0 2 -4 -1 -10z m162 -5 c4
-4 3 -5 -4 -1 -6 3 -16 -2 -22 -11 -9 -16 -10 -16 -8 3 1 21 19 26 34 9z m80
8 c-4 -3 -1 -13 6 -22 11 -14 10 -14 -5 -2 -16 12 -16 31 -1 31 4 0 3 -3 0 -7z
m140 -15 c2 -17 0 -19 -7 -8 -5 8 -6 18 -4 22 8 12 10 10 11 -14z m77 13 c3
-5 -1 -14 -8 -20 -10 -9 -16 -9 -21 -1 -4 6 -1 9 7 8 7 -2 12 3 11 10 -3 14 3
16 11 3z m760 -2 c-2 -4 1 -9 7 -11 7 -2 4 -10 -7 -18 -12 -10 -15 -11 -10 -2
4 7 3 19 -3 26 -8 9 -7 13 4 13 8 0 12 -4 9 -8z m204 -8 c-7 -9 -13 -17 -14
-19 -1 -1 -7 4 -14 13 -11 13 -10 14 5 9 11 -5 16 -4 12 3 -3 5 0 10 8 10 12
0 12 -3 3 -16z m195 -6 c-7 -21 -12 -19 -10 4 0 11 5 18 9 15 4 -3 5 -11 1
-19z m188 -8 l-24 -22 19 27 c10 14 21 24 23 22 3 -3 -6 -15 -18 -27z m-2863
15 c15 11 15 11 5 -3 -9 -10 -9 -19 -2 -26 6 -6 5 -10 -5 -10 -8 0 -13 4 -10
9 3 4 0 8 -5 8 -6 0 -11 8 -10 18 0 11 2 12 6 4 4 -10 8 -10 21 0z m59 -11 c0
-11 -5 -18 -9 -15 -4 3 -5 11 -1 19 7 21 12 19 10 -4z m276 -1 c3 -11 1 -18
-4 -14 -5 3 -9 12 -9 20 0 20 7 17 13 -6z m181 3 c4 -10 4 -14 0 -10 -4 4 -14
1 -22 -6 -13 -11 -14 -9 -1 11 17 26 15 26 23 5z m120 0 c4 -10 4 -14 0 -10
-4 4 -14 1 -22 -6 -13 -11 -14 -9 -1 11 17 26 15 26 23 5z m533 -5 c-3 -8 -6
-5 -6 6 -1 11 2 17 5 13 3 -3 4 -12 1 -19z m628 13 c3 -5 2 -12 -3 -15 -5 -3
-9 1 -9 9 0 17 3 19 12 6z m120 0 c3 -5 2 -12 -3 -15 -5 -3 -9 1 -9 9 0 17 3
19 12 6z m438 -6 c-3 -9 -8 -14 -10 -11 -3 3 -2 9 2 15 9 16 15 13 8 -4z m267
11 c0 -2 -8 -10 -17 -17 -16 -13 -17 -12 -4 4 13 16 21 21 21 13z m21 -19
c-10 -9 -11 -8 -5 6 3 10 9 15 12 12 3 -3 0 -11 -7 -18z m576 8 c0 -17 -13
-20 -21 -6 -4 5 0 12 6 14 7 3 13 6 14 6 0 1 1 -6 1 -14z m-3640 -17 c-3 -8
-6 -5 -6 6 -1 11 2 17 5 13 3 -3 4 -12 1 -19z m213 18 c0 -3 -4 -8 -10 -11 -5
-3 -10 -1 -10 4 0 6 5 11 10 11 6 0 10 -2 10 -4z m150 0 c0 -3 -4 -8 -10 -11
-5 -3 -10 -1 -10 4 0 6 5 11 10 11 6 0 10 -2 10 -4z m234 -12 c5 -14 4 -15 -9
-4 -17 14 -19 20 -6 20 5 0 12 -7 15 -16z m102 -6 l19 -23 -22 19 c-16 13 -23
15 -23 6 0 -7 -3 -11 -6 -7 -5 5 3 27 10 27 2 0 11 -10 22 -22z m32 -3 c-3 -3
-9 2 -12 12 -6 14 -5 15 5 6 7 -7 10 -15 7 -18z m423 8 c12 -16 12 -17 -2 -6
-9 7 -20 9 -24 5 -5 -4 -5 -1 -1 6 9 16 11 15 27 -5z m69 7 c0 -5 -2 -10 -4
-10 -3 0 -8 5 -11 10 -3 6 -1 10 4 10 6 0 11 -4 11 -10z m800 6 c0 -3 -4 -8
-10 -11 -5 -3 -10 -1 -10 4 0 6 5 11 10 11 6 0 10 -2 10 -4z m165 -6 c-3 -5
-12 -10 -18 -10 -7 0 -6 4 3 10 19 12 23 12 15 0z m315 0 c0 -5 -2 -10 -4 -10
-3 0 -8 5 -11 10 -3 6 -1 10 4 10 6 0 11 -4 11 -10z m491 -7 c13 -16 12 -17
-3 -4 -15 11 -21 11 -35 0 -16 -13 -17 -12 -4 4 7 9 17 17 21 17 4 0 14 -8 21
-17z m169 11 c0 -8 -19 -13 -24 -6 -3 5 1 9 9 9 8 0 15 -2 15 -3z m60 -4 c0
-5 -5 -10 -11 -10 -5 0 -7 5 -4 10 3 6 8 10 11 10 2 0 4 -4 4 -10z m334 2 c3
-5 -1 -9 -9 -9 -8 0 -12 4 -9 9 3 4 7 8 9 8 2 0 6 -4 9 -8z m316 4 c0 -3 -4
-8 -10 -11 -5 -3 -10 -1 -10 4 0 6 5 11 10 11 6 0 10 -2 10 -4z m-3686 -22 c3
-8 2 -12 -4 -9 -6 3 -10 10 -10 16 0 14 7 11 14 -7z m137 -7 c-10 -9 -11 -8
-5 6 3 10 9 15 12 12 3 -3 0 -11 -7 -18z m-814 -18 c1 -22 1 -23 -4 -1 -2 12
-9 20 -14 17 -5 -4 -9 -1 -9 5 0 23 25 3 27 -21z m229 5 c-3 -15 -8 -29 -11
-32 -3 -3 -3 5 -1 19 2 13 5 27 5 32 1 4 3 7 6 7 3 0 3 -12 1 -26z m165 2 c8
4 10 3 5 -4 -11 -18 -24 -14 -36 11 -10 21 -10 21 4 3 8 -10 20 -15 27 -10z
m79 14 c0 -5 -5 -10 -11 -10 -5 0 -7 5 -4 10 3 6 8 10 11 10 2 0 4 -4 4 -10z
m160 3 c0 -5 -5 -15 -10 -23 -7 -12 -9 -10 -7 8 1 19 17 33 17 15z m375 -11
c-3 -3 -11 0 -18 7 -9 10 -8 11 6 5 10 -3 15 -9 12 -12z m64 -16 c-3 -3 -11 5
-18 17 -13 21 -12 21 5 5 10 -10 16 -20 13 -22z m1526 24 c3 -6 -1 -7 -9 -4
-18 7 -21 14 -7 14 6 0 13 -4 16 -10z m639 2 c2 -4 -4 -8 -14 -8 -10 0 -16 4
-14 8 3 4 9 8 14 8 5 0 11 -4 14 -8z m120 0 c3 -5 -1 -9 -9 -9 -8 0 -15 4 -15
9 0 4 4 8 9 8 6 0 12 -4 15 -8z m316 4 c0 -2 -7 -7 -16 -10 -8 -3 -12 -2 -9 4
6 10 25 14 25 6z m560 -6 c0 -5 -4 -10 -10 -10 -5 0 -10 5 -10 10 0 6 5 10 10
10 6 0 10 -4 10 -10z m46 -5 c-11 -8 -25 -15 -30 -15 -6 1 0 7 14 15 32 19 40
18 16 0z m314 5 c0 -5 -4 -10 -10 -10 -5 0 -10 5 -10 10 0 6 5 10 10 10 6 0
10 -4 10 -10z m-4083 -22 c2 -17 0 -19 -7 -8 -5 8 -6 18 -4 22 8 12 10 10 11
-14z m73 7 c-14 -17 -30 -20 -30 -4 0 5 4 8 9 4 5 -3 12 -1 16 5 3 5 9 10 12
10 3 0 0 -7 -7 -15z m219 -22 c2 -2 -2 -3 -10 -3 -8 0 -20 10 -28 23 l-14 22
24 -20 c13 -11 26 -21 28 -22z m547 11 c1 -9 0 -13 -4 -10 -3 4 -7 14 -8 22
-1 9 0 13 4 10 3 -4 7 -14 8 -22z m928 7 c14 -15 15 -21 4 -27 -7 -4 -10 -3
-5 1 4 5 0 17 -10 27 -9 10 -14 18 -11 18 3 0 13 -9 22 -19z m829 5 c3 3 4 -2
3 -12 -3 -21 -21 -30 -31 -15 -4 7 1 8 12 4 16 -6 16 -4 -2 18 -11 13 -13 18
-4 11 9 -6 18 -9 22 -6z m175 -6 c-7 -10 -14 -17 -17 -15 -4 4 18 35 25 35 2
0 -1 -9 -8 -20z m652 5 c0 -11 -7 -14 -26 -11 -15 3 -29 8 -33 11 -3 3 7 4 22
1 15 -2 27 0 27 5 0 5 2 9 5 9 3 0 5 -7 5 -15z m57 -20 c11 4 9 1 -4 -6 -12
-6 -21 -20 -20 -30 1 -9 5 -15 9 -13 5 3 6 10 3 15 -6 8 2 11 21 8 17 -2 22
27 8 38 -15 11 -14 12 3 10 21 -1 26 -24 10 -44 -6 -9 -6 -13 2 -13 7 0 9 -5
5 -12 -5 -7 -11 -5 -21 7 -11 16 -13 17 -13 3 0 -23 -18 -32 -35 -18 -8 6 -18
10 -22 7 -4 -3 -24 8 -43 24 -19 16 -29 29 -23 29 7 0 14 -4 17 -9 11 -17 51
-6 61 16 9 22 10 22 17 3 5 -13 13 -18 25 -15z m-3941 16 c-4 -5 -1 -12 4 -14
6 -3 5 -4 -2 -3 -15 3 -23 26 -8 26 6 0 9 -4 6 -9z m124 -1 c0 -5 -4 -10 -10
-10 -5 0 -10 5 -10 10 0 6 5 10 10 10 6 0 10 -4 10 -10z m380 -34 c0 -12 -5
-7 -19 24 -11 24 -11 24 3 6 9 -11 16 -24 16 -30z m150 34 c-8 -5 -19 -10 -25
-10 -5 0 -3 5 5 10 8 5 20 10 25 10 6 0 3 -5 -5 -10z m40 -5 c7 -9 8 -15 2
-15 -5 0 -12 7 -16 15 -3 8 -4 15 -2 15 2 0 9 -7 16 -15z m127 -7 c2 -18 0
-20 -7 -8 -12 18 -13 30 -2 30 4 0 9 -10 9 -22z m307 14 c3 -5 -1 -9 -9 -9 -8
0 -12 4 -9 9 3 4 7 8 9 8 2 0 6 -4 9 -8z m76 -15 c0 -7 -4 -6 -10 3 -9 14 -14
7 -11 -13 1 -5 -3 -6 -9 -2 -8 5 -8 11 1 21 12 15 29 10 29 -9z m174 -8 c-3
-5 -11 -9 -17 -9 -7 0 -6 4 3 10 14 9 7 14 -13 11 -5 -1 -6 3 -2 9 5 8 11 8
21 -1 7 -6 11 -15 8 -20z m126 20 c0 -4 -8 -9 -18 -11 -10 -3 -19 0 -19 6 0 7
9 12 19 12 10 0 18 -3 18 -7z m94 3 c2 -4 -5 -9 -17 -9 -17 -2 -19 0 -7 7 18
12 18 12 24 2z m103 -9 c0 -8 -4 -10 -12 -3 -7 5 -16 6 -20 2 -5 -4 -5 -2 -2
4 9 15 34 13 34 -3z m810 -5 c-3 -8 -6 -5 -6 6 -1 11 2 17 5 13 3 -3 4 -12 1
-19z m113 7 c0 -8 -4 -15 -8 -15 -5 0 -9 7 -9 15 0 8 4 15 9 15 4 0 8 -7 8
-15z m100 9 c0 -8 -19 -13 -24 -6 -3 5 1 9 9 9 8 0 15 -2 15 -3z m420 -4 c0
-5 -4 -10 -10 -10 -5 0 -10 5 -10 10 0 6 5 10 10 10 6 0 10 -4 10 -10z m315
-8 c-3 -3 -11 0 -18 7 -9 10 -8 11 6 5 10 -3 15 -9 12 -12z m55 8 c0 -5 -5
-10 -11 -10 -5 0 -7 5 -4 10 3 6 8 10 11 10 2 0 4 -4 4 -10z m70 0 c0 -5 -2
-10 -4 -10 -3 0 -8 5 -11 10 -3 6 -1 10 4 10 6 0 11 -4 11 -10z m170 -6 c0 -2
-7 -4 -15 -4 -8 0 -15 4 -15 10 0 5 7 7 15 4 8 -4 15 -8 15 -10z m350 4 c0 -6
-3 -8 -6 -5 -4 3 -14 2 -23 -3 -11 -5 -23 -5 -32 2 -12 8 -11 9 2 5 9 -3 22
-1 30 4 19 12 29 11 29 -3z m-3665 -19 c-4 -5 -12 -9 -18 -8 -9 0 -8 2 1 6 6
2 9 10 6 15 -4 7 -2 8 5 4 6 -4 9 -12 6 -17z m167 7 c7 4 8 2 4 -5 -9 -13 -26
-5 -25 12 0 9 2 8 6 -1 2 -6 10 -9 15 -6z m334 -1 c-1 -8 -6 -18 -11 -22 -4
-4 -5 -2 -1 5 4 7 2 12 -6 12 -9 0 -9 3 2 10 19 12 19 13 16 -5z m839 -6 c-4
-5 -12 -9 -18 -8 -9 0 -8 2 1 6 6 2 9 10 6 15 -4 7 -2 8 5 4 6 -4 9 -12 6 -17z
m200 0 c-4 -5 -12 -9 -18 -8 -9 0 -8 2 1 6 6 2 9 10 6 15 -4 7 -2 8 5 4 6 -4
9 -12 6 -17z m405 12 c0 -14 -29 -21 -36 -9 -4 6 -3 8 4 4 6 -3 13 -2 17 4 8
12 15 13 15 1z m155 0 c3 -5 2 -12 -3 -15 -5 -3 -9 1 -9 9 0 17 3 19 12 6z
m-2151 -27 c3 -8 13 -11 23 -8 14 5 15 4 4 -4 -7 -5 -10 -16 -7 -23 4 -8 0 -5
-8 5 -9 11 -16 15 -16 10 0 -6 -6 -18 -13 -29 -13 -17 -14 -16 -12 6 1 13 -2
29 -7 36 -5 7 -7 17 -4 22 8 13 33 4 40 -15z m396 16 c0 -5 -2 -10 -4 -10 -3
0 -8 5 -11 10 -3 6 -1 10 4 10 6 0 11 -4 11 -10z m1043 -13 c4 3 7 1 7 -5 0
-20 -19 -13 -30 11 -10 20 -10 20 3 5 8 -10 17 -15 20 -11z m81 9 c-3 -9 3
-20 15 -28 26 -16 27 -24 2 -24 -13 0 -17 5 -13 16 5 13 3 13 -11 1 -9 -7 -15
-17 -12 -21 2 -4 -4 -15 -15 -25 -18 -16 -18 -16 -13 3 3 11 13 29 23 40 10
11 16 22 13 25 -3 3 -2 10 2 16 9 16 15 13 9 -3z m279 -3 c-3 -7 -9 -13 -13
-13 -4 0 -10 6 -13 13 -3 7 3 13 13 13 10 0 16 -6 13 -13z m172 -21 c-6 -6
-34 11 -39 24 -4 11 0 10 18 -3 13 -10 23 -19 21 -21z m223 2 c-4 -3 -12 5
-18 18 -12 22 -12 22 6 6 10 -10 15 -20 12 -24z m162 29 c-1 -27 -57 -44 -57
-18 0 10 5 11 19 4 17 -9 22 -5 19 14 0 4 4 7 9 7 6 0 10 -3 10 -7z m120 -3
c0 -5 -2 -10 -4 -10 -3 0 -8 5 -11 10 -3 6 -1 10 4 10 6 0 11 -4 11 -10z m116
-15 c13 -20 14 -28 4 -40 -13 -15 -35 -10 -25 6 4 5 1 9 -4 9 -6 0 -11 7 -11
16 0 12 5 11 20 -7 23 -29 26 -18 4 16 -9 14 -14 25 -10 25 3 0 13 -11 22 -25z
m44 -5 c0 -6 -5 -10 -12 -10 -6 0 -8 3 -5 7 4 3 -1 12 -11 20 -15 13 -15 13 6
3 12 -6 22 -15 22 -20z m80 20 c0 -5 -7 -7 -15 -4 -8 4 -15 8 -15 10 0 2 7 4
15 4 8 0 15 -4 15 -10z m280 0 c0 -5 -4 -10 -10 -10 -5 0 -10 5 -10 10 0 6 5
10 10 10 6 0 10 -4 10 -10z m-3086 -15 c3 -8 1 -15 -4 -15 -6 0 -10 7 -10 15
0 8 2 15 4 15 2 0 6 -7 10 -15z m1267 -2 c13 -16 12 -17 -3 -4 -17 13 -22 21
-14 21 2 0 10 -8 17 -17z m36 -3 c-1 -11 -5 -20 -9 -20 -10 0 -10 4 -2 24 8
22 13 20 11 -4z m2877 -11 c-8 -13 -24 -1 -24 18 0 13 3 13 15 3 8 -7 12 -16
9 -21z m111 15 c-9 -9 -19 -13 -23 -10 -3 4 0 11 8 16 24 15 33 11 15 -6z
m-3730 -4 c3 -5 2 -10 -4 -10 -5 0 -13 5 -16 10 -3 6 -2 10 4 10 5 0 13 -4 16
-10z m605 -20 c10 -18 4 -30 -14 -30 -6 0 -5 4 2 9 11 7 9 13 -10 30 -17 16
-18 20 -5 15 10 -3 22 -14 27 -24z m18 5 c-3 -3 -9 2 -12 12 -6 14 -5 15 5 6
7 -7 10 -15 7 -18z m162 15 c-8 -5 -19 -10 -25 -10 -5 0 -3 5 5 10 8 5 20 10
25 10 6 0 3 -5 -5 -10z m95 -9 c-3 -6 -11 -11 -16 -11 -5 0 -4 6 3 14 14 16
24 13 13 -3z m205 9 c0 -5 -2 -10 -4 -10 -3 0 -8 5 -11 10 -3 6 -1 10 4 10 6
0 11 -4 11 -10z m40 -5 c-7 -8 -17 -15 -23 -15 -6 0 -2 7 9 15 25 19 30 19 14
0z m76 3 c4 -7 3 -8 -4 -4 -7 4 -12 2 -12 -5 0 -7 -3 -10 -6 -6 -6 5 3 27 11
27 2 0 7 -5 11 -12z m80 -3 c-11 -8 -25 -15 -30 -15 -6 1 0 7 14 15 32 19 40
18 16 0z m69 -7 c-9 -6 -19 -7 -22 -4 -4 3 -1 6 6 6 7 0 9 4 6 10 -4 6 1 7 11
3 15 -6 15 -7 -1 -15z m47 10 c-17 -17 -15 -28 4 -28 9 0 12 5 8 13 -5 8 -2 8
9 -2 14 -11 20 -11 34 0 11 10 14 10 9 1 -5 -9 2 -11 28 -7 21 2 36 0 36 -6 0
-6 -4 -7 -10 -4 -5 3 -10 1 -10 -5 0 -6 -4 -9 -9 -5 -5 3 -12 1 -15 -3 -8 -13
-47 -7 -57 9 -6 9 -9 10 -9 2 0 -7 -10 -17 -21 -24 -17 -9 -20 -8 -14 2 6 9 3
11 -8 6 -9 -3 -19 -2 -22 3 -6 10 34 57 50 59 5 1 4 -4 -3 -11z m53 2 c-3 -5
-12 -10 -18 -10 -7 0 -6 4 3 10 19 12 23 12 15 0z m119 -34 c-8 -21 -31 -14
-29 8 4 40 6 41 20 23 7 -11 11 -25 9 -31z m1876 20 c0 -3 -4 -8 -10 -11 -5
-3 -10 -1 -10 4 0 6 5 11 10 11 6 0 10 -2 10 -4z m-4235 -16 c-3 -5 -12 -10
-18 -10 -7 0 -6 4 3 10 19 12 23 12 15 0z m3373 -17 c-7 -9 -15 -10 -29 -2
-25 13 -24 14 10 14 23 1 28 -2 19 -12z m-1798 -17 c-4 -4 -16 -4 -26 2 -16 9
-14 10 8 9 15 -1 23 -6 18 -11z"/>
<path d="M5415 490 c-3 -5 -1 -11 4 -14 5 -4 13 -2 16 4 5 8 12 7 23 -2 14
-10 15 -10 5 2 -15 16 -41 22 -48 10z"/>
<path d="M5037 489 c-9 -5 -22 -7 -29 -3 -7 4 -8 3 -4 -4 9 -16 18 -15 42 3
22 17 17 19 -9 4z"/>
<path d="M4910 481 c0 -11 26 -22 34 -14 3 3 3 10 0 14 -7 12 -34 11 -34 0z"/>
<path d="M5979 487 c29 -32 31 -32 31 -10 0 9 -3 13 -7 10 -3 -4 -16 1 -27 10
-15 13 -14 10 3 -10z"/>
<path d="M5900 478 c0 -7 5 -9 30 -12 6 -1 9 3 8 9 -4 11 -38 15 -38 3z"/>
<path d="M6494 494 c-10 -8 -13 -13 -6 -9 7 4 19 2 27 -5 10 -9 13 -8 11 4 -3
24 -11 27 -32 10z"/>
<path d="M6400 490 c-8 -5 -11 -12 -7 -17 5 -4 12 -1 16 6 7 11 10 11 14 0 3
-9 6 -10 6 -2 1 17 -13 23 -29 13z"/>
<path d="M6360 475 c-11 -13 -10 -14 4 -9 9 3 16 10 16 15 0 13 -6 11 -20 -6z"/>
<path d="M6686 492 c-2 -4 4 -18 14 -31 l18 -24 11 21 c6 12 9 23 6 23 -3 1
-8 2 -12 3 -5 1 -13 5 -20 9 -6 4 -14 4 -17 -1z m39 -14 c5 4 5 1 1 -6 -6 -10
-11 -10 -22 -1 -8 6 -14 14 -14 16 0 3 6 0 13 -6 8 -6 18 -7 22 -3z"/>
<path d="M6635 480 c3 -5 8 -10 11 -10 2 0 4 5 4 10 0 6 -5 10 -11 10 -5 0 -7
-4 -4 -10z"/>
<path d="M7141 467 c-8 -11 -6 -18 8 -31 17 -16 19 -16 24 4 3 13 0 20 -10 20
-8 0 -11 5 -8 10 9 15 -1 12 -14 -3z"/>
<path d="M7040 450 c-9 -6 -10 -10 -3 -10 6 0 15 5 18 10 8 12 4 12 -15 0z"/>
<path d="M4227 474 c-3 -3 -1 -14 6 -25 8 -13 15 -15 24 -7 7 6 13 15 13 21 0
6 -3 7 -7 4 -3 -4 -11 -2 -18 3 -7 5 -15 7 -18 4z"/>
<path d="M3876 462 c-3 -5 1 -9 9 -9 8 0 12 4 9 9 -3 4 -7 8 -9 8 -2 0 -6 -4
-9 -8z"/>
<path d="M2836 411 c-4 -5 -2 -12 3 -15 5 -4 12 -2 15 3 4 5 2 12 -3 15 -5 4
-12 2 -15 -3z"/>
<path d="M6838 331 c-10 -16 -15 -18 -28 -8 -12 9 -13 9 -3 -3 21 -23 48 -19
49 7 2 28 -2 29 -18 4z"/>
<path d="M3300 332 c0 -12 19 -26 26 -19 2 2 -2 10 -11 17 -9 8 -15 8 -15 2z"/>
<path d="M5167 283 c-3 -5 6 -9 20 -10 19 -1 22 1 12 8 -17 11 -26 11 -32 2z"/>
<path d="M5350 300 c0 -5 5 -10 11 -10 5 0 7 5 4 10 -3 6 -8 10 -11 10 -2 0
-4 -4 -4 -10z"/>
<path d="M4870 540 c0 -6 7 -10 15 -10 8 0 15 2 15 4 0 2 -7 6 -15 10 -8 3
-15 1 -15 -4z"/>
<path d="M4986 542 c-3 -4 4 -9 15 -9 23 -2 25 3 4 10 -8 4 -16 3 -19 -1z"/>
<path d="M5105 540 c-3 -6 1 -7 9 -4 18 7 21 14 7 14 -6 0 -13 -4 -16 -10z"/>
<path d="M5870 540 c0 -5 5 -10 10 -10 6 0 10 5 10 10 0 6 -4 10 -10 10 -5 0
-10 -4 -10 -10z"/>
<path d="M6026 537 c3 -10 9 -15 12 -12 3 3 0 11 -7 18 -10 9 -11 8 -5 -6z"/>
<path d="M6316 538 c3 -4 11 -5 19 -1 21 7 19 12 -4 10 -11 0 -18 -5 -15 -9z"/>
<path d="M6405 540 c-3 -6 1 -7 9 -4 18 7 21 14 7 14 -6 0 -13 -4 -16 -10z"/>
<path d="M6473 535 c0 -7 6 -11 14 -8 7 3 13 6 13 8 0 2 -6 5 -13 8 -8 3 -14
-1 -14 -8z"/>
<path d="M4322 525 c-20 -11 -21 -13 -6 -19 13 -5 14 -9 4 -21 -7 -8 -9 -16
-4 -16 5 -1 20 -3 34 -4 14 -2 34 -5 45 -8 13 -3 25 3 33 17 11 19 12 19 10 2
-2 -13 4 -20 19 -21 12 -1 20 2 17 7 -3 4 0 8 5 8 19 0 12 19 -6 19 -10 1 -37
2 -60 3 -37 1 -41 3 -30 17 11 14 10 14 -5 2 -14 -11 -18 -11 -18 -1 0 8 -3
10 -6 7 -4 -4 -1 -13 6 -22 7 -8 8 -15 2 -15 -5 0 -15 7 -22 15 -10 12 -10 18
0 30 14 17 13 17 -18 0z m23 -45 c3 -5 1 -10 -4 -10 -6 0 -11 5 -11 10 0 6 2
10 4 10 3 0 8 -4 11 -10z m70 0 c4 -6 -1 -7 -11 -3 -12 4 -15 3 -10 -5 5 -8 2
-10 -9 -5 -13 5 -14 7 -3 14 17 11 26 11 33 -1z"/>
<path d="M4496 526 c7 -18 34 -22 34 -4 0 6 -3 8 -7 5 -3 -4 -12 -2 -20 5 -11
8 -12 7 -7 -6z"/>
<path d="M3640 526 c0 -2 8 -10 18 -17 15 -13 16 -12 3 4 -13 16 -21 21 -21
13z"/>
<path d="M3719 513 c-13 -16 -12 -17 4 -4 16 13 21 21 13 21 -2 0 -10 -8 -17
-17z"/>
<path d="M3755 521 c-3 -5 -2 -12 3 -15 5 -3 9 1 9 9 0 17 -3 19 -12 6z"/>
<path d="M4220 516 c7 -7 13 -7 20 0 6 6 3 10 -10 10 -13 0 -16 -4 -10 -10z"/>
<path d="M4717 519 c7 -7 15 -10 18 -7 3 3 -2 9 -12 12 -14 6 -15 5 -6 -5z"/>
<path d="M5253 519 c15 -9 16 -13 5 -27 -12 -15 -11 -16 5 -3 15 12 20 12 35
0 10 -8 8 -4 -4 7 -13 12 -21 24 -19 26 2 2 -6 5 -18 5 -20 2 -20 1 -4 -8z"/>
<path d="M6847 513 c3 -7 6 -13 8 -13 2 0 5 6 8 13 3 8 -1 14 -8 14 -7 0 -11
-6 -8 -14z"/>
<path d="M3915 510 c3 -6 1 -10 -6 -10 -7 0 -10 -3 -6 -6 3 -3 13 -2 22 4 16
8 16 9 1 15 -10 4 -15 3 -11 -3z"/>
<path d="M3954 508 c-4 -7 -3 -8 5 -4 17 11 43 -14 36 -33 -5 -13 -4 -13 6 -4
10 10 9 17 -6 33 -21 23 -31 25 -41 8z"/>
<path d="M4017 513 c-3 -5 6 -9 20 -10 19 -1 22 1 12 8 -17 11 -26 11 -32 2z"/>
<path d="M4150 510 c0 -5 5 -10 11 -10 5 0 7 5 4 10 -3 6 -8 10 -11 10 -2 0
-4 -4 -4 -10z"/>
<path d="M6791 502 c-11 -21 2 -48 18 -38 6 4 16 16 22 27 10 19 9 20 -10 9
-12 -6 -21 -7 -21 -1 0 5 6 12 13 14 9 4 9 6 0 6 -7 1 -17 -7 -22 -17z m29
-18 c0 -8 -19 -13 -24 -6 -3 5 1 9 9 9 8 0 15 -2 15 -3z"/>
<path d="M3435 500 c-3 -5 -1 -10 4 -10 6 0 11 5 11 10 0 6 -2 10 -4 10 -3 0
-8 -4 -11 -10z"/>
<path d="M6222 498 c-17 -17 -15 -29 6 -26 20 3 33 18 26 30 -7 11 -18 10 -32
-4z m28 -2 c0 -2 -7 -7 -16 -10 -8 -3 -12 -2 -9 4 6 10 25 14 25 6z"/>
<path d="M3559 493 c-1 -5 -1 -11 0 -15 0 -5 -3 -8 -9 -8 -5 0 -10 5 -10 12 0
6 -3 9 -6 6 -3 -4 2 -21 12 -39 14 -29 18 -31 28 -17 8 11 17 14 26 8 9 -5 19
-5 27 2 14 11 7 32 -8 23 -5 -4 -9 -2 -9 4 0 5 6 11 13 14 6 3 2 4 -11 4 -12
-1 -25 -10 -28 -20 -3 -10 -9 -16 -12 -12 -10 10 -9 29 3 37 6 5 6 8 -2 8 -7
0 -14 -3 -14 -7z m66 -35 c5 4 5 2 1 -5 -8 -14 -36 -6 -36 9 0 7 5 6 13 -1 8
-6 18 -7 22 -3z m-57 -23 c-3 -3 -9 2 -12 12 -6 14 -5 15 5 6 7 -7 10 -15 7
-18z"/>
<path d="M7477 483 c3 -7 9 -13 13 -13 4 0 10 6 13 13 3 7 -3 13 -13 13 -10 0
-16 -6 -13 -13z"/>
<path d="M7621 480 c-13 -11 -19 -20 -14 -20 6 0 18 9 28 20 23 25 17 25 -14
0z"/>
<path d="M3465 481 c-3 -6 3 -9 14 -8 11 0 17 5 15 9 -7 11 -22 10 -29 -1z"/>
<path d="M3665 480 c-4 -6 -12 -7 -18 -4 -9 5 -9 4 -1 -5 13 -14 57 -24 49
-10 -4 5 -11 7 -16 4 -5 -4 -9 -2 -9 4 0 5 6 12 13 14 9 4 9 6 0 6 -6 1 -15
-4 -18 -9z"/>
<path d="M3700 482 c0 -11 27 -42 37 -42 3 0 -1 7 -8 17 -8 9 -13 19 -11 22 2
3 -1 7 -7 9 -6 2 -11 -1 -11 -6z"/>
<path d="M4020 481 c0 -15 13 -21 26 -10 15 12 37 3 29 -12 -4 -5 -1 -9 4 -9
15 0 14 15 -1 27 -16 12 -58 15 -58 4z"/>
<path d="M5140 476 c7 -7 14 -6 21 1 9 9 7 12 -9 10 -14 -1 -18 -5 -12 -11z"/>
<path d="M7390 475 c5 -7 6 -16 2 -21 -4 -5 -3 -6 2 -2 5 4 14 4 20 -1 7 -6
11 -1 12 17 1 15 -1 21 -3 15 -3 -7 -9 -13 -14 -13 -6 0 -8 4 -5 8 3 5 -1 9
-9 9 -10 0 -12 -4 -5 -12z"/>
<path d="M7655 480 c-3 -5 -1 -10 4 -10 6 0 11 5 11 10 0 6 -2 10 -4 10 -3 0
-8 -4 -11 -10z"/>
<path d="M7774 475 c1 -8 5 -18 9 -21 19 -20 4 -24 -16 -5 -19 17 -26 19 -34
9 -20 -26 -22 -35 -9 -35 8 0 12 7 9 16 -4 14 -3 14 5 1 6 -8 8 -18 6 -22 -3
-4 -1 -8 5 -8 5 0 13 5 16 10 4 6 10 8 15 5 5 -3 11 -1 15 5 4 6 11 8 16 5 5
-4 9 -2 9 3 0 5 -9 12 -21 15 -12 3 -18 10 -15 16 4 5 2 12 -3 15 -5 4 -8 -1
-7 -9z m-14 -30 c7 -9 8 -15 2 -15 -5 0 -12 7 -16 15 -3 8 -4 15 -2 15 2 0 9
-7 16 -15z"/>
<path d="M2980 476 c0 -2 7 -7 16 -10 8 -3 12 -2 9 4 -6 10 -25 14 -25 6z"/>
<path d="M3270 469 c0 -5 5 -7 10 -4 6 3 10 8 10 11 0 2 -4 4 -10 4 -5 0 -10
-5 -10 -11z"/>
<path d="M2796 461 c-17 -6 -17 -8 -4 -14 10 -3 19 0 22 9 3 8 4 14 3 13 -1 0
-11 -4 -21 -8z"/>
<path d="M2915 460 c3 -5 8 -10 11 -10 2 0 4 5 4 10 0 6 -5 10 -11 10 -5 0 -7
-4 -4 -10z"/>
<path d="M7686 461 c-4 -5 -18 -7 -32 -5 -21 4 -25 1 -21 -11 4 -8 2 -15 -4
-15 -6 0 -7 -4 -4 -10 3 -5 1 -10 -6 -10 -6 0 1 -16 15 -35 15 -19 24 -35 19
-35 -4 0 2 -6 13 -14 11 -8 29 -13 40 -12 10 2 23 -2 27 -8 6 -7 7 -5 4 5 -4
12 2 16 24 16 17 0 26 -4 22 -11 -3 -6 -2 -8 2 -4 5 5 10 20 11 35 3 22 1 25
-7 13 -9 -12 -9 -11 -4 5 4 11 8 25 8 32 0 7 5 9 10 6 6 -4 7 -1 2 8 -5 8 -4
10 0 6 13 -11 15 -38 4 -58 -6 -12 -5 -20 1 -24 6 -4 8 -11 5 -16 -14 -21 8
-30 29 -12 11 11 30 25 40 33 17 14 18 13 12 -8 -5 -14 -3 -22 4 -22 6 0 8 5
5 10 -3 6 -1 10 4 10 8 0 7 7 -1 20 -9 14 -14 16 -20 7 -6 -9 -8 -8 -8 3 -1
10 -5 8 -13 -7 -9 -17 -16 -19 -30 -12 -9 6 -15 15 -11 20 4 6 11 6 20 -2 10
-9 14 -9 14 0 0 6 -6 14 -14 17 -22 8 -16 43 6 39 10 -2 18 1 18 6 0 6 5 7 11
3 6 -3 8 -17 5 -29 -5 -18 -2 -23 12 -20 9 2 19 4 22 4 3 1 -1 5 -9 10 -9 6
-10 11 -2 15 6 4 11 1 11 -6 0 -9 3 -9 10 2 5 8 10 10 10 4 0 -6 -7 -17 -15
-24 -17 -14 -20 -30 -6 -30 5 0 15 13 22 29 10 22 19 28 41 27 15 0 28 -4 28
-9 0 -4 -11 -5 -24 -3 -19 3 -23 0 -20 -20 1 -13 -2 -24 -8 -24 -6 0 -7 8 -4
18 5 14 4 14 -9 -2 -18 -23 -19 -36 -4 -36 5 0 7 -5 3 -12 -4 -7 -3 -8 5 -4 6
4 8 12 5 18 -5 7 -1 9 9 5 9 -3 19 -2 22 3 4 6 11 10 17 10 6 0 5 -7 -3 -17
-11 -15 -10 -15 8 1 16 13 27 16 35 9 20 -15 55 -13 68 3 7 7 17 11 22 8 6 -4
5 -10 -3 -14 -7 -5 -14 -16 -15 -24 -1 -9 2 -14 7 -10 5 3 7 9 4 14 -3 4 3 11
13 15 30 13 51 15 57 5 4 -7 13 -6 27 1 18 10 19 8 14 -13 -5 -16 -1 -14 11 9
21 37 28 40 49 18 9 -8 23 -15 32 -14 14 0 13 2 -3 9 -21 9 -21 9 8 15 15 3
22 -6 18 -27 0 -5 4 -8 10 -8 6 0 8 9 4 23 -6 21 -5 21 8 4 12 -14 16 -15 21
-5 5 10 7 10 12 1 4 -10 9 -9 21 2 16 17 38 20 28 5 -3 -5 -1 -10 4 -10 22 0
6 33 -17 38 -8 1 -11 -2 -8 -7 3 -5 0 -11 -8 -14 -18 -7 -58 21 -50 35 4 7 2
8 -5 4 -6 -4 -9 -11 -6 -16 3 -5 1 -11 -5 -15 -5 -3 -10 -1 -10 5 0 7 -7 10
-15 6 -12 -4 -14 0 -11 19 3 14 0 25 -5 25 -5 0 -9 -6 -8 -12 3 -24 -1 -41 -8
-35 -3 4 -12 2 -20 -5 -12 -10 -13 -7 -8 18 4 21 3 23 -3 10 -6 -14 -11 -16
-16 -8 -4 7 -4 17 0 24 4 7 3 8 -5 4 -6 -4 -9 -16 -6 -27 5 -14 3 -17 -10 -13
-9 4 -14 13 -11 20 3 8 1 14 -4 14 -6 0 -10 -8 -10 -17 0 -15 -2 -16 -10 -3
-7 12 -9 10 -7 -8 0 -12 5 -22 10 -22 4 0 5 -5 2 -11 -5 -6 -12 -4 -22 8 -8
10 -11 11 -7 3 6 -12 5 -13 -7 -3 -8 6 -17 11 -21 10 -3 -1 -10 2 -15 7 -5 5
-2 6 6 1 9 -5 12 -4 8 2 -3 5 0 10 8 10 8 0 11 -5 8 -10 -3 -6 -1 -7 5 -3 20
12 13 24 -13 24 -14 0 -25 -4 -25 -9 0 -5 -4 -9 -10 -9 -6 0 -9 3 -9 8 1 4 1
14 0 22 -1 11 -4 11 -13 2 -19 -19 -32 -14 -17 6 13 15 12 16 -3 4 -22 -18
-65 -25 -73 -12 -4 6 -11 7 -17 4 -8 -5 -9 -1 -5 10 4 10 3 15 -3 11 -6 -3
-10 -1 -10 4 0 6 -4 11 -10 11 -5 0 -9 -6 -7 -12 1 -7 -6 -12 -15 -12 -9 1
-14 -4 -12 -11 3 -6 -2 -12 -11 -12 -10 0 -14 7 -10 21 3 12 2 15 -1 9 -3 -7
-10 -13 -15 -13 -6 0 -7 6 -3 13 5 7 0 6 -11 -3 -14 -11 -19 -12 -22 -2 -3 6
-9 12 -14 12 -5 0 -8 -6 -6 -12 1 -7 -5 -14 -13 -14 -8 -1 -19 -3 -25 -4 -5
-1 -14 -2 -18 -1 -4 1 -10 -6 -14 -14 -5 -14 -7 -14 -22 -1 -9 8 -20 15 -26
15 -5 1 -10 10 -10 20 0 24 -11 36 -19 22z m8 -33 c-4 -53 -4 -54 -15 -35 -5
9 -14 17 -19 17 -6 0 -10 -8 -10 -17 0 -15 -2 -16 -10 -3 -5 8 -5 17 -1 20 5
3 7 13 6 22 -2 11 3 15 16 13 10 -2 21 0 24 6 10 15 12 11 9 -23z m279 -1 c3
-7 -3 -13 -14 -13 -13 0 -15 3 -7 13 6 7 12 13 13 13 2 0 5 -6 8 -13z m-203
-91 c-7 -7 -14 -6 -22 3 -11 10 -9 11 7 5 17 -7 18 -6 5 8 -14 15 -16 14 -26
-5 -13 -23 -49 -33 -60 -15 -5 8 -2 9 9 5 9 -3 19 -1 23 5 5 7 2 8 -7 3 -11
-6 -11 -5 -2 5 6 7 10 18 9 24 -2 6 -1 8 1 4 3 -5 12 -8 21 -8 12 0 13 3 4 12
-7 7 -12 16 -12 20 0 4 14 -6 30 -24 21 -21 27 -35 20 -42z m7 52 c-3 -8 -6
-5 -6 6 -1 11 2 17 5 13 3 -3 4 -12 1 -19z m301 9 c8 -6 12 -6 12 2 0 6 5 11
11 11 5 0 8 -4 4 -9 -5 -9 29 -35 47 -36 3 0 9 -3 13 -7 9 -9 -16 -5 -33 5 -7
5 -18 2 -26 -6 -18 -17 -62 -16 -58 1 3 15 -14 16 -23 2 -4 -6 -11 -8 -16 -4
-5 3 -16 1 -24 -6 -11 -9 -13 -7 -11 7 2 13 11 18 30 17 18 -1 25 3 22 11 -2
7 -3 15 0 17 8 8 39 5 52 -5z m-393 -45 c-4 -4 -10 -1 -12 6 -3 6 -9 10 -14 7
-5 -4 -6 1 -3 9 5 14 8 14 21 0 9 -8 12 -18 8 -22z m569 26 c4 3 4 -2 0 -12
-5 -14 -9 -15 -15 -4 -6 8 -9 9 -9 2 0 -7 -8 -15 -17 -19 -14 -5 -15 -3 -6 6
6 6 9 18 6 26 -5 13 -2 13 14 5 11 -6 23 -8 27 -4z m66 -4 c0 -8 -19 -13 -24
-6 -3 5 1 9 9 9 8 0 15 -2 15 -3z m-472 -50 c1 -1 -5 -7 -15 -15 -15 -12 -16
-12 -11 2 4 9 1 23 -5 30 -9 9 -6 9 8 -1 11 -8 21 -15 23 -16z"/>
<path d="M7653 426 c-3 -6 -3 -8 2 -4 4 4 13 1 19 -8 10 -13 12 -13 12 4 0 20
-23 26 -33 8z"/>
<path d="M8049 379 c13 -11 17 -19 10 -19 -7 0 -10 -2 -7 -5 11 -11 59 15 52
27 -6 9 -9 9 -12 0 -5 -16 -23 -16 -19 0 1 7 -9 13 -23 14 l-24 1 23 -18z"/>
<path d="M7855 460 c3 -5 8 -10 11 -10 2 0 4 5 4 10 0 6 -5 10 -11 10 -5 0 -7
-4 -4 -10z"/>
<path d="M2596 451 c-4 -5 -3 -17 1 -28 6 -17 5 -16 -17 2 -13 11 -20 14 -15
6 5 -9 3 -12 -6 -9 -8 3 -13 11 -11 17 1 6 -3 11 -9 11 -6 0 -9 -7 -6 -15 9
-21 -11 -29 -30 -13 -12 9 -15 9 -9 1 13 -23 -12 -14 -28 9 -9 12 -16 18 -16
12 0 -5 6 -16 13 -23 10 -11 8 -12 -11 -6 -15 4 -24 2 -28 -9 -5 -13 -8 -14
-20 -1 -8 8 -22 11 -30 8 -11 -4 -12 -9 -5 -16 8 -8 6 -16 -6 -29 -9 -10 -11
-18 -6 -18 18 0 34 27 27 46 -5 18 -5 18 10 0 11 -14 13 -22 5 -27 -7 -4 -5
-8 5 -12 9 -4 15 -3 15 1 -3 19 2 33 10 27 5 -3 12 -1 16 5 4 6 11 8 16 5 5
-4 9 -1 9 6 0 9 3 9 14 0 11 -9 15 -9 19 1 4 11 6 10 6 0 1 -7 5 -11 10 -7 6
3 9 -3 8 -14 0 -11 -5 -17 -9 -15 -4 3 -8 0 -8 -6 0 -17 35 -7 36 10 2 34 4
40 15 40 5 0 7 -5 3 -12 -5 -7 -3 -8 7 -2 8 4 20 9 27 10 11 2 11 0 0 -13 -11
-14 -11 -15 2 -11 8 3 15 13 15 24 0 10 4 26 9 34 9 13 8 13 -9 0 -17 -14 -18
-13 -12 3 7 18 2 23 -7 8z m-146 -45 c0 -3 -4 -8 -10 -11 -5 -3 -10 -1 -10 4
0 6 5 11 10 11 6 0 10 -2 10 -4z"/>
<path d="M8050 445 c-7 -9 -8 -15 -2 -15 5 0 12 7 16 15 3 8 4 15 2 15 -2 0
-9 -7 -16 -15z"/>
<path d="M2296 438 c3 -5 10 -6 15 -3 13 9 11 12 -6 12 -8 0 -12 -4 -9 -9z"/>
<path d="M2413 435 c0 -7 6 -11 14 -8 7 3 13 6 13 8 0 2 -6 5 -13 8 -8 3 -14
-1 -14 -8z"/>
<path d="M3750 439 c0 -5 5 -7 10 -4 6 3 10 8 10 11 0 2 -4 4 -10 4 -5 0 -10
-5 -10 -11z"/>
<path d="M8006 438 c3 -4 9 -8 15 -8 5 0 9 4 9 8 0 5 -7 9 -15 9 -8 0 -12 -4
-9 -9z"/>
<path d="M8156 432 c-2 -4 4 -8 14 -8 10 0 16 4 14 8 -3 4 -9 8 -14 8 -5 0
-11 -4 -14 -8z"/>
<path d="M1945 420 c-3 -6 1 -7 9 -4 18 7 21 14 7 14 -6 0 -13 -4 -16 -10z"/>
<path d="M2035 412 c2 -11 -4 -27 -13 -34 -14 -11 -15 -11 -9 5 4 10 3 16 -2
12 -5 -3 -12 1 -15 7 -3 7 -3 3 0 -9 4 -19 2 -21 -18 -17 -13 3 -30 6 -38 7
-8 1 -18 6 -22 11 -9 13 -40 17 -32 5 3 -5 10 -7 15 -4 5 4 9 2 9 -3 0 -16
-13 -22 -27 -11 -12 11 -18 2 -14 -23 1 -10 -11 -10 -27 1 -11 7 -11 9 2 14 9
4 16 12 15 19 0 10 -2 10 -6 0 -2 -6 -9 -10 -14 -6 -5 3 -9 0 -9 -6 0 -6 -5
-8 -12 -4 -7 5 -8 3 -3 -6 6 -10 4 -12 -9 -7 -10 4 -15 3 -11 -3 3 -6 2 -10
-3 -10 -16 0 -22 13 -11 27 9 9 8 13 0 13 -6 0 -11 -4 -11 -9 0 -5 -9 -11 -20
-14 -13 -3 -26 3 -38 20 -14 20 -21 23 -27 13 -5 -8 -4 -11 2 -7 12 8 27 -20
24 -43 -1 -9 1 -11 6 -5 14 18 56 12 59 -8 1 -11 6 -22 10 -25 4 -4 5 0 2 8
-3 8 4 20 16 27 16 9 27 8 49 -4 16 -8 27 -11 24 -6 -3 5 3 14 14 21 21 14 26
3 7 -17 -9 -9 -9 -12 -1 -7 6 3 13 3 16 -1 2 -5 2 -3 1 4 -2 6 3 14 10 16 9 4
12 -3 10 -19 -3 -29 -1 -29 17 -7 10 11 10 14 2 9 -15 -8 -16 -5 -7 18 3 9 10
16 16 16 5 0 6 -4 3 -10 -3 -5 -1 -10 5 -10 6 0 8 -5 4 -12 -5 -9 -2 -9 9 1
13 10 20 11 31 2 10 -9 16 -7 27 5 11 13 10 17 -2 25 -9 5 -10 9 -2 9 21 0 25
-20 10 -44 -13 -19 -13 -23 -2 -23 8 0 12 3 10 7 -2 4 7 12 20 18 28 13 34 -2
8 -17 -16 -9 -16 -10 4 -8 12 0 20 4 18 7 -2 3 6 12 17 19 18 11 20 11 15 -3
-4 -11 -2 -13 10 -9 12 5 14 2 9 -8 -4 -8 -1 -5 8 5 15 18 16 18 26 -8 5 -15
14 -24 20 -21 5 3 10 8 10 11 0 3 -4 3 -9 0 -10 -6 -22 30 -13 38 6 7 38 -36
34 -46 -1 -5 3 -8 8 -8 14 0 13 13 -2 28 -6 6 -8 15 -4 19 4 4 12 0 17 -10 12
-21 33 -23 25 -1 -4 10 -1 14 6 12 7 -3 13 -10 13 -16 0 -7 3 -12 8 -12 4 0
12 0 19 0 6 0 4 6 -6 13 -17 12 -17 14 -2 20 9 4 16 12 16 18 0 8 -6 6 -18 -4
-18 -17 -35 -12 -40 11 -1 8 2 11 9 6 8 -5 9 -3 4 6 -5 8 -4 11 3 6 6 -4 8
-14 5 -24 -5 -14 -3 -15 7 -5 17 16 23 53 9 53 -5 0 -7 -4 -4 -10 3 -5 1 -10
-4 -10 -10 0 -15 14 -12 33 0 4 -3 7 -8 7 -11 0 -23 -29 -16 -40 3 -4 -2 -10
-10 -14 -8 -3 -17 -1 -20 4 -3 4 0 10 7 12 7 3 5 7 -6 11 -10 4 -15 3 -11 -3
3 -6 1 -10 -6 -10 -6 0 -9 8 -6 20 3 11 1 18 -4 14 -5 -3 -9 -12 -9 -20 0 -8
-5 -12 -10 -9 -6 4 -8 11 -5 16 4 5 1 9 -4 9 -6 0 -11 -5 -11 -11 0 -5 -6 -7
-12 -3 -9 5 -9 2 1 -9 8 -10 9 -17 3 -17 -6 0 -14 5 -17 10 -4 6 -10 8 -15 5
-5 -3 -11 3 -13 12 -4 17 -5 17 -6 1 -1 -20 -16 -24 -26 -8 -3 6 -12 10 -18
10 -7 0 -4 -5 6 -11 9 -5 17 -15 17 -21 0 -7 -4 -7 -13 1 -8 6 -17 8 -20 4 -4
-3 -8 -1 -8 5 -3 26 -4 31 -11 38 -4 3 -6 -3 -3 -14z m174 -29 c17 -2 32 -24
24 -36 -2 -4 -11 -3 -18 3 -8 6 -16 7 -19 2 -8 -14 -51 -8 -48 6 3 18 -15 14
-22 -5 -5 -12 -10 -13 -18 -5 -7 7 -17 8 -27 2 -13 -6 -17 -4 -17 11 0 12 4
15 10 9 6 -6 17 -4 30 8 11 9 16 11 12 5 -4 -7 -2 -13 3 -13 6 0 11 5 11 11 0
8 4 8 15 -1 16 -13 39 -4 29 12 -5 7 -2 8 7 2 8 -4 20 -9 28 -11z m-259 -8 c0
-7 -30 -13 -34 -7 -3 4 4 9 15 9 10 1 19 0 19 -2z m85 -17 c4 -3 2 -9 -3 -12
-5 -3 -15 1 -21 8 -10 11 -9 14 3 12 9 -1 18 -5 21 -8z m232 -3 c0 -8 -4 -15
-9 -15 -10 0 -11 14 -1 23 9 10 10 9 10 -8z"/>
<path d="M2165 364 c-19 -14 -19 -14 2 -11 13 2 26 6 29 10 4 4 14 1 23 -5 13
-10 14 -10 4 2 -17 19 -36 20 -58 4z"/>
<path d="M2130 419 c0 -5 5 -7 10 -4 6 3 10 8 10 11 0 2 -4 4 -10 4 -5 0 -10
-5 -10 -11z"/>
<path d="M2236 418 c3 -5 10 -6 15 -3 13 9 11 12 -6 12 -8 0 -12 -4 -9 -9z"/>
<path d="M2629 423 c-1 -5 -1 -12 0 -17 3 -13 -20 -36 -36 -36 -10 0 -13 6 -9
16 5 13 4 14 -7 6 -8 -7 -17 -8 -22 -4 -4 4 -5 0 -3 -8 3 -8 11 -14 17 -12 7
1 10 -2 6 -8 -3 -6 -10 -8 -15 -5 -5 3 -13 -2 -18 -11 -5 -9 -12 -16 -17 -16
-13 0 -25 26 -20 43 4 12 -2 15 -25 15 -16 0 -30 -1 -30 -2 0 -13 14 -33 20
-29 7 4 28 -14 29 -25 0 -14 14 -40 21 -40 5 0 11 9 15 19 3 12 12 18 20 15 7
-3 19 4 25 16 6 11 15 18 20 15 5 -3 15 3 22 13 7 10 23 18 35 18 18 0 20 -3
10 -15 -10 -11 -9 -13 3 -9 8 2 16 15 16 27 1 12 -1 19 -4 16 -3 -3 -16 2 -29
10 -13 9 -24 12 -24 8z m22 -20 c13 -16 12 -17 -3 -4 -10 7 -18 15 -18 17 0 8
8 3 21 -13z m-121 -85 c0 -4 -4 -8 -9 -8 -6 0 -12 4 -15 8 -3 5 1 9 9 9 8 0
15 -4 15 -9z"/>
<path d="M3075 411 c-2 -5 1 -14 9 -20 10 -9 15 -8 19 3 6 15 -19 31 -28 17z"/>
<path d="M8413 405 c-3 -9 -3 -18 -1 -21 3 -3 8 4 11 16 6 23 -1 27 -10 5z"/>
<path d="M1733 396 c0 -8 6 -12 14 -9 7 3 10 9 7 14 -8 14 -21 11 -21 -5z"/>
<path d="M1800 400 c0 -5 5 -10 11 -10 5 0 7 5 4 10 -3 6 -8 10 -11 10 -2 0
-4 -4 -4 -10z"/>
<path d="M1960 400 c0 -5 5 -10 11 -10 5 0 7 5 4 10 -3 6 -8 10 -11 10 -2 0
-4 -4 -4 -10z"/>
<path d="M2341 393 c12 -15 12 -16 -5 -10 -16 6 -17 5 -6 -8 9 -11 16 -12 26
-4 11 9 11 13 -1 25 -19 20 -30 17 -14 -3z"/>
<path d="M3180 395 c7 -9 15 -13 17 -11 7 7 -7 26 -19 26 -6 0 -6 -6 2 -15z"/>
<path d="M7846 402 c-3 -5 0 -15 8 -21 11 -9 15 -8 20 5 4 9 4 19 1 22 -3 3
-5 -1 -5 -9 0 -12 -2 -12 -9 0 -5 8 -11 9 -15 3z"/>
<path d="M8476 393 c-6 -14 -5 -15 5 -6 7 7 10 15 7 18 -3 3 -9 -2 -12 -12z"/>
<path d="M1654 392 c5 -8 -1 -16 -16 -21 -13 -6 -18 -10 -11 -10 6 -1 19 -4
27 -7 12 -5 15 -1 13 15 -2 11 -7 24 -12 28 -4 5 -5 2 -1 -5z"/>
<path d="M1353 375 c0 -8 4 -12 9 -9 5 3 6 10 3 15 -9 13 -12 11 -12 -6z"/>
<path d="M1470 381 c0 -6 4 -13 10 -16 6 -3 7 1 4 9 -7 18 -14 21 -14 7z"/>
<path d="M1490 386 c0 -2 7 -7 16 -10 8 -3 12 -2 9 4 -6 10 -25 14 -25 6z"/>
<path d="M1590 380 c0 -5 5 -10 10 -10 6 0 10 5 10 10 0 6 -4 10 -10 10 -5 0
-10 -4 -10 -10z"/>
<path d="M8533 375 c0 -8 4 -12 9 -9 4 3 8 9 8 15 0 5 -4 9 -8 9 -5 0 -9 -7
-9 -15z"/>
<path d="M8570 386 c0 -3 9 -10 20 -16 11 -6 20 -8 20 -6 0 3 -9 10 -20 16
-11 6 -20 8 -20 6z"/>
<path d="M8616 377 c3 -10 9 -15 12 -12 3 3 0 11 -7 18 -10 9 -11 8 -5 -6z"/>
<path d="M8485 371 c-3 -6 0 -8 9 -5 8 3 16 -1 19 -10 4 -14 5 -14 3 0 -1 20
-21 30 -31 15z"/>
<path d="M1450 360 c0 -5 5 -10 11 -10 5 0 7 5 4 10 -3 6 -8 10 -11 10 -2 0
-4 -4 -4 -10z"/>
<path d="M1526 362 c-3 -5 1 -9 9 -9 8 0 15 4 15 9 0 4 -4 8 -9 8 -6 0 -12 -4
-15 -8z"/>
<path d="M1560 366 c0 -2 7 -9 15 -16 13 -11 14 -10 9 4 -5 14 -24 23 -24 12z"/>
<path d="M2423 359 c1 -6 -6 -13 -15 -14 -10 -2 -18 1 -18 7 0 7 -5 6 -14 -1
-7 -6 -20 -9 -29 -5 -8 3 -18 1 -21 -4 -3 -6 1 -13 9 -16 13 -5 14 -10 4 -28
l-11 -23 21 23 c25 25 51 31 31 7 -7 -8 -8 -15 -4 -15 5 0 15 9 22 20 7 11 17
20 24 20 6 0 3 -9 -7 -20 -17 -18 -17 -20 -2 -14 9 3 17 11 17 17 0 8 3 8 11
0 6 -6 18 -9 27 -6 11 5 13 3 7 -7 -5 -8 -4 -11 2 -7 13 8 8 53 -6 49 -6 -1
-14 5 -17 13 -7 17 -35 21 -31 4z m53 -21 c4 4 2 -1 -5 -11 -10 -13 -17 -15
-27 -6 -8 6 -11 15 -8 21 4 5 11 5 18 -1 7 -6 17 -7 22 -3z m-71 -6 c-8 -9
-54 -11 -59 -4 -2 4 11 8 30 8 18 0 32 -2 29 -4z"/>
<path d="M7275 361 c-3 -6 -10 -9 -15 -6 -4 3 -10 -1 -13 -9 -3 -8 0 -13 9
-12 18 3 40 24 32 31 -3 4 -9 1 -13 -4z"/>
<path d="M7500 347 c-12 -21 -12 -21 6 -7 10 8 20 15 22 16 2 1 -1 4 -5 7 -5
3 -15 -4 -23 -16z"/>
<path d="M7593 357 c0 -8 6 -14 14 -14 9 0 10 4 2 14 -6 7 -12 13 -14 13 -1 0
-2 -6 -2 -13z"/>
<path d="M8554 359 c-3 -6 -1 -16 5 -22 9 -9 11 -8 5 6 -5 13 -2 16 10 11 9
-3 16 -4 16 -1 0 11 -30 16 -36 6z"/>
<path d="M8637 355 c-4 -8 -3 -16 1 -19 4 -3 9 4 9 15 2 23 -3 25 -10 4z"/>
<path d="M8277 336 c5 -14 3 -17 -7 -11 -8 5 -11 4 -7 -3 8 -11 33 -11 42 1 3
4 2 5 -2 2 -3 -3 -12 3 -20 13 -12 16 -13 16 -6 -2z"/>
<path d="M8430 340 c0 -5 5 -10 11 -10 5 0 7 5 4 10 -3 6 -8 10 -11 10 -2 0
-4 -4 -4 -10z"/>
<path d="M3137 327 c-3 -8 1 -14 9 -14 16 0 19 13 5 21 -5 3 -11 0 -14 -7z"/>
<path d="M3460 309 c-25 -27 -39 -55 -21 -45 5 4 12 0 15 -6 3 -7 3 -2 -1 12
-5 21 -4 23 9 13 11 -10 17 -10 27 0 11 10 12 7 6 -13 -5 -21 -3 -19 15 9 11
18 20 34 18 36 -25 21 -45 19 -68 -6z m30 -9 c-6 -11 -16 -17 -22 -14 -7 5 -5
12 7 21 25 18 28 17 15 -7z"/>
<path d="M6355 330 c-3 -5 -2 -10 4 -10 5 0 13 5 16 10 3 6 2 10 -4 10 -5 0
-13 -4 -16 -10z"/>
<path d="M6635 330 c-3 -5 -1 -10 4 -10 21 0 26 -2 41 -13 8 -6 6 -2 -4 11
-21 24 -32 27 -41 12z"/>
<path d="M6952 327 c-7 -7 -7 -18 -2 -27 7 -11 11 -11 24 -1 9 8 16 18 16 24
0 6 -7 2 -15 -9 -14 -18 -14 -18 -8 4 6 25 1 28 -15 9z"/>
<path d="M1979 313 c-13 -17 -13 -17 6 -3 11 8 22 16 24 17 2 2 0 3 -6 3 -6 0
-17 -8 -24 -17z"/>
<path d="M2913 318 c2 -7 12 -12 21 -10 9 2 16 -1 15 -5 -1 -4 -1 -15 0 -22 2
-21 20 0 26 28 3 17 1 20 -8 12 -8 -6 -18 -6 -27 -1 -21 13 -32 12 -27 -2z"/>
<path d="M6180 315 c-11 -13 -10 -14 4 -9 9 3 16 10 16 15 0 13 -6 11 -20 -6z"/>
<path d="M8014 318 c-4 -7 -4 -10 1 -6 4 4 14 3 22 -4 11 -8 12 -7 7 6 -7 19
-20 21 -30 4z"/>
<path d="M8170 319 c0 -5 5 -7 10 -4 6 3 10 8 10 11 0 2 -4 4 -10 4 -5 0 -10
-5 -10 -11z"/>
<path d="M8386 318 c3 -5 10 -6 15 -3 13 9 11 12 -6 12 -8 0 -12 -4 -9 -9z"/>
<path d="M3641 311 c-7 -5 -15 -20 -16 -34 -2 -14 -6 -30 -9 -36 -4 -5 -2 -13
4 -16 6 -4 10 -3 9 2 -3 20 2 34 11 28 6 -3 10 -1 10 5 0 6 5 8 10 5 6 -4 7
-12 3 -18 -3 -7 4 -3 17 8 l23 20 -7 -25 c-3 -14 -3 -19 0 -12 3 6 15 12 25
12 11 0 18 -4 15 -8 -3 -5 1 -9 9 -9 11 0 12 4 4 14 -6 7 -17 13 -24 13 -6 0
-12 7 -12 15 0 8 4 15 9 15 4 0 8 -4 8 -8 0 -5 12 -14 26 -20 14 -7 23 -16 20
-20 -2 -4 6 -8 19 -8 18 0 22 5 20 23 -1 13 2 26 6 29 5 3 9 -2 9 -10 0 -9 4
-16 10 -16 5 0 8 10 6 23 -3 12 -5 24 -5 26 -1 3 -12 -6 -25 -18 -20 -19 -24
-20 -30 -6 -3 9 -10 14 -16 10 -5 -3 -18 -1 -29 4 -14 8 -22 6 -36 -9 -14 -16
-21 -17 -32 -8 -8 6 -12 17 -9 25 6 15 -3 17 -23 4z m25 -33 c10 -13 12 -18 5
-11 -7 6 -20 9 -27 6 -14 -5 -19 8 -7 20 9 9 7 10 29 -15z m108 0 c-5 -7 10
-12 29 -9 4 0 7 -3 7 -8 0 -20 -16 -18 -42 3 -24 19 -25 22 -9 22 11 0 17 -4
15 -8z"/>
<path d="M3935 310 c-3 -5 -2 -10 4 -10 5 0 13 5 16 10 3 6 2 10 -4 10 -5 0
-13 -4 -16 -10z"/>
<path d="M5400 309 c0 -5 5 -7 10 -4 6 3 10 8 10 11 0 2 -4 4 -10 4 -5 0 -10
-5 -10 -11z"/>
<path d="M6240 310 c-8 -5 -11 -12 -7 -17 5 -4 12 -1 16 6 5 8 14 10 21 6 9
-5 11 -4 6 3 -9 14 -16 15 -36 2z"/>
<path d="M2120 300 c-9 -6 -10 -10 -3 -10 6 0 15 5 18 10 8 12 4 12 -15 0z"/>
<path d="M3381 284 c-6 -15 -9 -29 -7 -32 3 -3 10 6 15 19 5 13 10 22 11 19 9
-33 9 -50 -2 -44 -7 4 -8 3 -4 -5 12 -19 26 -2 21 26 -7 40 -20 47 -34 17z"/>
<path d="M5746 302 c-3 -5 1 -9 9 -9 8 0 12 4 9 9 -3 4 -7 8 -9 8 -2 0 -6 -4
-9 -8z"/>
<path d="M6433 289 c10 -16 9 -21 -3 -29 -11 -7 -12 -10 -2 -10 8 0 16 9 19
20 3 11 9 17 14 14 5 -3 7 -9 5 -13 -3 -4 1 -8 9 -8 20 0 26 24 9 37 -11 10
-14 10 -14 1 0 -7 -5 -9 -12 -4 -27 16 -38 12 -25 -8z"/>
<path d="M7550 299 c0 -5 4 -8 9 -4 5 3 12 1 16 -5 3 -5 14 -10 23 -10 11 0 6
6 -12 15 -34 18 -36 18 -36 4z"/>
<path d="M7750 302 c0 -4 10 -9 22 -9 18 -2 20 0 8 7 -18 12 -30 13 -30 2z"/>
<path d="M4081 286 c-8 -10 -8 -16 4 -26 8 -7 15 -9 15 -4 0 4 7 -1 16 -12 15
-18 15 -18 5 3 -8 16 -8 22 2 26 7 2 4 8 -9 15 -17 9 -24 9 -33 -2z m23 -17
c-3 -5 -10 -7 -15 -3 -5 3 -7 10 -3 15 3 5 10 7 15 3 5 -3 7 -10 3 -15z"/>
<path d="M5465 290 c-3 -5 -3 -15 0 -20 4 -6 1 -18 -6 -26 -8 -10 -9 -18 -2
-25 8 -8 13 -7 18 2 5 8 4 10 -3 5 -19 -12 -14 9 7 28 11 10 22 13 25 8 3 -6
2 -12 -3 -14 -5 -1 -2 -10 7 -18 14 -13 15 -12 9 3 -3 9 -2 17 3 17 6 0 10 -5
10 -12 0 -6 3 -8 7 -4 5 4 -1 14 -11 22 -14 10 -15 14 -5 14 19 -1 44 -21 52
-44 6 -14 10 -16 21 -6 16 13 16 65 1 65 -6 0 -16 4 -23 9 -7 4 -18 4 -25 -1
-14 -11 -47 -11 -64 0 -6 4 -14 3 -18 -3z m90 -10 c-4 -7 2 -9 17 -6 20 3 24
0 23 -19 0 -26 -15 -47 -15 -22 0 9 -9 21 -20 27 -17 9 -20 30 -4 30 3 0 2 -5
-1 -10z"/>
<path d="M7437 293 c-10 -9 -9 -23 1 -23 5 0 9 7 9 15 0 17 -1 18 -10 8z"/>
<path d="M2440 280 c8 -5 20 -10 25 -10 6 0 3 5 -5 10 -8 5 -19 10 -25 10 -5
0 -3 -5 5 -10z"/>
<path d="M2537 283 c-3 -5 8 -8 23 -8 15 0 26 3 23 8 -2 4 -13 7 -23 7 -10 0
-21 -3 -23 -7z"/>
<path d="M4485 280 c-3 -6 1 -7 9 -4 18 7 21 14 7 14 -6 0 -13 -4 -16 -10z"/>
<path d="M4736 274 c-3 -9 -10 -13 -15 -10 -5 3 -12 -1 -15 -10 -8 -21 -8 -24
5 -24 5 0 7 5 3 12 -5 7 -2 9 9 5 14 -5 41 13 34 24 -1 2 2 1 7 -3 5 -4 4 -14
-4 -23 -7 -8 -10 -18 -6 -22 3 -3 6 -1 6 6 0 7 5 9 12 5 7 -4 8 -3 4 4 -4 7
-2 12 5 12 8 0 9 3 0 13 -6 8 -9 16 -6 18 2 3 -4 5 -15 6 -10 1 -21 -5 -24
-13z"/>
<path d="M6590 281 c0 -9 30 -24 36 -18 2 1 -6 8 -16 15 -11 7 -20 8 -20 3z"/>
<path d="M7476 282 c-3 -5 1 -9 9 -9 8 0 12 4 9 9 -3 4 -7 8 -9 8 -2 0 -6 -4
-9 -8z"/>
<path d="M2673 265 c0 -8 4 -12 9 -9 5 3 6 10 3 15 -9 13 -12 11 -12 -6z"/>
<path d="M6950 271 c0 -6 4 -12 8 -15 5 -3 9 1 9 9 0 8 -4 15 -9 15 -4 0 -8
-4 -8 -9z"/>
<path d="M2790 259 c0 -5 5 -7 10 -4 6 3 10 8 10 11 0 2 -4 4 -10 4 -5 0 -10
-5 -10 -11z"/>
<path d="M2896 262 c-3 -4 4 -9 15 -9 23 -2 25 3 4 10 -8 4 -16 3 -19 -1z"/>
<path d="M2970 260 c0 -5 5 -10 11 -10 5 0 7 5 4 10 -3 6 -8 10 -11 10 -2 0
-4 -4 -4 -10z"/>
<path d="M4942 250 c-16 -25 -6 -46 13 -30 13 11 17 50 5 50 -3 0 -11 -9 -18
-20z m10 -22 c-7 -7 -12 -8 -12 -2 0 14 12 26 19 19 2 -3 -1 -11 -7 -17z"/>
<path d="M6750 260 c0 -5 5 -10 11 -10 5 0 7 5 4 10 -3 6 -8 10 -11 10 -2 0
-4 -4 -4 -10z"/>
<path d="M7055 260 c3 -5 8 -10 11 -10 2 0 4 5 4 10 0 6 -5 10 -11 10 -5 0 -7
-4 -4 -10z"/>
<path d="M3471 244 c0 -11 3 -14 6 -6 3 7 2 16 -1 19 -3 4 -6 -2 -5 -13z"/>
<path d="M6130 256 c0 -2 8 -10 18 -17 15 -13 16 -12 3 4 -13 16 -21 21 -21
13z"/>
<path d="M6395 251 c-3 -5 -2 -12 3 -15 5 -3 9 1 9 9 0 17 -3 19 -12 6z"/>
<path d="M6635 249 c-4 -6 -5 -12 -2 -15 2 -3 7 2 10 11 7 17 1 20 -8 4z"/>
<path d="M3076 238 c3 -5 10 -6 15 -3 13 9 11 12 -6 12 -8 0 -12 -4 -9 -9z"/>
<path d="M3116 238 c3 -5 10 -6 15 -3 13 9 11 12 -6 12 -8 0 -12 -4 -9 -9z"/>
<path d="M3270 246 c0 -2 7 -7 16 -10 8 -3 12 -2 9 4 -6 10 -25 14 -25 6z"/>
<path d="M3830 240 c0 -5 5 -10 10 -10 6 0 10 5 10 10 0 6 -4 10 -10 10 -5 0
-10 -4 -10 -10z"/>
<path d="M3950 240 c0 -5 5 -10 10 -10 6 0 10 5 10 10 0 6 -4 10 -10 10 -5 0
-10 -4 -10 -10z"/>
<path d="M4390 246 c0 -2 7 -7 16 -10 8 -3 12 -2 9 4 -6 10 -25 14 -25 6z"/>
<path d="M5250 240 c0 -5 5 -10 10 -10 6 0 10 5 10 10 0 6 -4 10 -10 10 -5 0
-10 -4 -10 -10z"/>
<path d="M6255 240 c3 -5 8 -10 11 -10 2 0 4 5 4 10 0 6 -5 10 -11 10 -5 0 -7
-4 -4 -10z"/>
<path d="M6295 240 c3 -5 8 -10 11 -10 2 0 4 5 4 10 0 6 -5 10 -11 10 -5 0 -7
-4 -4 -10z"/>
<path d="M6330 239 c0 -5 5 -7 10 -4 6 3 10 8 10 11 0 2 -4 4 -10 4 -5 0 -10
-5 -10 -11z"/>
<path d="M6510 245 c0 -7 30 -13 34 -7 3 4 -4 9 -15 9 -10 1 -19 0 -19 -2z"/>
<path d="M3992 231 c-11 -7 -11 -9 0 -14 9 -3 15 1 15 9 0 8 -1 14 -1 14 -1 0
-7 -4 -14 -9z"/>
<path d="M3875 220 c-3 -6 1 -7 9 -4 18 7 21 14 7 14 -6 0 -13 -4 -16 -10z"/>
<path d="M4235 220 c-3 -5 -1 -10 4 -10 6 0 11 5 11 10 0 6 -2 10 -4 10 -3 0
-8 -4 -11 -10z"/>
<path d="M4296 222 c-3 -5 1 -9 9 -9 8 0 12 4 9 9 -3 4 -7 8 -9 8 -2 0 -6 -4
-9 -8z"/>
<path d="M4388 223 c6 -2 9 -10 6 -15 -4 -7 -2 -8 5 -4 13 9 5 26 -12 25 -9 0
-8 -2 1 -6z"/>
<path d="M4548 223 c6 -2 9 -10 6 -15 -4 -7 -2 -8 5 -4 13 9 5 26 -12 25 -9 0
-8 -2 1 -6z"/>
<path d="M5028 223 c6 -2 9 -10 6 -15 -4 -7 -2 -8 5 -4 13 9 5 26 -12 25 -9 0
-8 -2 1 -6z"/>
<path d="M5336 222 c-3 -4 4 -9 15 -9 23 -2 25 3 4 10 -8 4 -16 3 -19 -1z"/>
<path d="M5395 220 c-3 -5 -1 -10 4 -10 6 0 11 5 11 10 0 6 -2 10 -4 10 -3 0
-8 -4 -11 -10z"/>
</g>
</svg>
