<?xml version="1.0" standalone="no"?>
<!DOCTYPE svg PUBLIC "-//W3C//DTD SVG 20010904//EN"
 "http://www.w3.org/TR/2001/REC-SVG-20010904/DTD/svg10.dtd">
<svg version="1.0" xmlns="http://www.w3.org/2000/svg"
 width="16.000000pt" height="16.000000pt" viewBox="0 0 16.000000 16.000000"
 preserveAspectRatio="xMidYMid meet">
<metadata>
Created by potrace 1.11, written by Peter Selinger 2001-2013
</metadata>
<g transform="translate(0.000000,16.000000) scale(0.001600,-0.001600)"
fill="#000000" stroke="none">
<path d="M5107 9693 c-2 -1 -41 -5 -88 -8 -122 -8 -257 -22 -302 -31 -11 -2
-39 -6 -62 -9 -465 -64 -1159 -298 -1565 -526 -200 -113 -534 -349 -656 -464
-6 -5 -45 -39 -85 -75 -86 -75 -125 -114 -234 -234 -44 -49 -85 -94 -90 -100
-34 -37 -190 -233 -236 -296 -115 -158 -273 -418 -361 -595 -38 -76 -42 -94
-21 -93 20 1 204 -11 268 -17 22 -2 74 -6 115 -10 109 -9 162 -14 211 -21 24
-3 65 -7 90 -9 26 -2 65 -6 88 -9 23 -3 58 -8 79 -11 109 -13 130 -16 162 -21
19 -2 49 -6 65 -8 35 -5 109 -15 145 -21 14 -2 45 -7 70 -10 25 -3 83 -12 130
-20 47 -8 103 -17 125 -20 22 -3 51 -7 65 -10 14 -3 41 -7 60 -10 19 -3 46 -7
60 -10 14 -3 43 -8 65 -11 22 -3 49 -7 60 -9 11 -2 61 -11 110 -20 50 -10 101
-19 115 -21 14 -3 36 -7 50 -9 59 -12 77 -15 102 -20 15 -3 73 -14 128 -25 55
-11 113 -22 128 -25 48 -9 73 -14 90 -19 9 -3 32 -8 51 -11 19 -3 37 -7 40 -9
3 -2 23 -7 43 -10 44 -7 289 -61 368 -81 30 -8 66 -16 80 -19 42 -8 63 -13
110 -26 25 -7 53 -14 63 -16 10 -2 27 -6 37 -9 10 -3 27 -7 37 -9 24 -5 273
-72 403 -108 58 -16 113 -31 123 -34 64 -16 128 -34 332 -97 99 -31 225 -71
280 -90 l100 -34 110 149 c143 192 228 329 319 508 369 726 477 1605 256 2078
-62 131 -132 210 -270 303 -200 135 -522 248 -807 284 -24 3 -60 7 -80 10
-110 14 -467 28 -476 18z"/>
<path d="M6535 9485 c11 -8 56 -39 100 -67 273 -178 443 -481 482 -863 13
-133 5 -586 -12 -615 -1 -3 -6 -32 -10 -65 -39 -346 -273 -883 -707 -1618 -62
-104 -72 -117 -91 -111 -12 3 -69 23 -127 44 -58 20 -150 52 -205 70 -55 18
-104 35 -110 39 -5 3 -14 6 -20 7 -5 2 -48 14 -95 29 -47 15 -123 38 -170 51
-47 14 -92 28 -100 31 -8 3 -19 7 -25 9 -5 1 -75 21 -155 44 -178 50 -114 34
-515 135 -187 47 -353 88 -370 90 -16 3 -76 17 -133 30 -57 14 -116 27 -130
30 -15 3 -38 7 -52 10 -14 4 -34 8 -45 10 -11 2 -42 9 -70 15 -27 6 -59 12
-70 14 -11 2 -90 18 -175 35 -85 17 -168 33 -185 36 -16 3 -43 7 -60 10 -16 3
-41 8 -55 10 -51 10 -75 15 -110 20 -20 3 -47 8 -60 10 -25 5 -183 33 -230 40
-14 2 -56 9 -95 15 -68 11 -101 16 -156 25 -14 3 -41 7 -60 9 -41 6 -174 25
-209 31 -14 2 -50 7 -80 10 -30 4 -63 9 -72 10 -9 2 -43 6 -75 10 -33 3 -70 7
-84 9 -13 3 -49 7 -79 10 -30 3 -75 8 -100 11 -279 30 -360 36 -625 50 -343
19 -767 5 -925 -30 -14 -3 -38 -8 -55 -11 -16 -3 -48 -10 -70 -16 -22 -6 -44
-11 -50 -13 -54 -12 -172 -74 -204 -107 -97 -99 -53 -201 151 -355 173 -130
312 -217 477 -299 l106 -53 7 59 c4 32 14 72 22 89 50 97 217 184 396 207 25
3 62 9 82 14 36 7 481 5 598 -4 111 -8 226 -18 252 -21 14 -2 59 -6 100 -10
40 -3 111 -10 158 -15 47 -5 112 -12 145 -15 33 -3 74 -8 90 -10 17 -2 55 -7
85 -10 57 -6 110 -12 170 -20 19 -3 53 -7 75 -9 200 -25 304 -38 325 -42 14
-2 79 -11 145 -19 66 -9 127 -18 135 -20 8 -2 38 -7 65 -10 28 -3 75 -9 105
-14 30 -6 73 -12 95 -15 64 -8 116 -16 170 -26 28 -5 70 -12 95 -15 46 -6 496
-81 540 -90 14 -3 61 -12 105 -20 126 -22 485 -92 540 -105 28 -7 61 -14 75
-16 159 -31 597 -142 728 -185 l63 -21 -27 -46 c-15 -25 -104 -172 -198 -327
l-171 -281 -250 82 c-138 46 -349 112 -470 148 -121 36 -233 70 -250 75 -116
37 -786 209 -915 235 -14 3 -35 7 -46 10 -135 30 -241 51 -349 72 -71 14 -139
27 -150 29 -62 12 -322 55 -362 60 -27 4 -73 10 -103 15 -30 5 -98 14 -150 20
-52 6 -108 13 -125 15 -16 2 -79 9 -140 15 -60 6 -126 12 -145 15 -19 2 -64 7
-100 10 -36 3 -81 8 -100 10 -19 2 -64 7 -100 10 -36 3 -81 8 -100 10 -19 2
-71 7 -115 10 -44 3 -100 8 -125 10 -25 3 -76 7 -115 10 -38 3 -99 7 -135 10
-326 25 -826 25 -951 -1 -13 -2 -40 -7 -59 -10 -64 -10 -184 -46 -231 -70
-167 -84 -189 -213 -57 -343 54 -54 249 -184 466 -311 l167 -99 6 50 c15 115
118 200 304 250 143 39 263 49 560 44 154 -3 291 -7 305 -9 14 -2 75 -7 135
-10 61 -4 126 -9 145 -11 19 -2 73 -7 120 -11 47 -3 92 -8 101 -9 9 -2 56 -6
105 -10 49 -4 96 -8 104 -10 8 -2 49 -6 90 -9 41 -4 86 -9 100 -11 14 -2 50
-7 80 -10 30 -3 71 -8 90 -10 19 -3 76 -9 125 -15 50 -6 104 -13 120 -15 17
-3 68 -9 115 -15 89 -11 110 -14 225 -31 39 -6 84 -12 100 -14 32 -3 369 -53
407 -60 12 -3 40 -7 63 -10 33 -5 271 -45 350 -59 72 -13 145 -26 172 -31 247
-41 810 -176 939 -225 l24 -9 -41 -73 c-71 -129 -140 -269 -174 -354 -60 -150
-122 -393 -139 -551 -3 -29 -9 -76 -12 -104 -13 -113 -6 -406 12 -554 9 -74
35 -229 38 -232 2 -2 3 49 3 114 0 153 11 275 38 413 3 14 7 35 10 48 12 63
73 260 111 361 178 461 500 954 1141 1751 554 688 698 895 811 1170 35 86 88
244 96 287 3 15 14 71 25 123 47 217 66 444 65 755 0 229 -9 292 -65 459 -38
113 -89 210 -160 306 -148 199 -358 347 -624 441 -97 34 -152 49 -239 65 -16
2 -34 7 -40 10 -6 3 -2 -2 9 -11z"/>
<path d="M7600 9015 c0 -2 33 -30 73 -62 66 -53 396 -376 478 -468 492 -557
850 -1189 1047 -1850 43 -142 102 -390 117 -490 2 -16 9 -59 14 -95 6 -36 13
-92 17 -125 3 -33 7 -71 10 -85 19 -120 26 -612 12 -817 l-7 -101 63 -41 c34
-23 65 -41 68 -41 5 0 9 25 23 160 17 158 23 552 11 700 -13 169 -20 233 -51
445 -32 228 -145 635 -238 866 -156 384 -401 798 -646 1092 -101 121 -154 182
-205 236 -150 157 -286 288 -385 371 -29 25 -65 55 -80 68 -14 12 -60 48 -101
80 -41 31 -77 59 -80 63 -9 11 -140 99 -140 94z"/>
<path d="M7621 8788 c113 -192 203 -466 225 -683 8 -83 8 -289 -1 -360 -3 -27
-8 -70 -11 -95 -13 -117 -93 -410 -139 -515 -8 -16 -30 -70 -50 -120 -70 -173
-222 -449 -380 -690 -173 -263 -349 -497 -776 -1031 -565 -708 -750 -987 -872
-1314 -38 -102 -91 -310 -102 -400 -4 -30 -9 -63 -10 -72 -4 -17 -12 -98 -20
-188 -6 -71 -6 -260 0 -310 4 -25 17 -85 30 -135 94 -359 393 -674 868 -912
112 -57 146 -65 80 -20 -105 71 -261 230 -340 347 -131 193 -191 375 -198 600
-7 233 46 464 168 740 99 223 200 399 410 715 152 228 244 348 405 524 42 46
84 92 93 102 9 10 76 82 150 160 74 78 139 147 144 153 6 6 30 34 55 61 82 92
149 171 202 241 29 38 56 71 59 74 15 12 161 233 214 323 194 332 330 744 363
1102 9 95 8 290 -3 389 -45 434 -232 894 -517 1274 -38 50 -71 92 -74 92 -2 0
10 -24 27 -52z"/>
<path d="M8271 7773 c13 -35 55 -231 63 -298 4 -27 9 -63 12 -80 14 -86 19
-374 9 -490 -26 -290 -106 -598 -216 -830 -103 -219 -307 -537 -503 -787 -97
-124 -378 -468 -411 -504 -5 -6 -32 -37 -60 -69 -27 -32 -54 -63 -60 -69 -5
-6 -46 -51 -90 -101 -44 -49 -90 -101 -103 -115 -13 -14 -76 -90 -141 -170
-249 -308 -406 -558 -506 -810 -210 -527 -156 -1011 149 -1322 84 -85 159
-143 271 -207 134 -77 358 -160 480 -178 22 -3 50 -9 63 -14 36 -14 26 6 -25
47 -173 142 -290 317 -337 507 -20 78 -23 112 -20 227 3 149 5 163 40 300 60
227 191 502 408 855 59 96 473 723 491 743 1 1 13 -2 26 -7 13 -6 71 -29 129
-51 157 -62 149 -52 92 -113 -84 -89 -102 -109 -202 -228 -348 -412 -611 -829
-711 -1129 -118 -355 -73 -691 131 -983 52 -74 105 -137 116 -137 4 0 -5 15
-18 33 -51 66 -95 171 -124 297 -51 220 -32 541 43 730 73 183 173 273 303
273 176 0 272 -129 273 -368 0 -68 -11 -204 -18 -215 -2 -3 -6 -26 -10 -50
-18 -124 -107 -413 -185 -605 -43 -105 -44 -105 50 -20 307 278 520 554 623
805 63 153 81 244 80 410 -1 175 -40 314 -161 571 -93 197 -133 366 -128 546
1 57 5 106 9 109 4 4 37 -7 74 -24 38 -16 91 -40 118 -52 472 -209 1028 -544
1319 -794 87 -75 53 -26 -67 95 -214 216 -508 432 -838 614 -68 38 -370 187
-454 225 -74 34 -155 67 -255 106 -63 24 -123 48 -132 52 -14 6 -3 28 72 147
105 164 231 379 285 485 22 41 40 77 42 79 5 6 160 -54 313 -121 296 -131 670
-336 915 -502 50 -33 92 -63 95 -66 3 -3 28 -21 55 -40 28 -19 57 -40 65 -47
8 -6 51 -40 95 -75 44 -34 94 -75 110 -90 105 -97 -28 92 -143 203 -113 109
-134 126 -261 218 -271 197 -650 407 -1076 598 -55 25 -101 46 -103 48 -1 1
11 38 29 81 60 150 128 382 145 494 3 19 7 41 9 48 3 7 7 40 11 75 3 34 8 64
10 67 22 40 22 682 0 719 -2 3 -7 34 -10 69 -23 226 -121 589 -237 880 -16 39
-33 44 -18 5z"/>
<path d="M1507 6544 c-1 -1 -42 -4 -92 -8 -142 -9 -286 -38 -303 -60 -5 -6
-14 -38 -22 -71 -7 -33 -16 -75 -21 -94 -5 -19 -7 -36 -6 -37 1 -1 63 -5 137
-8 74 -4 162 -9 195 -11 33 -3 98 -7 145 -10 47 -3 108 -7 135 -10 101 -8 201
-17 242 -20 23 -2 70 -7 105 -10 34 -4 83 -9 108 -11 107 -9 148 -13 190 -18
25 -3 72 -8 105 -11 33 -4 74 -8 90 -10 17 -2 59 -7 95 -10 36 -4 79 -9 95
-11 17 -2 50 -7 75 -10 417 -50 1003 -164 1525 -296 66 -16 127 -31 135 -33
175 -42 640 -177 1007 -293 72 -23 62 -29 123 83 24 44 80 141 125 216 l82
135 -116 28 c-115 27 -395 89 -481 106 -209 41 -419 82 -440 85 -24 3 -60 10
-105 19 -11 2 -40 7 -65 11 -25 4 -54 9 -65 11 -45 9 -358 60 -420 69 -22 3
-51 8 -65 10 -14 3 -38 7 -55 9 -16 3 -59 10 -95 15 -36 6 -83 13 -105 16 -22
3 -49 7 -61 9 -12 2 -45 7 -75 11 -30 3 -65 8 -79 10 -14 3 -43 7 -65 10 -22
3 -53 8 -70 10 -16 3 -49 7 -72 10 -24 3 -75 10 -115 15 -40 6 -93 13 -118 15
-25 3 -58 7 -75 10 -16 2 -55 7 -85 10 -30 3 -70 8 -88 11 -55 9 -169 22 -347
39 -33 4 -75 8 -93 10 -18 2 -65 7 -105 10 -40 3 -88 8 -107 10 -19 2 -73 6
-120 10 -47 3 -105 8 -130 10 -128 10 -447 23 -453 19z"/>
<path d="M1507 5554 c-1 -1 -54 -4 -117 -7 -126 -7 -267 -34 -345 -65 l-50
-20 1 -103 c1 -157 30 -479 49 -549 2 -8 7 -35 10 -60 3 -25 22 -123 41 -219
109 -534 311 -1036 591 -1471 50 -78 189 -270 238 -329 202 -246 449 -485 706
-683 132 -101 381 -271 474 -324 11 -6 77 -43 147 -83 240 -134 586 -292 694
-316 10 -2 51 -13 89 -25 39 -11 79 -22 90 -24 11 -2 40 -9 65 -16 25 -7 54
-14 65 -16 11 -2 31 -6 45 -9 42 -9 193 -34 235 -39 22 -3 63 -8 90 -11 28 -4
62 -8 76 -11 151 -24 828 -23 982 1 12 2 54 7 92 10 39 4 81 9 95 11 14 1 48
5 75 9 28 3 64 8 80 11 17 3 39 7 50 9 52 7 185 32 265 50 14 4 36 8 50 11 14
3 34 8 45 11 21 7 25 8 65 16 14 3 36 10 50 15 14 5 28 10 33 10 44 5 266 90
340 129 52 29 60 43 23 43 -33 0 -243 61 -363 106 -190 70 -390 171 -543 273
-47 31 -89 58 -94 60 -5 2 -16 10 -25 17 -9 7 -54 43 -101 80 -168 134 -365
349 -484 529 -189 286 -279 518 -332 855 -13 83 -13 496 -1 565 3 17 13 79 22
138 32 214 105 473 210 745 36 93 65 172 65 175 0 3 -35 13 -77 23 -43 10 -82
19 -88 20 -23 6 -443 93 -475 98 -19 3 -46 8 -60 11 -148 30 -877 145 -1020
160 -25 3 -70 9 -100 14 -30 6 -80 12 -110 16 -30 3 -66 7 -80 9 -14 3 -68 10
-120 16 -52 6 -108 13 -125 15 -16 2 -57 7 -90 10 -33 3 -76 8 -95 10 -92 12
-120 15 -180 20 -36 3 -78 7 -95 10 -16 2 -61 7 -100 10 -38 3 -88 8 -110 10
-41 4 -98 9 -240 20 -44 4 -100 8 -125 10 -104 8 -497 23 -503 19z"/>
<path d="M9296 4473 c-10 -54 -41 -186 -68 -293 -28 -107 -52 -204 -54 -215
-3 -15 7 -28 36 -47 22 -16 44 -28 50 -28 13 0 84 223 136 429 25 95 43 175
42 176 -21 16 -114 75 -119 75 -3 0 -13 -44 -23 -97z"/>
<path d="M9021 3547 c-104 -267 -309 -654 -465 -877 -52 -73 -57 -85 -26 -50
127 139 305 391 425 600 72 125 195 370 195 387 0 9 -66 53 -77 53 -5 0 -28
-51 -52 -113z"/>
<path d="M5077 553 c-10 -9 -9 -23 1 -23 5 0 9 7 9 15 0 17 -1 18 -10 8z"/>
<path d="M5599 555 c-1 -3 -2 -8 -3 -12 -1 -5 -4 -13 -8 -18 -4 -6 -4 -16 0
-21 8 -12 61 -12 80 0 7 4 15 1 18 -8 3 -9 10 -13 15 -10 5 3 6 10 3 16 -5 7
-2 8 7 2 18 -11 50 -12 71 -2 10 5 19 4 23 -2 4 -6 14 -9 23 -8 11 2 16 -3 14
-12 -3 -11 3 -9 20 5 44 37 61 65 38 65 -5 0 -9 -3 -9 -7 3 -19 -2 -33 -11
-33 -5 0 -9 5 -7 11 1 6 -4 13 -11 15 -7 1 -8 0 -2 -3 5 -2 7 -9 4 -15 -4 -5
-17 0 -32 14 -26 22 -26 22 -8 1 17 -20 10 -34 -8 -16 -11 11 -65 12 -72 1 -4
-5 -17 0 -32 14 -15 13 -21 16 -14 7 12 -16 7 -29 -10 -29 -5 0 -6 6 -2 13 6
9 5 9 -7 0 -12 -10 -18 -10 -29 0 -10 9 -11 9 -6 0 4 -7 2 -13 -3 -13 -6 0
-11 8 -12 18 0 13 -2 12 -9 -5 -13 -31 -18 -29 -15 7 2 25 -2 42 -6 25z m171
-43 c0 -5 -7 -9 -15 -9 -8 0 -12 4 -9 9 3 4 9 8 15 8 5 0 9 -4 9 -8z m100 -8
c0 -8 -19 -13 -24 -6 -3 5 1 9 9 9 8 0 15 -2 15 -3z"/>
<path d="M5733 545 c0 -8 4 -12 9 -9 5 3 6 10 3 15 -9 13 -12 11 -12 -6z"/>
<path d="M4619 548 c-6 -21 -5 -37 2 -32 5 3 9 1 9 -5 0 -21 -21 -21 -29 1 -6
14 -10 17 -10 7 -1 -9 2 -19 7 -23 4 -4 7 -13 7 -18 0 -6 6 -12 13 -14 7 -1 8
0 2 3 -5 2 -7 9 -4 15 4 7 9 6 14 -2 5 -9 9 -9 14 -1 4 6 2 11 -4 11 -8 0 -8
6 0 21 7 11 9 23 6 27 -3 3 -6 0 -6 -7 0 -7 -5 -9 -10 -6 -6 4 -8 11 -5 16 4
5 4 9 1 9 -3 0 -6 -1 -7 -2z"/>
<path d="M4799 532 c-13 -15 -12 -16 4 -3 10 8 17 9 17 3 0 -6 -5 -14 -10 -17
-6 -4 -8 -11 -5 -16 4 -5 2 -9 -3 -9 -5 0 -9 -7 -9 -15 0 -8 4 -15 9 -15 4 0
8 -5 8 -10 0 -7 -7 -7 -21 1 -12 6 -17 14 -12 18 6 3 9 16 8 28 -2 27 -15 44
-15 20 0 -9 -4 -17 -10 -17 -5 0 -10 4 -10 8 0 14 -34 10 -52 -6 -16 -13 -18
-13 -26 8 -8 20 -9 21 -15 6 -4 -10 -5 -21 -2 -26 2 -4 -5 -16 -16 -26 -21
-19 -21 -18 -44 10 -13 17 -22 33 -19 37 2 4 -5 5 -16 2 -11 -3 -20 -8 -20
-12 0 -4 -10 -7 -22 -8 -22 -2 -22 -1 -4 12 11 8 16 18 13 22 -4 3 -7 3 -7 -2
0 -4 -8 -1 -17 6 -16 12 -17 12 -5 -2 10 -13 9 -19 -3 -29 -12 -10 -18 -10
-30 0 -12 10 -13 16 -3 29 12 14 11 14 -4 2 -10 -7 -18 -10 -18 -7 0 4 -13 -2
-29 -13 -36 -26 -48 -27 -30 -3 13 15 12 16 -3 3 -14 -11 -18 -11 -18 -1 0 8
-3 11 -6 7 -3 -3 -2 -12 2 -19 5 -7 9 -16 9 -20 0 -3 4 -10 9 -15 5 -5 6 -2 1
6 -5 9 -4 12 3 7 7 -4 12 -3 12 2 0 5 11 17 24 25 22 15 25 15 38 0 11 -15 11
-16 -6 -10 -14 6 -17 4 -12 -8 3 -9 0 -15 -10 -15 -9 0 -12 5 -8 13 5 8 2 8
-9 -2 -24 -19 -21 -29 8 -26 14 2 23 -1 20 -5 -3 -5 -13 -6 -22 -3 -11 5 -14
3 -8 -6 14 -24 -43 20 -60 45 -14 21 -14 28 -3 42 9 12 6 11 -10 -2 -12 -11
-21 -25 -18 -32 6 -16 -29 -10 -52 8 -12 10 -14 10 -8 1 12 -21 -5 -15 -23 9
-14 17 -18 18 -18 5 0 -9 5 -13 10 -10 5 3 7 0 5 -8 -3 -8 -12 -13 -22 -11 -9
2 -16 -2 -16 -8 0 -6 4 -9 9 -5 5 3 13 1 16 -5 5 -8 11 -7 21 1 8 6 14 8 14 3
0 -5 5 -2 10 6 7 11 10 11 10 2 0 -7 5 -10 10 -7 9 6 14 -8 11 -28 -1 -4 4 -7
11 -6 7 1 20 1 28 0 13 -1 13 -3 1 -10 -9 -6 -22 -6 -32 -1 -9 5 -19 6 -23 3
-3 -3 -15 2 -26 12 -11 10 -20 13 -20 7 0 -6 5 -14 10 -17 6 -3 10 -11 10 -18
0 -6 -7 -1 -16 11 -13 18 -19 21 -30 11 -10 -8 -14 -8 -14 0 0 6 5 11 10 11 6
0 10 5 10 11 0 5 -4 8 -8 5 -8 -5 -35 20 -41 39 -5 17 -13 21 -9 5 2 -11 -6
-15 -27 -15 -19 0 -29 -5 -27 -12 2 -15 -14 -18 -22 -4 -7 11 -56 11 -56 0 0
-4 5 -11 12 -15 6 -4 8 -3 5 3 -4 6 3 10 16 9 13 -1 21 -7 19 -15 -2 -9 3 -11
13 -7 10 3 14 2 10 -5 -4 -6 -13 -8 -20 -5 -8 3 -19 -2 -25 -9 -15 -18 -34 -9
-26 11 3 8 -1 14 -9 14 -9 0 -12 -8 -9 -27 3 -24 2 -25 -7 -10 -10 17 -12 17
-35 2 -13 -8 -24 -12 -24 -7 0 5 11 14 24 20 25 11 29 43 7 50 -9 3 -11 -2 -6
-17 6 -20 -2 -26 -27 -22 -5 0 -8 -4 -8 -10 0 -5 -5 -7 -11 -3 -8 4 -7 9 2 16
11 8 11 9 -1 5 -8 -2 -14 -13 -13 -24 1 -11 -4 -20 -11 -20 -8 0 -12 8 -9 21
4 15 2 17 -5 8 -8 -11 -10 -11 -15 1 -4 10 0 14 11 13 9 -2 28 4 42 13 13 9
21 11 18 5 -4 -6 -1 -11 6 -11 8 0 12 6 9 14 -3 7 -9 13 -15 13 -5 0 -7 4 -4
9 4 5 -4 7 -16 3 -20 -5 -20 -6 -3 -12 16 -6 16 -7 2 -13 -19 -7 -36 11 -32
36 2 9 -1 15 -6 11 -5 -3 -6 -10 -3 -16 5 -8 1 -9 -12 -5 -18 7 -18 6 -2 -6
10 -8 15 -17 11 -20 -3 -4 -13 -2 -20 5 -9 7 -17 8 -21 2 -6 -8 -27 -11 -34
-4 -8 7 -68 6 -68 -1 0 -5 -5 -9 -11 -9 -5 0 -7 4 -4 10 3 6 1 10 -5 10 -7 0
-9 -7 -6 -16 3 -9 6 -18 6 -21 0 -4 9 2 20 12 15 13 20 14 20 5 0 -11 3 -11
12 -2 15 15 29 15 25 0 -1 -7 8 -13 21 -14 12 -1 25 -3 30 -4 4 -1 10 -2 15
-1 4 0 7 -4 7 -9 0 -6 -5 -10 -11 -10 -5 0 -7 -4 -4 -10 3 -5 1 -10 -5 -10 -7
0 -10 7 -7 15 4 8 2 17 -2 20 -14 8 -23 -26 -11 -40 8 -9 8 -15 0 -20 -6 -4
-9 -1 -8 7 2 7 -2 12 -9 11 -8 -2 -10 4 -6 15 6 14 4 15 -8 6 -11 -9 -17 -9
-28 3 -12 13 -11 14 8 8 22 -7 30 10 9 17 -21 7 -65 -7 -50 -16 6 -4 12 -12
12 -18 0 -5 -9 0 -21 13 -14 16 -19 18 -15 7 2 -9 -2 -19 -9 -22 -11 -4 -12 0
-5 19 9 23 6 29 -12 26 -5 0 -9 9 -9 22 -1 17 -2 18 -6 4 -2 -9 -10 -15 -16
-11 -7 3 -3 -1 7 -10 10 -8 23 -13 27 -10 5 3 6 -2 2 -11 -5 -13 -7 -14 -14
-3 -10 15 -40 1 -47 -23 -3 -9 2 -7 17 5 18 17 21 17 15 3 -3 -9 -10 -17 -15
-17 -5 0 -9 -8 -10 -17 0 -12 -4 -8 -11 10 -5 15 -17 27 -25 27 -12 0 -13 -3
-4 -14 9 -11 9 -16 0 -22 -7 -4 -9 -3 -6 3 4 6 0 16 -8 23 -18 15 -18 10 -5
-24 5 -14 7 -26 4 -26 -3 0 -10 13 -15 30 -6 16 -15 27 -20 24 -5 -3 -6 -11
-2 -17 3 -7 -4 -3 -17 8 l-23 20 8 -25 c6 -23 6 -23 -6 -7 -8 9 -24 19 -37 22
-20 3 -22 1 -17 -18 5 -20 4 -19 -9 3 -14 24 -17 24 -20 1 0 -5 -5 -13 -10
-18 -5 -5 -6 -3 -2 5 4 6 3 12 -3 12 -5 0 -12 -8 -14 -17 -4 -17 -5 -17 -6 0
0 10 6 20 15 24 13 5 13 7 2 14 -16 11 -28 11 -27 2 3 -21 -2 -33 -12 -27 -8
4 -7 9 2 15 11 7 10 9 -3 9 -26 0 -30 -17 -8 -33 19 -13 20 -15 3 -21 -9 -4
-14 -4 -10 0 7 8 -42 54 -58 54 -15 0 -37 39 -29 52 5 7 3 8 -5 4 -7 -5 -10
-14 -7 -22 3 -7 1 -16 -5 -20 -12 -7 7 -34 24 -34 7 0 7 4 -1 12 -23 23 -12
27 13 4 14 -13 25 -29 25 -35 0 -7 4 -10 9 -6 5 3 12 2 15 -3 3 -5 -2 -9 -11
-9 -9 0 -18 9 -21 19 -2 10 -9 18 -14 18 -5 0 -7 -4 -4 -8 2 -4 -4 -9 -15 -9
-11 -1 -17 3 -13 9 4 6 1 9 -7 6 -8 -3 -13 -11 -11 -17 3 -15 -23 -25 -44 -17
-13 5 -14 9 -4 21 8 10 9 15 2 15 -6 0 -14 -4 -17 -10 -3 -5 -16 -8 -28 -6
-12 1 -28 -4 -36 -12 -13 -12 -17 -11 -34 12 -10 14 -24 26 -30 26 -8 0 -7 -4
1 -12 15 -15 15 -28 1 -28 -5 0 -8 4 -4 9 3 5 1 12 -4 15 -5 3 -16 -11 -25
-32 -16 -35 -16 -20 -1 23 6 17 4 17 -12 -3 -18 -22 -21 -23 -36 -7 -15 15
-21 13 -19 -6 1 -3 -5 -6 -13 -6 -8 0 -12 4 -9 9 3 4 0 8 -6 8 -6 0 -8 12 -5
30 3 18 1 30 -5 30 -6 0 -9 -4 -6 -9 3 -5 -6 -8 -19 -8 -22 0 -24 2 -13 16 11
14 11 14 -3 4 -9 -7 -18 -11 -21 -8 -3 3 -11 -1 -18 -10 -10 -12 -16 -12 -34
-3 -26 15 -48 19 -41 8 6 -9 -25 -23 -33 -15 -3 3 0 5 5 5 13 0 11 25 -2 37
-4 4 -6 3 -2 -2 3 -6 2 -17 -3 -25 -7 -12 -11 -12 -26 1 -15 12 -17 12 -9 0 6
-11 4 -13 -8 -8 -11 4 -14 2 -11 -7 3 -8 0 -17 -6 -21 -6 -3 -9 -3 -8 2 2 4 0
9 -4 11 -5 1 -8 0 -8 -3 0 -3 0 -9 0 -15 0 -14 45 -6 46 8 1 7 2 15 3 19 0 4
8 -2 17 -13 8 -10 13 -14 10 -9 -2 6 4 11 14 11 10 0 16 -5 13 -11 -2 -5 4 0
14 13 10 13 22 20 26 16 11 -11 8 -26 -3 -19 -5 3 -10 2 -10 -4 0 -5 5 -13 10
-16 6 -3 10 -2 10 4 0 5 9 8 20 6 11 -2 22 0 25 5 3 5 14 7 25 5 11 -2 20 1
20 8 0 8 3 8 12 -1 9 -9 9 -17 0 -34 -12 -23 -12 -23 -6 2 6 23 5 24 -11 9
-14 -14 -15 -20 -3 -38 17 -27 28 -27 29 2 1 19 2 19 6 3 3 -13 -3 -26 -18
-37 l-24 -18 23 2 c12 1 22 4 22 7 0 3 6 14 13 24 11 15 13 14 15 -11 1 -19
-1 -24 -7 -15 -7 11 -9 10 -15 -3 -3 -9 -11 -13 -17 -9 -7 4 -9 3 -5 -4 3 -5
0 -12 -6 -15 -7 -2 -9 -8 -5 -13 4 -5 12 -2 16 5 7 10 14 11 32 1 21 -10 22
-10 7 3 -23 18 -23 22 2 24 11 1 18 -2 16 -6 -3 -4 -1 -13 4 -20 6 -11 11 -8
20 9 7 12 8 20 2 16 -5 -3 -16 2 -23 11 -8 10 -9 14 -2 10 6 -4 14 -3 18 3 3
5 -2 10 -12 11 -11 0 -13 3 -5 6 6 2 9 10 6 16 -5 9 -4 9 5 1 7 -6 14 -20 15
-30 2 -11 11 -20 22 -22 12 -2 15 0 8 5 -9 6 -7 12 4 23 14 13 15 12 9 -3 -3
-9 -2 -19 3 -22 6 -4 11 -1 11 4 1 6 2 17 3 24 1 6 -2 15 -7 18 -5 4 3 7 18 7
22 -1 25 -2 12 -10 -22 -12 -10 -37 16 -33 11 3 26 0 33 -6 9 -7 16 -5 24 11
6 12 14 19 17 16 3 -3 0 -12 -7 -21 -7 -8 -8 -15 -2 -15 5 0 15 7 22 16 16 18
51 38 49 27 -3 -20 2 -34 11 -28 6 4 8 11 5 16 -3 5 1 6 9 3 13 -5 12 -9 -7
-24 -28 -22 -57 -22 -50 -1 3 10 2 12 -4 5 -4 -6 -18 -16 -29 -22 -17 -9 -24
-8 -34 3 -7 8 -18 15 -24 15 -6 0 -3 -6 6 -14 14 -10 15 -15 5 -26 -9 -10 -9
-11 1 -6 7 4 12 2 12 -5 0 -7 6 -4 14 7 14 18 15 18 21 1 7 -17 8 -17 21 0 7
10 14 15 14 10 0 -12 78 31 88 50 9 14 10 14 17 -6 3 -11 11 -19 16 -16 5 4 9
1 9 -5 0 -6 4 -9 9 -6 5 3 14 0 20 -7 8 -10 7 -14 -4 -14 -8 0 -12 3 -10 7 2
3 -19 6 -47 6 -41 -1 -52 -5 -54 -19 -1 -9 2 -15 7 -11 5 3 6 10 3 16 -4 6 -1
8 7 6 8 -3 13 -12 11 -19 -2 -8 0 -11 4 -7 4 4 13 3 21 -4 7 -6 16 -8 20 -5 3
4 13 1 22 -5 9 -7 5 0 -8 15 -29 32 -17 36 15 6 l23 -21 25 27 c15 16 30 24
37 19 9 -5 10 -2 6 9 -4 12 -2 14 10 10 10 -4 14 -2 10 4 -4 6 2 10 13 9 22
-1 23 -21 2 -21 -8 0 -19 -8 -26 -17 -10 -13 -15 -15 -24 -6 -7 7 -12 8 -12 2
0 -5 9 -15 21 -22 12 -8 18 -9 15 -4 -3 5 5 10 19 9 14 0 23 -3 20 -7 -2 -3 2
-7 10 -7 8 0 16 6 19 12 2 7 -6 11 -25 10 -17 -1 -32 2 -35 7 -3 4 14 8 38 9
24 0 37 3 30 6 -6 2 -10 9 -7 13 3 5 -4 15 -16 24 -22 15 -22 15 -1 13 11 0
19 -4 17 -7 -6 -9 24 -44 32 -37 4 4 1 13 -5 19 -7 7 -12 16 -12 22 0 5 11 -4
23 -22 23 -30 41 -35 31 -7 -3 7 -1 16 5 20 7 3 8 0 5 -9 -4 -10 -1 -16 7 -16
11 0 11 -3 -1 -11 -12 -8 -10 -9 10 -7 36 4 53 29 31 46 -14 11 -13 12 7 2 22
-11 30 -30 12 -30 -5 0 -10 -4 -10 -10 0 -14 21 -8 44 13 11 9 25 17 30 17 6
0 3 -7 -6 -14 -10 -7 -15 -16 -11 -20 3 -3 16 2 27 11 19 16 19 16 7 1 -11
-15 -10 -17 16 -15 15 1 33 9 40 17 7 8 13 10 13 5 0 -6 9 -11 19 -12 11 -1
19 4 17 10 -1 7 -1 8 2 4 2 -4 10 -3 18 4 10 8 14 8 14 0 0 -6 -5 -11 -11 -11
-5 0 -8 -4 -5 -9 8 -13 36 -7 47 10 7 11 9 11 9 1 0 -7 5 -10 10 -7 6 4 8 10
6 14 -3 4 0 13 6 21 8 12 9 11 4 -3 -5 -15 -2 -17 13 -12 11 3 23 0 27 -6 5
-9 2 -10 -9 -6 -9 3 -26 -2 -39 -12 -13 -10 -31 -17 -41 -15 -9 1 -15 -1 -12
-5 2 -4 -2 -8 -10 -8 -8 0 -11 5 -8 10 4 6 1 7 -7 2 -9 -6 -11 -4 -5 6 5 8 4
11 0 6 -12 -10 -17 -47 -7 -47 4 0 13 5 20 12 9 9 12 9 12 0 0 -6 -8 -16 -17
-21 -10 -6 -13 -11 -6 -11 6 0 15 5 19 11 3 6 18 8 33 5 26 -6 26 -6 3 7 -27
15 -18 31 10 16 10 -5 23 -7 29 -3 7 4 9 -1 4 -15 -4 -13 -2 -21 5 -21 6 0 9
4 6 8 -2 4 5 14 16 21 18 11 20 11 15 -3 -4 -10 -1 -13 8 -9 8 3 12 9 9 14 -3
5 -1 9 5 9 5 0 13 -10 17 -22 l7 -23 9 24 c7 19 11 21 23 11 10 -8 12 -17 6
-24 -7 -8 -4 -12 9 -12 15 0 16 4 9 19 -8 15 -7 18 7 15 24 -4 52 -30 46 -42
-3 -5 0 -6 7 -2 6 4 9 11 6 16 -3 5 -1 11 5 15 5 3 10 0 10 -7 0 -10 2 -10 9
1 5 7 14 11 20 7 7 -5 8 -1 4 11 -6 16 -5 16 10 4 9 -7 14 -17 11 -22 -3 -5
-1 -9 5 -9 5 0 11 6 14 13 3 9 8 8 22 -3 18 -14 18 -14 2 11 -10 14 -14 29
-10 32 3 4 1 7 -6 7 -8 0 -11 -6 -7 -16 5 -14 4 -15 -9 -4 -8 7 -15 9 -15 5 0
-4 -8 -1 -17 6 -14 12 -16 12 -8 0 6 -10 4 -12 -5 -6 -9 5 -11 4 -6 -3 5 -8 2
-10 -8 -6 -9 3 -16 10 -16 15 0 5 -5 9 -11 9 -8 0 -8 -4 1 -15 12 -15 6 -35
-12 -35 -7 0 -7 4 1 14 9 11 6 13 -14 11 -14 -2 -23 1 -20 6 4 5 -2 6 -12 3
-14 -4 -15 -3 -4 4 9 7 10 12 2 16 -6 4 -14 0 -17 -9 -5 -12 -9 -13 -14 -5 -5
8 -13 9 -21 4 -20 -12 -49 -12 -49 0 0 7 -3 7 -8 1 -4 -5 -20 -11 -37 -12 -27
-2 -28 -1 -12 11 9 7 34 12 55 10 36 -4 36 -3 17 12 -19 16 -19 16 -1 10 12
-4 26 0 38 10 10 10 21 14 25 11 3 -4 1 -7 -6 -7 -7 0 -9 -5 -6 -10 4 -6 1 -9
-6 -8 -6 2 -13 -2 -16 -8 -5 -14 29 -13 39 0 4 6 14 4 24 -5 15 -12 16 -12 10
9 -5 15 -3 22 5 22 7 0 9 -3 6 -7 -4 -3 -2 -12 4 -19 8 -10 16 -11 30 -3 13 6
25 6 38 -1 16 -8 23 -6 35 12 9 12 16 18 16 12 0 -5 -6 -16 -12 -23 -11 -11
-10 -13 5 -8 20 7 47 -1 47 -15 0 -5 -5 -6 -12 -2 -6 4 -3 -4 8 -18 10 -14 21
-23 24 -18 7 10 40 9 40 -2 0 -15 15 -8 28 13 8 12 9 18 3 15 -5 -4 -15 3 -21
15 -8 15 -9 19 -1 15 6 -4 11 -2 11 4 0 6 5 8 12 4 8 -5 9 -2 5 9 -3 10 -2 17
3 17 16 0 11 -30 -5 -36 -15 -6 -21 -25 -7 -23 4 1 14 1 21 0 12 -1 12 -4 3
-13 -15 -15 -16 -31 -1 -26 6 2 10 7 10 11 -1 4 8 16 20 28 13 13 18 27 14 40
-4 12 -2 19 6 19 7 0 10 -3 6 -6 -3 -4 1 -13 9 -21 8 -8 12 -19 9 -24 -4 -5
-1 -9 4 -9 6 0 10 -3 10 -7 -3 -20 3 -29 21 -30 11 -1 22 2 25 8 4 5 11 9 16
9 6 0 7 -5 4 -10 -3 -5 -1 -10 4 -10 6 0 11 5 11 10 0 6 7 10 16 10 8 0 13 -4
10 -8 -3 -5 2 -9 10 -9 10 0 11 4 4 11 -14 14 -12 26 4 20 8 -3 22 9 34 30 12
20 27 36 34 36 6 0 3 -6 -7 -14 -18 -13 -18 -14 3 -25 13 -7 23 -8 27 -1 10
16 45 32 45 21 0 -5 -9 -13 -20 -16 -11 -4 -18 -11 -14 -16 4 -6 10 -6 19 1 9
7 16 6 24 -4 10 -12 9 -14 -6 -12 -18 3 -50 -30 -39 -41 3 -4 6 -1 6 6 0 7 5
9 12 5 6 -4 8 -3 5 3 -4 6 0 13 8 16 9 4 12 1 8 -9 -3 -7 0 -14 7 -14 6 0 9 4
5 9 -3 5 -1 12 5 16 7 4 7 13 -1 26 -6 12 -8 23 -5 27 3 3 6 0 6 -6 0 -7 5
-12 11 -12 6 0 8 9 4 20 -4 12 -2 20 5 20 6 0 9 -4 6 -9 -3 -5 1 -14 9 -21 11
-10 18 -10 29 -1 11 9 15 9 19 -1 2 -7 8 -10 12 -6 4 4 4 13 -1 21 -5 7 -1 4
9 -6 9 -11 17 -27 16 -36 0 -12 -2 -12 -9 4 -7 17 -9 17 -9 3 -1 -10 -6 -18
-12 -18 -5 0 -8 4 -4 9 7 13 -12 24 -26 15 -8 -5 -8 -8 0 -14 9 -5 7 -11 -4
-20 -14 -12 -16 -12 -15 1 4 25 0 39 -11 39 -5 0 -7 -5 -3 -12 4 -6 3 -8 -2
-5 -5 3 -10 -3 -10 -13 0 -11 2 -17 5 -15 2 3 11 -1 19 -8 12 -9 16 -9 19 0 4
10 7 10 18 0 7 -7 10 -16 7 -21 -3 -5 0 -6 7 -2 9 6 9 11 -1 24 -11 13 -11 15
4 10 9 -4 23 0 31 10 20 22 22 33 6 43 -8 4 -11 10 -8 13 3 3 16 -2 30 -12 27
-19 49 -24 49 -12 0 5 9 12 20 15 11 4 18 11 15 16 -3 5 1 6 11 2 14 -5 13 -8
-7 -19 -13 -7 -20 -13 -15 -14 5 0 3 -6 -3 -13 -6 -8 -8 -17 -4 -20 3 -4 1 -7
-5 -7 -7 0 -12 4 -12 8 0 5 -7 9 -15 9 -8 0 -12 -4 -9 -8 2 -4 -2 -9 -8 -12
-7 -2 -9 -8 -5 -13 4 -5 12 -2 16 5 7 10 13 11 31 1 16 -9 25 -9 33 -1 14 14
30 14 22 1 -3 -5 -1 -10 4 -10 6 0 11 5 11 10 0 6 7 10 16 10 8 0 13 -4 10 -8
-3 -5 2 -9 10 -9 10 0 11 4 4 11 -5 5 -10 15 -10 21 1 5 9 1 18 -10 22 -24 40
-29 57 -15 8 7 15 7 19 1 3 -5 0 -12 -6 -14 -10 -4 -10 -6 0 -6 7 -1 17 10 23
23 7 14 17 22 24 20 7 -3 19 2 28 10 12 12 17 13 21 3 4 -6 4 -2 2 10 -2 15 0
20 10 16 7 -2 10 -11 8 -18 -7 -17 12 -29 22 -14 5 8 3 9 -7 4 -11 -6 -12 -5
-1 6 16 17 15 29 -2 29 -20 0 -29 17 -15 26 8 4 9 3 5 -4 -4 -7 -1 -12 7 -12
18 0 51 -36 43 -48 -5 -9 14 -30 43 -47 9 -5 12 -4 7 3 -10 17 13 25 30 11 13
-11 19 -10 32 8 10 11 24 19 32 18 38 -7 45 -11 50 -27 4 -15 7 -14 16 6 8 18
8 24 0 22 -6 -2 -8 -1 -3 1 4 3 4 9 1 14 -3 6 -12 2 -21 -8 -8 -10 -12 -12 -8
-6 3 8 1 11 -7 10 -7 -2 -10 -2 -5 0 4 3 5 8 2 12 -2 5 7 7 21 5 18 -2 24 1
20 11 -7 19 13 30 26 17 8 -8 18 -8 32 -1 20 10 21 10 2 -5 -13 -11 -23 -13
-30 -6 -19 19 -29 10 -11 -10 17 -19 17 -21 0 -46 l-18 -27 34 23 c21 15 31
19 27 9 -4 -9 1 -14 16 -14 14 0 22 6 22 17 0 12 -4 14 -12 7 -8 -7 -14 -6
-19 1 -3 6 -11 8 -16 5 -17 -11 -9 8 8 21 13 9 22 9 30 2 16 -13 17 4 1 20 -8
8 -8 12 -1 12 6 0 14 -8 18 -17 6 -16 8 -15 20 7 8 14 14 21 14 15 1 -5 -3
-17 -8 -24 -13 -20 6 -54 25 -47 16 6 19 -5 4 -20 -7 -7 -6 -11 4 -11 8 0 13
4 11 8 -12 19 71 32 94 15 11 -8 15 -8 18 2 3 6 9 10 13 7 5 -3 6 -13 3 -22
-6 -15 -5 -16 9 -3 14 13 14 16 -1 26 -8 7 -23 10 -33 9 -10 -2 -18 1 -18 7 0
5 7 8 15 5 8 -4 17 -2 20 2 3 5 -2 12 -11 15 -18 7 -47 -6 -44 -20 1 -5 -3 -9
-9 -11 -7 -1 -8 0 -1 4 5 2 7 9 4 14 -3 6 -12 5 -21 -3 -8 -6 -29 -13 -46 -14
-19 -2 -26 0 -18 5 11 7 11 9 0 13 -10 3 -9 10 4 28 13 19 17 21 17 7 0 -9 -5
-17 -12 -17 -16 0 -1 -13 18 -16 9 -2 19 6 21 17 3 10 9 19 14 19 5 0 5 -7 2
-17 -5 -12 -3 -14 8 -7 8 4 21 9 29 9 8 0 14 5 13 12 -2 7 4 10 12 7 8 -4 12
-10 9 -15 -3 -5 0 -9 5 -9 6 0 11 5 11 10 0 6 5 10 11 10 8 0 8 -5 -1 -15 -23
-28 9 -17 37 13 20 20 23 22 15 6 -11 -21 -7 -34 9 -34 5 0 6 8 2 18 -3 9 4 5
16 -10 22 -27 21 -48 -1 -48 -6 0 -5 7 3 17 12 14 12 16 0 8 -10 -6 -12 -4 -6
5 5 9 4 11 -4 6 -6 -4 -9 -12 -6 -17 4 -5 1 -9 -4 -9 -6 0 -11 7 -11 16 0 8
-5 12 -10 9 -6 -4 -7 -11 -4 -17 4 -7 2 -8 -5 -4 -6 4 -9 12 -6 17 8 11 -6 11
-24 0 -11 -7 -8 -11 10 -16 13 -5 24 -6 25 -4 0 2 8 -2 17 -10 9 -7 23 -11 31
-8 8 3 16 1 18 -5 2 -6 11 -12 20 -14 11 -1 15 6 13 27 -1 16 2 29 7 29 17 0
59 -50 52 -62 -4 -7 -3 -8 4 -4 9 5 9 13 2 27 -9 15 -7 19 5 19 10 0 13 -5 9
-12 -4 -7 -3 -8 4 -4 19 12 2 33 -24 30 -16 -1 -22 2 -17 9 3 7 3 9 -2 5 -4
-4 -14 -3 -21 3 -9 7 -19 7 -32 0 -16 -8 -21 -6 -30 14 -9 20 -9 23 3 18 8 -3
12 -9 9 -14 -3 -5 2 -9 11 -9 11 0 15 5 11 15 -7 20 -1 19 20 -2 22 -22 35
-23 52 -3 11 13 13 13 26 -2 17 -23 26 -23 26 1 0 27 30 36 37 11 5 -21 32
-24 45 -5 4 5 10 6 15 2 4 -5 1 -12 -7 -17 -9 -6 -10 -10 -3 -10 7 0 17 8 23
18 11 16 11 16 6 0 -7 -22 10 -33 18 -12 3 8 10 13 15 10 5 -3 12 1 15 10 4
12 1 14 -13 9 -22 -7 -37 10 -20 21 8 4 9 3 5 -4 -5 -8 1 -11 16 -9 16 1 22
-2 19 -13 -10 -36 -5 -74 9 -77 9 -3 11 -1 5 4 -17 14 -14 42 4 35 14 -5 14
-4 2 11 -15 19 -15 19 16 22 12 1 20 -2 17 -6 -3 -5 -1 -9 4 -9 5 0 12 9 15
21 5 17 9 19 25 10 11 -6 22 -7 26 -3 4 3 4 -2 0 -12 -6 -14 -4 -17 6 -11 24
15 68 15 74 0 3 -8 11 -15 17 -15 7 0 5 10 -6 26 -11 18 -14 29 -7 36 12 12
32 2 31 -15 0 -9 -2 -9 -6 1 -5 13 -23 17 -23 5 0 -5 9 -19 20 -33 12 -15 18
-18 14 -7 -4 10 -1 17 6 17 6 0 9 -4 5 -9 -3 -5 -1 -12 5 -16 5 -3 10 -1 10 4
0 6 3 10 8 10 20 -3 32 2 26 13 -4 7 -3 8 4 4 6 -4 20 -2 31 3 15 8 20 7 26
-7 4 -12 -3 -25 -23 -43 l-29 -26 31 0 c17 0 25 2 19 5 -22 7 -14 20 12 20 13
0 22 -4 20 -8 -3 -4 2 -10 10 -13 8 -4 12 -1 9 6 -2 8 4 13 17 14 17 2 18 -1
9 -13 -9 -10 -9 -14 -1 -14 6 0 11 5 11 10 0 6 4 10 10 10 5 0 7 -8 4 -17 -5
-17 -5 -17 5 -1 8 11 20 15 37 12 18 -3 25 -1 22 8 -3 7 -14 12 -26 12 -12 -1
-20 2 -17 6 2 3 -9 6 -26 6 -16 0 -29 -3 -29 -6 0 -4 -7 -7 -15 -7 -8 0 -12 4
-9 9 8 12 -10 10 -26 -5 -12 -10 -12 -9 -1 5 11 15 9 22 -9 50 l-21 33 26 -32
27 -33 20 23 20 22 -16 -27 c-9 -16 -12 -28 -7 -28 15 0 41 42 34 53 -3 6 -1
7 5 3 7 -4 12 -2 12 5 0 7 3 9 6 6 4 -4 1 -13 -5 -21 -9 -10 -9 -21 -3 -32 6
-11 11 -13 16 -5 4 6 2 11 -4 11 -6 0 -8 5 -4 11 5 8 10 6 16 -5 5 -9 23 -23
40 -32 24 -12 28 -18 17 -25 -9 -6 -10 -9 -2 -9 6 0 15 5 18 10 3 6 11 10 17
10 7 0 6 -6 -2 -15 -7 -8 -9 -15 -5 -15 4 0 1 -8 -6 -17 -13 -16 -12 -17 3 -5
10 8 16 19 15 25 -1 7 6 11 15 9 9 -1 19 2 23 8 10 15 23 12 28 -7 4 -17 5
-17 6 0 0 10 5 16 10 12 6 -3 8 3 6 15 -2 11 0 22 4 25 5 2 7 17 5 32 -4 27
-3 27 4 3 5 -15 15 -25 27 -25 20 0 23 -13 10 -50 -6 -16 -5 -17 4 -5 10 13
12 13 22 0 9 -13 10 -12 5 2 -3 10 -1 20 4 23 6 4 10 2 10 -3 0 -6 7 -13 16
-16 14 -5 15 -4 4 9 -8 9 -8 15 -2 15 6 0 14 -5 17 -10 4 -6 11 -8 16 -5 11 7
12 -7 2 -21 -5 -5 -1 -3 7 6 22 23 45 19 44 -8 -1 -13 1 -20 5 -17 6 6 7 10
10 36 0 5 5 8 10 4 5 -3 12 -1 16 5 4 7 13 7 26 0 11 -6 25 -8 31 -4 7 5 9 2
5 -9 -3 -9 -3 -19 2 -21 4 -3 7 8 7 25 0 20 -3 26 -10 19 -5 -5 -15 -10 -20
-10 -6 0 -5 4 3 9 9 6 10 11 2 15 -6 4 -11 2 -11 -3 0 -6 -4 -11 -9 -11 -13 0
-8 21 12 50 13 19 17 21 17 7 0 -9 5 -17 10 -17 6 0 10 7 10 16 0 10 8 7 26
-13 14 -16 24 -21 21 -12 -4 13 0 16 16 12 18 -4 19 -3 7 6 -13 9 -13 11 3 11
9 0 17 -3 17 -7 0 -11 -20 -40 -20 -29 0 5 -6 3 -14 -3 -10 -9 -16 -8 -26 4
-7 8 -17 15 -22 15 -7 0 -7 -5 0 -13 6 -7 9 -25 8 -39 l-3 -27 28 20 c16 11
29 17 29 13 0 -3 7 -1 15 6 8 7 13 16 10 20 -3 5 -1 12 5 15 6 4 8 16 5 28 -5
21 -4 21 7 -1 6 -13 17 -21 25 -18 10 4 11 1 3 -14 -12 -22 -4 -47 15 -47 8 0
12 4 9 8 -2 4 0 10 6 14 10 6 14 -7 11 -32 -1 -7 3 -13 8 -13 10 0 7 38 -4 48
-10 10 -35 11 -29 1 3 -5 0 -9 -6 -9 -7 0 -10 6 -7 13 2 6 10 11 17 9 8 -2 10
3 6 13 -3 9 -2 13 4 10 6 -3 10 -1 10 4 0 17 27 13 34 -4 3 -8 11 -15 17 -15
7 0 9 3 6 6 -9 9 12 46 22 39 11 -6 24 25 15 34 -4 3 -9 0 -11 -7 -4 -10 -8
-10 -21 0 -13 11 -15 11 -10 -3 3 -9 2 -22 -4 -30 -8 -11 -9 -11 -5 2 5 16
-24 71 -38 71 -15 0 -23 -26 -15 -48 10 -25 3 -34 -23 -30 -24 3 -31 14 -20
28 17 21 12 47 -9 45 -18 -1 -26 -17 -8 -17 6 0 10 -5 10 -11 0 -8 -5 -7 -16
2 -13 11 -15 10 -12 -6 1 -10 -4 -20 -12 -22 -12 -4 -12 -3 -1 5 8 6 9 12 3
16 -11 6 -31 -13 -29 -29 0 -5 -7 -11 -16 -13 -9 -2 -17 1 -17 7 0 6 7 8 15 4
9 -3 15 -2 14 3 -4 17 13 44 28 44 10 0 13 6 9 16 -4 10 -2 13 6 8 7 -5 8 -3
3 7 -7 12 -6 12 7 1 19 -15 31 -3 17 18 -6 11 -9 12 -9 2 0 -7 -4 -11 -10 -7
-5 3 -7 12 -3 20 3 8 0 15 -7 15 -6 0 -9 -4 -5 -9 3 -5 1 -12 -5 -16 -6 -4 -8
-11 -5 -16 4 -5 2 -9 -4 -9 -15 0 -23 18 -11 25 5 3 10 12 10 18 0 7 -5 4 -11
-6 -6 -9 -15 -15 -20 -12 -5 4 -6 12 -3 18 4 7 3 8 -2 4 -5 -5 -9 -14 -9 -20
0 -5 -6 -12 -13 -15 -8 -2 -10 3 -6 15 5 14 4 15 -4 3 -6 -8 -8 -18 -6 -22 3
-4 -2 -8 -11 -8 -9 0 -13 -5 -9 -11 4 -8 9 -8 17 0 15 15 27 14 27 -4 0 -8 5
-15 10 -15 13 0 13 13 0 26 -7 7 -6 11 4 11 8 0 12 -5 9 -10 -3 -6 -1 -7 6 -3
8 6 8 1 -1 -18 -14 -31 -24 -33 -33 -6 -4 11 -11 18 -16 14 -5 -3 -6 -10 -3
-16 4 -6 2 -8 -4 -4 -5 3 -12 3 -15 -1 -2 -5 -2 -3 -1 4 2 7 -1 15 -6 18 -6 4
-10 1 -10 -4 0 -21 -2 -26 -12 -38 -6 -7 -16 -13 -22 -13 -6 0 -4 6 4 13 9 7
15 19 15 27 0 8 7 21 17 28 22 16 23 38 2 46 -15 6 -15 4 -3 -10 12 -15 11
-19 -9 -32 -12 -8 -22 -20 -22 -28 0 -23 -21 -27 -36 -5 -8 12 -20 21 -27 21
-8 0 -8 -3 0 -11 6 -6 9 -18 6 -27 -5 -11 -3 -13 8 -7 11 7 12 6 2 -7 -7 -8
-10 -18 -6 -21 3 -4 1 -7 -5 -7 -7 0 -10 12 -8 30 4 33 -10 50 -37 46 -40 -6
-29 -21 13 -17 13 2 13 0 1 -8 -10 -6 -23 -5 -40 3 -14 7 -34 11 -43 9 -10 -3
-18 1 -18 7 0 6 -5 8 -10 5 -8 -5 -7 -11 1 -21 6 -8 8 -14 4 -14 -4 0 -16 12
-28 26 -19 25 -21 26 -28 8 -7 -17 -8 -17 -8 -1 -1 20 -20 19 -38 -3 -11 -13
-12 -12 -10 7 2 12 7 26 12 30 4 5 5 3 2 -4 -6 -10 11 -11 33 -3 3 1 8 2 12 1
3 0 5 7 3 17 -2 9 -4 23 -4 31 -1 11 -5 10 -15 -4 -8 -11 -11 -26 -8 -35 5
-13 3 -13 -11 -1 -16 13 -16 16 -2 40 15 24 14 24 -11 -4 -29 -32 -59 -43 -50
-19 4 12 2 12 -14 4 -12 -6 -20 -7 -20 -1 0 5 6 12 13 14 6 3 7 6 1 6 -5 1
-21 -14 -34 -31 -14 -19 -16 -27 -7 -19 11 9 17 10 17 2 0 -6 5 -11 11 -11 5
0 8 4 4 9 -3 5 0 13 6 17 7 4 9 3 6 -3 -4 -7 5 -10 23 -8 26 2 28 0 19 -17 -7
-12 -7 -24 -1 -31 6 -7 6 -20 1 -32 l-9 -20 1 20 c2 34 -1 41 -12 25 -8 -12
-9 -9 -4 10 6 24 5 24 -9 6 -9 -11 -16 -15 -16 -9 0 7 5 15 10 18 6 3 10 11
10 17 0 7 -5 7 -14 -1 -7 -6 -22 -8 -32 -5 -16 6 -17 5 -6 -7 6 -7 12 -17 12
-23 0 -5 -7 -1 -16 10 -14 18 -15 18 -8 -6 3 -14 3 -22 -2 -17 -10 10 -13 77
-3 77 5 0 13 9 19 20 7 14 7 20 0 20 -5 0 -10 -7 -10 -16 0 -13 -3 -14 -15 -4
-8 7 -12 17 -8 23 4 6 1 7 -6 2 -9 -5 -10 -10 -2 -18 18 -18 13 -31 -6 -16
-11 10 -14 10 -9 2 4 -7 3 -13 -2 -13 -5 0 -14 10 -21 23 l-11 22 6 -22 c7
-30 -4 -30 -16 0 -9 20 -10 20 -9 2 2 -35 -1 -46 -10 -40 -6 3 -8 14 -6 25 3
13 0 18 -7 14 -8 -5 -9 -1 -5 10 4 10 3 15 -3 11 -13 -8 -4 -56 12 -67 8 -5
18 -1 26 9 9 13 12 14 12 2 0 -12 2 -12 10 1 8 12 10 12 10 1 0 -11 3 -11 17
0 14 12 16 12 8 0 -6 -10 -4 -12 4 -6 10 6 11 3 1 -14 -8 -15 -8 -26 -1 -34 7
-9 6 -17 -1 -27 -8 -12 -9 -12 -4 2 3 11 -2 22 -14 28 -15 8 -20 8 -20 -2 -1
-7 -6 -4 -13 7 -7 11 -18 20 -24 21 -29 2 -33 5 -33 18 0 18 -27 46 -43 46 -8
0 -7 -3 2 -9 8 -5 9 -11 3 -15 -5 -3 -15 1 -22 9 -7 8 -16 12 -21 9 -5 -3 -15
-2 -21 3 -18 11 -32 10 -40 -2 -11 -15 -31 -13 -46 5 -11 13 -11 13 -7 -1 4
-10 0 -16 -10 -16 -8 0 -15 4 -15 8 0 11 -26 5 -44 -10 -18 -15 -21 -31 -5
-31 5 0 7 5 3 12 -5 7 -3 8 6 3 9 -6 11 -4 5 5 -6 9 -4 11 5 5 9 -6 11 -4 5 4
-6 10 -3 11 12 2 11 -6 24 -7 29 -3 5 4 2 -1 -6 -12 -8 -10 -15 -26 -15 -35 0
-9 -7 -16 -15 -16 -8 0 -14 7 -13 15 2 10 -5 16 -17 16 -15 0 -19 -6 -16 -22
4 -18 1 -21 -17 -16 -18 5 -19 6 -4 11 16 6 16 8 1 30 -16 23 -18 23 -30 6
-11 -15 -11 -22 -1 -34 11 -14 10 -14 -5 -2 -19 14 -18 58 1 54 6 -2 11 3 11
10 1 6 9 3 18 -9 l18 -21 17 28 c9 16 12 29 7 29 -6 0 -10 -4 -10 -9 0 -15
-83 -7 -88 9 -5 13 -3 13 14 0 18 -14 18 -14 5 3 -9 12 -17 15 -24 8 -7 -7 -6
-15 2 -25 7 -8 9 -21 5 -28 -4 -7 -7 -26 -6 -42 2 -17 0 -27 -3 -24 -4 3 -7
20 -7 37 -1 17 -4 31 -8 31 -7 0 -23 -38 -22 -51 1 -3 -5 -6 -13 -6 -8 0 -12
4 -9 9 3 4 1 8 -5 8 -5 0 -12 -5 -14 -10 -3 -6 -4 -5 -3 2 2 7 11 12 20 12 18
-2 20 5 6 26 -7 11 -10 11 -10 2 0 -7 -4 -10 -10 -7 -5 3 -10 2 -10 -4 0 -5
-16 -8 -35 -7 -33 3 -34 2 -30 -23 5 -24 5 -24 -4 -4 -10 23 -37 25 -50 4 -6
-9 -11 -8 -21 3 -7 9 -16 13 -21 10 -5 -3 -19 5 -30 18 -15 17 -19 18 -15 6 3
-10 1 -18 -4 -18 -6 0 -10 7 -10 15 0 9 -9 15 -22 15 -26 0 -16 13 12 15 11 1
16 -3 13 -9 -4 -6 2 -4 12 4 10 8 16 10 12 3 -5 -8 -1 -11 13 -8 12 2 23 -2
27 -10 3 -8 9 -12 14 -9 5 3 6 -2 3 -10 -7 -19 3 -21 19 -3 22 23 19 39 -5 31
-19 -6 -21 -5 -11 8 10 12 10 19 -3 34 -15 18 -15 18 -5 -2 10 -21 6 -34 -11
-34 -5 0 -7 4 -4 8 7 12 -12 38 -21 29 -4 -5 -1 -12 6 -16 8 -5 9 -11 3 -15
-14 -8 -35 20 -27 36 4 7 1 6 -7 -3 -7 -9 -18 -14 -25 -12 -7 3 -20 -5 -30
-16 -9 -12 -23 -21 -30 -21 -7 0 -13 -4 -13 -10 0 -12 13 -13 25 -2 6 5 17 1
28 -10 9 -10 13 -18 8 -18 -6 0 -12 4 -16 9 -3 5 -24 8 -46 6 -34 -3 -40 -1
-35 12 5 13 4 14 -9 3 -10 -8 -15 -9 -15 -1 0 17 -37 13 -44 -5 -8 -22 -8 -24
7 -20 6 1 9 1 5 -1 -4 -2 -5 -12 -2 -21 3 -9 -5 -1 -18 18 -23 36 -33 41 -54
28 -6 -4 -14 -4 -18 0 -10 9 -70 10 -76 0 -3 -4 -20 7 -39 24 -23 22 -36 27
-43 20 -8 -8 -15 -7 -25 6 -12 16 -13 15 -7 -3 5 -17 2 -16 -15 5 l-20 25 6
-25 c5 -24 5 -25 -11 -5 -12 15 -15 16 -10 3 6 -18 -10 -19 -35 -4 -10 6 -12
5 -7 -2 4 -7 3 -12 -3 -12 -5 0 -12 8 -14 18 -4 16 -5 16 -6 -1 0 -10 -6 -15
-11 -12 -6 4 -7 12 -4 18 4 7 4 9 -1 5 -4 -4 -15 -2 -24 5 -14 10 -14 10 -4
-4 13 -16 8 -29 -9 -29 -5 0 -6 6 -2 13 6 10 4 10 -7 0 -17 -17 -37 -17 -21
-1 15 15 16 28 2 28 -6 0 -9 -5 -7 -12 1 -7 -7 -12 -19 -13 -11 0 -28 -6 -38
-14 -14 -12 -16 -12 -11 1 8 21 -19 30 -42 13 -25 -20 -38 -18 -22 2 12 15 12
16 -1 7 -8 -5 -24 -9 -35 -9 -11 0 -26 -4 -32 -8 -15 -9 -57 16 -46 27 4 4 -1
4 -12 0 -12 -5 -14 -9 -7 -12 9 -3 10 -8 3 -16 -7 -8 -6 -21 4 -40 20 -37 19
-40 -5 -16 -18 18 -56 18 -45 -1 3 -4 12 -6 19 -3 8 3 16 1 20 -4 9 -14 -28
-7 -54 11 -13 9 -28 13 -34 10 -6 -4 -6 -8 2 -11 7 -2 12 -13 11 -25 l0 -22
-9 21 c-9 22 -40 41 -40 24 0 -6 -7 -10 -15 -10 -7 0 -19 -8 -25 -17 -8 -14
-10 -14 -9 -3 3 28 -1 40 -12 40 -6 0 -8 -9 -4 -22 5 -21 5 -21 -9 2 -17 27
-22 55 -6 30 8 -12 10 -12 10 -1 0 11 3 11 17 0 9 -8 14 -9 11 -4 -4 6 3 12
15 12 20 2 20 1 5 -8 -26 -14 -23 -32 3 -19 23 13 21 35 -4 35 -8 0 -19 4 -23
8 -4 4 -2 7 5 7 7 0 9 5 6 10 -4 6 -14 1 -24 -11 -12 -15 -20 -19 -25 -11 -4
7 -2 12 3 12 13 0 15 27 2 34 -5 3 -15 -2 -22 -12z m410 -23 c-7 -4 -18 -5
-24 -2 -5 4 -6 2 -2 -2 13 -15 41 -15 57 0 19 18 31 17 53 -2 14 -13 17 -13
17 -2 0 11 2 11 9 1 6 -10 10 -10 21 3 7 9 17 12 24 7 13 -10 152 -10 162 0 8
9 55 -22 49 -32 -3 -4 2 -11 11 -14 9 -4 14 -9 11 -13 -10 -9 -38 18 -30 29 3
6 0 8 -8 6 -8 -3 -13 -10 -12 -16 1 -5 -4 -13 -12 -16 -9 -3 -12 0 -9 9 4 9
-1 12 -13 10 -10 -2 -22 -4 -26 -4 -5 -1 -5 -7 -1 -13 4 -7 -2 -4 -14 6 -12
11 -22 14 -22 8 0 -6 -16 -9 -37 -7 -21 1 -44 -2 -52 -8 -10 -9 -18 -6 -32 12
-17 21 -23 20 -21 -1 1 -3 -5 -9 -13 -12 -9 -3 -12 0 -9 9 4 9 -1 12 -13 10
-10 -2 -22 -4 -26 -4 -5 -1 -5 -7 -1 -13 6 -10 4 -10 -7 -2 -18 14 -51 14 -46
0 2 -6 11 -10 21 -8 9 2 16 -1 16 -6 0 -4 -11 -8 -24 -8 -21 0 -24 4 -20 29 3
23 1 27 -10 18 -7 -6 -12 -24 -10 -41 2 -17 -1 -30 -6 -30 -5 0 -7 12 -4 27 4
23 3 25 -11 13 -13 -11 -15 -10 -10 3 4 8 1 18 -5 22 -6 3 -10 3 -9 -2 1 -4 1
-15 0 -23 -1 -13 -3 -13 -10 -1 -5 8 -6 21 -3 30 5 14 4 14 -14 1 -10 -8 -22
-19 -26 -24 -4 -6 -10 2 -13 17 -4 15 -12 27 -18 27 -8 0 -7 4 1 12 8 8 15 8
27 -2 9 -8 20 -9 28 -4 15 11 38 11 54 1 7 -5 22 -2 35 7 12 8 26 13 31 9 5
-3 3 -9 -4 -14z m1336 -9 c8 13 36 -6 34 -24 -3 -21 1 -36 9 -36 4 0 8 10 8
23 -1 27 16 39 20 13 4 -27 -5 -43 -27 -49 -10 -3 -17 -2 -15 2 3 4 1 13 -4
21 -7 12 -11 9 -20 -10 l-10 -25 5 26 c3 18 -1 31 -12 40 -14 12 -15 11 -9 -7
8 -28 -19 -53 -37 -35 -9 10 -8 11 8 5 16 -6 18 -5 8 6 -17 18 -46 22 -40 6 3
-7 1 -19 -4 -27 -8 -12 -10 -12 -8 1 3 26 -1 40 -10 40 -5 0 -7 -10 -5 -22 4
-21 4 -21 -5 -3 -11 26 4 54 26 51 10 -2 27 3 38 11 17 11 22 11 32 -2 7 -11
13 -13 18 -5z m-1815 1 c0 -5 11 -8 25 -7 20 3 23 0 15 -15 -6 -10 -7 -25 -4
-33 3 -9 2 -16 -4 -16 -6 0 -9 11 -7 25 1 14 -2 28 -6 31 -9 5 -11 -4 -11 -46
0 -23 0 -23 -5 -2 -2 12 -8 22 -13 22 -5 0 -11 -10 -13 -22 l-4 -23 -2 23 c0
12 6 25 14 28 18 7 20 25 3 22 -16 -4 -38 -40 -32 -50 3 -5 1 -8 -3 -8 -5 0
-14 9 -21 20 -8 14 -9 20 -1 20 6 0 8 8 5 18 -6 16 -5 16 7 0 12 -15 14 -15
25 3 13 20 32 26 32 10z m-382 -35 c14 -23 17 -38 10 -47 -8 -11 -9 -10 -4 3
4 13 -3 22 -24 33 -32 17 -41 29 -13 18 12 -5 15 -2 10 10 -10 28 0 19 21 -17z
m236 9 c11 -17 14 -31 8 -41 -8 -15 -10 -15 -15 0 -4 10 -3 15 3 11 6 -3 10
-2 10 4 0 17 -17 21 -29 7 -8 -10 -9 -16 -1 -21 5 -3 10 -10 10 -16 0 -5 -8
-1 -18 9 -10 9 -14 20 -9 23 5 4 5 9 -1 13 -6 3 -14 2 -17 -4 -5 -8 -11 -7
-21 1 -10 8 -14 8 -14 0 0 -6 14 -17 30 -26 17 -9 30 -18 30 -21 0 -7 -41 15
-62 34 -12 10 -18 11 -18 3 0 -6 -11 -17 -25 -23 -24 -11 -25 -12 -8 -32 14
-15 14 -18 2 -8 -9 6 -18 9 -22 6 -3 -3 -4 2 -3 11 1 10 11 23 22 29 10 6 19
17 20 24 3 34 4 37 14 22 9 -13 11 -13 20 0 8 12 10 12 10 1 0 -11 3 -11 15
-1 8 7 15 9 15 4 0 -4 5 -3 12 4 17 17 24 15 42 -13z m-454 6 c0 -5 -5 -11
-12 -13 -7 -3 -5 -7 6 -11 9 -4 15 -3 12 2 -3 5 1 14 8 21 12 9 17 7 25 -8 6
-11 8 -22 4 -25 -3 -4 0 -13 7 -22 8 -10 9 -15 1 -15 -6 0 -11 5 -11 10 0 6
-5 10 -11 10 -5 0 -7 -5 -3 -12 5 -7 3 -8 -6 -3 -10 6 -12 3 -8 -13 4 -12 2
-20 -3 -16 -15 9 -10 30 11 49 31 28 16 29 -24 1 -22 -15 -44 -22 -54 -19 -14
6 -15 4 -5 -8 10 -13 10 -16 -1 -16 -18 0 -13 32 5 33 8 1 20 2 27 3 9 1 12
11 8 31 -3 21 0 30 10 30 8 0 14 -4 14 -9z m-275 -11 c3 -5 -1 -10 -10 -10 -9
0 -13 5 -10 10 3 6 8 10 10 10 2 0 7 -4 10 -10z m39 2 c3 -5 -1 -9 -9 -9 -8 0
-12 4 -9 9 3 4 7 8 9 8 2 0 6 -4 9 -8z m1742 -7 c-8 -8 -18 -15 -22 -15 -3 0
-1 7 6 15 7 8 17 15 22 15 5 0 3 -7 -6 -15z m37 0 c-3 -9 -8 -14 -10 -11 -3 3
-2 9 2 15 9 16 15 13 8 -4z m52 5 c3 -5 1 -10 -4 -10 -6 0 -11 5 -11 10 0 6 2
10 4 10 3 0 8 -4 11 -10z m590 -10 c3 -5 1 -10 -4 -10 -6 0 -11 5 -11 10 0 6
2 10 4 10 3 0 8 -4 11 -10z m-1225 -15 c0 -8 -4 -15 -10 -15 -5 0 -7 7 -4 15
4 8 8 15 10 15 2 0 4 -7 4 -15z m177 -7 c-3 -8 -6 -5 -6 6 -1 11 2 17 5 13 3
-3 4 -12 1 -19z m263 -22 c0 -6 -7 -1 -15 10 -8 10 -15 23 -15 28 0 6 7 1 15
-10 8 -10 15 -23 15 -28z m-883 27 c-4 -3 1 -12 11 -20 15 -11 13 -12 -11 -1
-20 8 -24 14 -15 20 16 9 24 10 15 1z m277 -1 c2 -4 -5 -9 -17 -9 -17 -2 -19
0 -7 7 18 12 18 12 24 2z m406 -2 c0 -5 -7 -7 -15 -4 -8 4 -15 8 -15 10 0 2 7
4 15 4 8 0 15 -4 15 -10z m60 0 c0 -5 -2 -10 -4 -10 -3 0 -8 5 -11 10 -3 6 -1
10 4 10 6 0 11 -4 11 -10z m40 6 c0 -2 -7 -7 -16 -10 -8 -3 -12 -2 -9 4 6 10
25 14 25 6z m140 -4 c0 -5 -7 -9 -15 -9 -8 0 -15 4 -15 9 0 4 7 8 15 8 8 0 15
-4 15 -8z m170 0 c0 -5 -7 -9 -15 -9 -8 0 -15 4 -15 9 0 4 7 8 15 8 8 0 15 -4
15 -8z m135 -2 c3 -6 -1 -7 -9 -4 -18 7 -21 14 -7 14 6 0 13 -4 16 -10z m29
-5 c-4 -8 -8 -15 -10 -15 -2 0 -4 7 -4 15 0 8 4 15 10 15 5 0 7 -7 4 -15z m76
11 c0 -2 -7 -6 -15 -10 -8 -3 -15 -1 -15 4 0 6 7 10 15 10 8 0 15 -2 15 -4z
m164 -11 c-4 -8 -8 -15 -10 -15 -2 0 -4 7 -4 15 0 8 4 15 10 15 5 0 7 -7 4
-15z m501 -7 c-9 -6 -19 -7 -22 -4 -4 3 -1 6 6 6 7 0 9 4 6 10 -4 6 1 7 11 3
15 -6 15 -7 -1 -15z m-3799 0 c4 -7 4 -10 -1 -6 -4 4 -15 2 -24 -5 -14 -11
-14 -10 -2 6 16 20 18 21 27 5z m2779 2 c3 -6 -1 -7 -9 -4 -18 7 -21 14 -7 14
6 0 13 -4 16 -10z m385 -11 c0 -5 -4 -9 -8 -9 -5 0 -9 7 -9 15 0 8 4 12 9 9 4
-3 8 -9 8 -15z m900 12 c0 -5 -7 -12 -16 -15 -14 -5 -15 -4 -4 9 14 17 20 19
20 6z m-2680 -27 c0 -17 -16 -19 -26 -2 -5 7 -3 8 6 3 10 -6 12 -4 7 9 -4 10
-3 15 3 11 6 -3 10 -13 10 -21z m166 14 c5 -7 3 -8 -6 -3 -10 6 -12 4 -6 -11
4 -10 4 -15 0 -11 -4 4 -16 -1 -27 -10 -17 -15 -16 -12 3 15 27 36 26 36 36
20z m94 2 c0 -5 -4 -10 -10 -10 -5 0 -10 5 -10 10 0 6 5 10 10 10 6 0 10 -4
10 -10z m335 1 c3 -5 2 -12 -3 -15 -5 -3 -9 1 -9 9 0 17 3 19 12 6z m61 -16
c1 -8 -1 -17 -5 -19 -4 -3 -7 6 -7 19 0 25 8 25 12 0z m358 13 c-5 -8 -1 -9
12 -4 14 5 16 4 7 -5 -13 -13 -37 -3 -28 12 4 5 8 9 11 9 3 0 2 -5 -2 -12z
m123 6 c-3 -3 -12 -4 -19 -1 -8 3 -5 6 6 6 11 1 17 -2 13 -5z m90 0 c-3 -3
-12 -4 -19 -1 -8 3 -5 6 6 6 11 1 17 -2 13 -5z m43 -4 c8 -5 11 -10 5 -10 -5
0 -17 5 -25 10 -8 5 -10 10 -5 10 6 0 17 -5 25 -10z m320 6 c0 -2 -8 -10 -17
-17 -16 -13 -17 -12 -4 4 13 16 21 21 21 13z m108 -15 c-7 -9 -13 -18 -15 -20
-1 -2 -1 5 0 16 0 11 7 20 14 20 10 0 10 -4 1 -16z m157 9 c-3 -5 -1 -10 5
-10 6 0 8 -5 4 -11 -4 -8 -9 -7 -15 2 -7 12 -3 29 7 29 3 0 2 -4 -1 -10z m78
-15 c-7 -21 -12 -19 -10 4 0 11 5 18 9 15 4 -3 5 -11 1 -19z m123 -1 c1 -9 0
-13 -4 -10 -3 4 -7 14 -8 22 -1 9 0 13 4 10 3 -4 7 -14 8 -22z m75 3 c-10 -9
-11 -8 -5 6 3 10 9 15 12 12 3 -3 0 -11 -7 -18z m166 8 c0 -8 -4 -12 -9 -9 -5
3 -6 10 -3 15 9 13 12 11 12 -6z m429 3 c5 -7 3 -8 -6 -3 -10 6 -12 4 -6 -11
5 -14 4 -16 -5 -7 -6 6 -8 16 -5 22 9 14 13 14 22 -1z m498 -27 c-6 -6 -24 19
-24 34 1 6 7 1 15 -9 8 -11 12 -22 9 -25z m-3697 7 c-3 -8 -6 -5 -6 6 -1 11 2
17 5 13 3 -3 4 -12 1 -19z m110 3 c0 -11 -5 -18 -9 -15 -4 3 -5 11 -1 19 7 21
12 19 10 -4z m113 4 c-7 -9 -15 -13 -19 -10 -3 3 1 10 9 15 21 14 24 12 10 -5z
m305 5 c-3 -5 -12 -10 -18 -10 -7 0 -6 4 3 10 19 12 23 12 15 0z m1348 -4 c11
1 16 0 13 -4 -13 -12 -36 -10 -48 6 -11 15 -11 15 2 6 8 -6 23 -10 33 -8z
m1393 -13 c-4 -4 -12 -1 -19 7 -9 10 -9 11 1 6 7 -4 12 -2 13 6 0 11 2 11 6 0
3 -7 2 -16 -1 -19z m-3546 13 c0 -3 -4 -8 -10 -11 -5 -3 -10 -1 -10 4 0 6 5
11 10 11 6 0 10 -2 10 -4z m240 -6 c0 -5 -2 -10 -4 -10 -3 0 -8 5 -11 10 -3 6
-1 10 4 10 6 0 11 -4 11 -10z m314 -5 c-4 -8 -8 -15 -10 -15 -2 0 -4 7 -4 15
0 8 4 15 10 15 5 0 7 -7 4 -15z m290 -1 c3 -8 2 -12 -4 -9 -6 3 -10 10 -10 16
0 14 7 11 14 -7z m277 -1 c12 -16 12 -17 -2 -6 -9 7 -20 9 -24 5 -5 -4 -5 -1
-1 6 9 16 11 15 27 -5z m135 5 c4 -7 3 -8 -5 -4 -6 4 -20 2 -29 -6 -15 -12
-16 -11 -3 5 16 20 27 22 37 5z m265 -11 c-10 -9 -11 -8 -5 6 3 10 9 15 12 12
3 -3 0 -11 -7 -18z m1249 -2 c14 -19 14 -19 -2 -6 -10 7 -18 18 -18 24 0 6 1
8 3 6 1 -2 9 -13 17 -24z m291 2 c-10 -9 -11 -8 -5 6 3 10 9 15 12 12 3 -3 0
-11 -7 -18z m105 1 c19 -23 19 -23 -2 -5 -11 9 -24 14 -27 10 -4 -3 -7 -1 -7
5 0 19 15 14 36 -10z m44 18 c0 -2 -7 -7 -16 -10 -8 -3 -12 -2 -9 4 6 10 25
14 25 6z m565 -6 c-3 -5 -11 -10 -16 -10 -6 0 -7 5 -4 10 3 6 11 10 16 10 6 0
7 -4 4 -10z m-1124 -17 c13 -16 12 -17 -3 -4 -17 13 -22 21 -14 21 2 0 10 -8
17 -17z m754 8 c3 -5 2 -12 -3 -15 -5 -3 -9 1 -9 9 0 17 3 19 12 6z m-3460
-24 c-1 -12 -13 -34 -28 -49 -15 -15 -27 -31 -27 -36 0 -14 -28 -23 -35 -11
-4 5 -2 8 3 7 14 -4 16 4 8 30 -4 12 -12 20 -17 17 -14 -9 -11 1 5 14 10 9 17
7 27 -6 9 -11 10 -14 2 -9 -7 4 -13 2 -13 -3 0 -12 23 -15 33 -4 4 3 3 11 -3
17 -5 7 -5 17 1 26 8 13 9 12 7 -2 -2 -9 0 -17 5 -17 22 -2 28 0 22 9 -6 10 0
40 8 40 1 0 2 -10 2 -23z m59 11 c-5 -8 -1 -9 12 -4 14 5 16 4 7 -5 -13 -13
-37 -3 -28 12 4 5 8 9 11 9 3 0 2 -5 -2 -12z m481 -6 c-3 -3 -11 0 -18 7 -9
10 -8 11 6 5 10 -3 15 -9 12 -12z m2390 8 c3 -6 -1 -7 -9 -4 -18 7 -21 14 -7
14 6 0 13 -4 16 -10z m730 -22 c-8 -5 -15 -13 -15 -19 0 -5 12 -1 27 8 15 10
24 12 20 6 -12 -20 1 -15 23 7 11 11 26 20 33 20 6 -1 1 -7 -12 -14 -15 -8
-20 -16 -12 -20 6 -4 22 4 36 18 14 14 25 21 25 17 0 -5 -7 -14 -15 -21 -9 -7
-14 -19 -11 -26 8 -20 -16 -31 -68 -30 -42 1 -49 4 -52 23 -2 12 1 25 7 28 6
4 3 12 -8 21 -16 13 -15 13 10 2 23 -9 25 -13 12 -20z m-3950 3 c-3 -6 -11 -8
-17 -5 -8 5 -9 1 -4 -12 5 -14 4 -16 -5 -7 -13 13 -3 37 12 28 5 -4 9 -1 9 6
0 7 3 10 6 6 3 -3 3 -11 -1 -16z m184 -8 c6 6 11 8 11 5 0 -3 -6 -11 -14 -17
-11 -9 -17 -5 -30 16 -17 28 -17 28 2 6 14 -16 22 -19 31 -10z m141 23 c0 -2
-7 -7 -16 -10 -8 -3 -12 -2 -9 4 6 10 25 14 25 6z m329 -24 c-5 -2 -6 -9 -2
-15 3 -7 2 -9 -2 -4 -5 4 -10 17 -12 28 -2 16 -1 18 11 7 8 -7 10 -15 5 -16z
m281 7 c0 -5 -4 -9 -8 -9 -5 0 -9 7 -9 15 0 8 4 12 9 9 4 -3 8 -9 8 -15z m240
0 c0 -5 -4 -9 -8 -9 -5 0 -9 7 -9 15 0 8 4 12 9 9 4 -3 8 -9 8 -15z m1167 3
c-10 -10 -16 -21 -15 -23 2 -2 1 -3 -1 -1 -3 1 -6 9 -7 17 -1 8 2 13 6 10 5
-3 11 -1 15 5 3 5 9 10 12 10 3 0 -1 -8 -10 -18z m237 -1 c12 -13 14 -21 6
-26 -6 -4 -9 -1 -8 7 2 7 -2 12 -8 11 -6 -1 -11 5 -11 13 0 18 0 18 21 -5z
m52 2 c-2 -9 -9 -19 -17 -21 -11 -3 -11 -1 1 7 8 6 11 11 7 11 -5 0 -5 5 -2
10 9 15 14 12 11 -7z m174 2 c-14 -17 -30 -20 -30 -4 0 5 4 8 9 4 5 -3 12 -1
16 5 3 5 9 10 12 10 3 0 0 -7 -7 -15z m128 3 c-5 -14 -38 -20 -38 -6 0 6 7 8
15 4 8 -3 15 -1 15 4 0 6 3 10 6 10 3 0 4 -5 2 -12z m110 -8 c-7 -10 -14 -17
-17 -15 -4 4 18 35 25 35 2 0 -1 -9 -8 -20z m647 -3 c-4 -18 0 -23 18 -22 12
0 28 4 35 8 7 5 19 4 27 -3 10 -8 15 -9 15 -2 0 6 -8 16 -17 21 -10 6 -13 11
-7 11 6 0 17 -7 24 -15 10 -12 10 -18 0 -30 -9 -11 -9 -15 -1 -15 7 0 9 -5 6
-10 -9 -14 -27 -1 -21 15 6 16 -21 29 -29 15 -4 -6 -1 -10 4 -10 14 0 14 -27
1 -35 -6 -4 -17 -1 -25 5 -8 6 -18 10 -22 7 -4 -3 -24 8 -43 24 -19 16 -30 29
-24 29 5 0 15 -5 20 -10 8 -8 15 -6 25 6 12 16 12 17 -3 11 -10 -3 -18 -2 -18
3 0 5 8 11 18 13 9 3 18 5 19 6 1 0 0 -9 -2 -22z m-3655 3 c0 -5 -2 -10 -4
-10 -3 0 -8 5 -11 10 -3 6 -1 10 4 10 6 0 11 -4 11 -10z m90 -2 c0 -4 -4 -8
-9 -8 -6 0 -12 4 -15 8 -3 5 1 9 9 9 8 0 15 -4 15 -9z m350 8 c0 -2 -7 -7 -16
-10 -8 -3 -12 -2 -9 4 6 10 25 14 25 6z m70 -30 c-7 -7 -14 -6 -22 3 -11 10
-9 11 7 5 18 -7 19 -6 5 12 -14 18 -14 18 3 5 12 -10 15 -17 7 -25z m170 24
c0 -5 -4 -10 -10 -10 -5 0 -10 5 -10 10 0 6 5 10 10 10 6 0 10 -4 10 -10z m53
-5 c4 -8 1 -17 -5 -21 -7 -4 -8 -3 -4 4 4 7 2 12 -4 12 -6 0 -8 5 -5 10 8 14
12 13 18 -5z m243 0 c-1 -8 -6 -18 -11 -22 -4 -5 -5 -2 0 6 6 11 4 13 -11 8
-18 -7 -18 -7 0 8 24 18 25 18 22 0z m401 -1 c0 -7 -7 -10 -15 -6 -11 4 -13 1
-7 -9 5 -8 4 -11 0 -6 -16 14 -13 33 5 33 9 0 17 -6 17 -12z m183 5 c0 -4 -9
-7 -19 -6 -11 0 -18 4 -16 7 6 9 35 8 35 -1z m134 3 c2 -4 -5 -9 -17 -9 -17
-2 -19 0 -7 7 18 12 18 12 24 2z m90 0 c3 -5 -1 -9 -9 -9 -8 0 -12 4 -9 9 3 4
7 8 9 8 2 0 6 -4 9 -8z m65 -6 c9 -11 9 -16 -1 -22 -7 -4 -10 -4 -6 1 4 4 3
14 -3 22 -6 7 -9 13 -6 13 2 0 10 -6 16 -14z m407 -1 c-1 -8 -6 -18 -11 -22
-4 -5 -5 -2 0 6 6 11 4 13 -11 8 -18 -7 -18 -7 0 8 24 18 25 18 22 0z m404 9
c0 -8 -19 -13 -24 -6 -3 5 1 9 9 9 8 0 15 -2 15 -3z m42 -12 c-7 -2 -9 -9 -5
-15 3 -7 2 -8 -2 -4 -16 14 -14 36 3 29 10 -4 12 -7 4 -10z m431 4 c4 -10 0
-12 -15 -8 -15 4 -17 7 -6 13 17 11 15 11 21 -5z m101 2 c-3 -4 0 -8 7 -8 7 0
9 -3 6 -6 -4 -4 -13 -2 -20 4 -8 7 -17 9 -20 5 -4 -3 -7 -1 -7 5 0 6 9 10 19
9 11 0 17 -5 15 -9z m191 2 c-3 -5 -12 -10 -18 -10 -7 0 -6 4 3 10 19 12 23
12 15 0z m80 0 c-3 -5 -12 -10 -18 -10 -7 0 -6 4 3 10 19 12 23 12 15 0z m190
0 c3 -5 1 -10 -4 -10 -6 0 -11 5 -11 10 0 6 2 10 4 10 3 0 8 -4 11 -10z m155
0 c19 12 30 12 30 2 0 -5 -6 -9 -12 -9 -7 0 -17 -2 -23 -3 -20 -5 -35 0 -35
11 0 8 4 8 13 1 8 -7 18 -7 27 -2z m-3476 -16 c3 -8 2 -12 -4 -9 -6 3 -10 10
-10 16 0 14 7 11 14 -7z m1986 6 c0 -5 -5 -10 -11 -10 -5 0 -7 5 -4 10 3 6 8
10 11 10 2 0 4 -4 4 -10z m-2443 -6 c-3 -3 -12 -4 -19 -1 -8 3 -5 6 6 6 11 1
17 -2 13 -5z m643 -4 c0 -5 -7 -7 -15 -4 -8 4 -15 8 -15 10 0 2 7 4 15 4 8 0
15 -4 15 -10z m83 -5 c-3 -9 -8 -14 -10 -11 -3 3 -2 9 2 15 9 16 15 13 8 -4z
m65 -16 c-3 -8 -7 -3 -11 10 -4 17 -3 21 5 13 5 -5 8 -16 6 -23z m147 21 c-3
-5 -12 -10 -18 -10 -7 0 -6 4 3 10 19 12 23 12 15 0z m75 6 c0 -2 -7 -7 -16
-10 -8 -3 -12 -2 -9 4 6 10 25 14 25 6z m110 -16 c-6 -11 -15 -20 -20 -20 -6
0 -2 9 7 20 10 11 19 20 21 20 1 0 -2 -9 -8 -20z m283 5 c-3 -9 -8 -14 -10
-11 -3 3 -2 9 2 15 9 16 15 13 8 -4z m74 0 c-4 -8 4 -22 18 -34 14 -10 25 -22
25 -26 0 -4 -7 -2 -15 5 -10 8 -15 9 -15 2 0 -6 -10 -16 -21 -23 -15 -8 -19
-8 -15 0 10 16 -5 13 -24 -4 -21 -19 -49 -10 -45 13 1 9 -2 26 -7 37 -8 19 -8
19 5 3 16 -21 32 -24 21 -5 -5 8 -2 8 9 -2 14 -11 20 -11 32 -1 10 9 15 9 15
1 0 -6 7 -11 17 -11 14 0 15 2 1 18 -14 15 -14 42 -1 42 3 0 3 -7 0 -15z m46
-2 c-4 -11 -3 -14 5 -9 8 5 10 1 5 -10 -4 -11 -8 -13 -11 -6 -2 7 -8 9 -14 6
-6 -4 -5 2 1 15 14 25 23 28 14 4z m361 3 c-3 -9 -12 -12 -22 -9 -15 6 -9 11
25 22 1 1 0 -5 -3 -13z m153 8 c-3 -3 -12 -4 -19 -1 -8 3 -5 6 6 6 11 1 17 -2
13 -5z m27 -26 c-4 -14 -2 -18 5 -14 6 4 11 2 11 -4 0 -6 5 -8 10 -5 6 4 5 -5
-2 -20 -6 -14 -17 -24 -24 -21 -8 3 -16 1 -19 -4 -10 -16 -24 -12 -50 15 -14
13 -25 20 -25 15 0 -5 -10 -14 -21 -21 -15 -8 -19 -8 -15 0 11 17 -10 13 -24
-4 -15 -18 -31 -20 -27 -2 3 18 51 59 55 47 2 -6 11 -10 19 -10 14 0 14 3 -2
20 -10 11 -15 20 -11 20 4 0 16 -10 26 -22 16 -20 20 -21 36 -8 11 9 15 10 10
3 -4 -7 -3 -13 3 -13 5 0 12 6 15 13 3 6 4 3 3 -7 -1 -10 3 -21 10 -23 13 -5
11 27 -3 49 -5 7 -3 8 6 3 10 -6 12 -4 7 9 -4 10 -3 15 4 11 5 -4 7 -16 3 -27z
m220 18 c-3 -9 -12 -12 -22 -9 -15 6 -9 11 25 22 1 1 0 -5 -3 -13z m276 4 c0
-5 -2 -10 -4 -10 -3 0 -8 5 -11 10 -3 6 -1 10 4 10 6 0 11 -4 11 -10z m895 0
c8 -13 -5 -13 -25 0 -13 8 -13 10 2 10 9 0 20 -4 23 -10z m-2935 -21 c0 -6 -4
-7 -10 -4 -5 3 -10 11 -10 16 0 6 5 7 10 4 6 -3 10 -11 10 -16z m152 7 c7 4 8
2 4 -4 -11 -18 -26 -14 -25 6 0 10 3 12 6 4 2 -6 10 -9 15 -6z m582 -1 c-4 -8
-13 -15 -22 -15 -13 0 -12 3 4 15 24 18 25 18 18 0z m471 -4 c-3 -6 -11 -11
-16 -11 -5 0 -4 6 3 14 14 16 24 13 13 -3z m405 -21 c-6 -4 -11 -11 -10 -16 1
-5 -4 -10 -12 -12 -9 -2 -8 0 2 7 8 6 11 11 6 11 -6 0 -5 5 1 11 6 6 9 19 6
28 -3 11 -1 11 7 -3 10 -14 10 -20 0 -26z m1828 29 c-2 -6 -8 -11 -13 -11 -6
0 -16 -4 -22 -10 -18 -15 -16 -2 3 16 18 18 37 21 32 5z m-2784 -11 c-5 -7 -2
-9 8 -5 10 3 28 -7 48 -28 30 -31 31 -34 11 -32 -11 1 -21 5 -21 10 0 5 -6 4
-14 -2 -17 -15 -28 -1 -15 19 13 22 11 28 -7 26 -9 0 -19 5 -21 12 -3 6 0 12
7 12 6 0 8 -5 4 -12z m261 -6 c-3 -3 -11 0 -18 7 -9 10 -8 11 6 5 10 -3 15 -9
12 -12z m390 8 c3 -5 12 -7 20 -3 8 3 15 3 15 0 0 -13 -28 -13 -45 -1 -10 8
-14 14 -8 14 7 0 14 -4 18 -10z m175 0 c0 -5 -5 -10 -11 -10 -5 0 -7 5 -4 10
3 6 8 10 11 10 2 0 4 -4 4 -10z m110 0 c0 -5 -5 -10 -11 -10 -5 0 -7 5 -4 10
3 6 8 10 11 10 2 0 4 -4 4 -10z m138 1 c11 -7 11 -9 -1 -14 -16 -6 -27 0 -27
15 0 10 11 10 28 -1z m42 -16 c-12 -14 -10 -15 13 -11 15 2 31 7 37 11 17 11
40 -9 30 -25 -8 -13 -10 -12 -10 3 0 9 -5 17 -10 17 -6 0 -10 -8 -8 -17 2 -11
-2 -17 -11 -15 -8 2 -11 -3 -8 -13 8 -19 -7 -20 -23 0 -11 14 -14 13 -25 -1
-6 -10 -17 -14 -23 -10 -20 12 -13 42 13 54 14 6 25 17 25 23 0 7 3 9 6 6 4
-4 1 -14 -6 -22z m130 15 c0 -5 -4 -10 -10 -10 -5 0 -10 5 -10 10 0 6 5 10 10
10 6 0 10 -4 10 -10z m1824 -2 c-3 -5 -9 -6 -14 -3 -5 3 -11 1 -15 -5 -3 -5
-13 -10 -21 -10 -8 0 -12 5 -9 10 4 6 10 8 15 5 5 -3 11 -2 14 3 3 5 12 9 20
9 8 0 13 -4 10 -9z m-2649 -8 c-3 -5 -12 -10 -18 -10 -7 0 -6 4 3 10 19 12 23
12 15 0z m-275 -10 c0 -5 -6 -10 -12 -10 -9 0 -8 -4 2 -10 8 -5 10 -10 4 -10
-16 0 -23 10 -17 26 6 16 23 19 23 4z m-1240 -4 c0 -3 -4 -8 -10 -11 -5 -3
-10 -1 -10 4 0 6 5 11 10 11 6 0 10 -2 10 -4z m3565 -6 c3 -6 -1 -7 -9 -4 -18
7 -21 14 -7 14 6 0 13 -4 16 -10z m-3439 -28 c-4 -3 -14 2 -24 12 -16 18 -16
18 6 6 13 -6 21 -14 18 -18z m2663 7 c-11 -7 -11 -9 -1 -9 7 0 10 -5 6 -11 -4
-8 -9 -7 -14 2 -10 16 -1 41 12 33 6 -4 5 -10 -3 -15z"/>
<path d="M5057 489 c4 -13 8 -18 11 -10 2 7 -1 18 -6 23 -8 8 -9 4 -5 -13z"/>
<path d="M5087 491 c-10 -14 -10 -14 4 -4 12 10 20 9 38 -4 21 -14 24 -14 39
2 10 10 11 15 5 11 -7 -4 -19 -4 -25 0 -22 14 -48 11 -61 -5z"/>
<path d="M5239 494 c-7 -8 -9 -17 -5 -21 3 -3 6 -2 6 4 0 6 14 9 31 8 22 -2
28 0 20 8 -16 16 -39 17 -52 1z"/>
<path d="M5526 502 c-3 -5 -44 -8 -91 -7 -89 1 -122 -7 -95 -24 10 -7 20 -5
31 5 14 12 18 13 22 2 5 -11 7 -10 15 1 7 9 11 10 17 2 5 -9 10 -9 20 -1 9 8
15 8 20 0 4 -6 13 -7 23 -1 9 4 25 7 34 6 20 -4 33 11 19 19 -5 4 -12 2 -15
-2z"/>
<path d="M6486 492 c-3 -6 -15 -9 -26 -7 -12 2 -18 0 -15 -5 3 -5 14 -7 25 -5
11 2 27 -3 35 -11 19 -19 20 -4 2 21 -9 12 -16 14 -21 7z"/>
<path d="M6546 492 c-3 -6 -1 -14 5 -17 15 -10 25 3 12 16 -7 7 -13 7 -17 1z"/>
<path d="M4551 481 c-8 -6 -9 -11 -3 -15 6 -3 14 -1 17 5 9 14 2 20 -14 10z"/>
<path d="M7080 325 c-7 -8 -5 -12 5 -12 8 0 15 5 15 11 0 7 3 7 8 1 10 -14 32
-17 32 -4 0 8 4 8 14 0 10 -8 16 -9 21 -1 8 12 9 12 -42 15 -24 1 -47 -3 -53
-10z"/>
<path d="M6810 315 c7 -8 16 -12 22 -9 5 3 15 1 23 -6 8 -7 15 -7 19 -1 4 5 2
12 -4 16 -5 3 -10 3 -10 -2 0 -4 -5 -1 -10 7 -9 13 -11 13 -20 0 -6 -10 -10
-11 -10 -2 0 6 -5 12 -11 12 -8 0 -8 -5 1 -15z"/>
<path d="M4501 282 c-1 -7 -5 -10 -11 -7 -6 3 -7 -1 -3 -10 5 -13 7 -14 14 -3
5 7 9 9 9 4 0 -5 6 -3 14 3 7 6 22 9 32 5 18 -5 18 -5 1 6 -13 9 -22 9 -32 0
-10 -8 -14 -8 -18 2 -4 11 -6 10 -6 0z"/>
<path d="M4999 273 c-12 -16 -12 -17 2 -5 9 7 25 10 35 6 16 -5 16 -4 4 5 -20
15 -25 14 -41 -6z"/>
<path d="M5086 282 c-5 -8 20 -26 32 -23 5 2 2 11 -4 10 -4 0 -10 5 -14 11 -5
8 -10 8 -14 2z"/>
<path d="M5153 275 c0 -8 4 -12 9 -9 4 3 8 9 8 15 0 5 -4 9 -8 9 -5 0 -9 -7
-9 -15z"/>
<path d="M4286 274 c-5 -13 -4 -14 7 -6 8 7 18 8 22 4 5 -4 5 -1 1 6 -10 17
-23 15 -30 -4z"/>
<path d="M5345 280 c-3 -5 1 -10 9 -10 9 0 16 5 16 10 0 6 -4 10 -9 10 -6 0
-13 -4 -16 -10z"/>
<path d="M5385 280 c-3 -5 -1 -11 4 -14 5 -4 12 -2 16 4 4 6 12 7 18 4 7 -4 8
-3 4 1 -11 12 -36 15 -42 5z"/>
<path d="M4870 539 c0 -5 5 -7 10 -4 6 3 10 8 10 11 0 2 -4 4 -10 4 -5 0 -10
-5 -10 -11z"/>
<path d="M5415 540 c3 -5 8 -10 11 -10 2 0 4 5 4 10 0 6 -5 10 -11 10 -5 0 -7
-4 -4 -10z"/>
<path d="M5565 539 c-4 -6 -5 -12 -2 -15 2 -3 7 2 10 11 7 17 1 20 -8 4z"/>
<path d="M5655 540 c3 -5 8 -10 11 -10 2 0 4 5 4 10 0 6 -5 10 -11 10 -5 0 -7
-4 -4 -10z"/>
<path d="M6133 538 c1 -7 -4 -12 -12 -10 -12 3 -12 0 -2 -12 11 -13 9 -14 -13
-12 -15 1 -34 11 -42 22 -15 18 -15 17 -2 -6 8 -14 14 -33 12 -42 -2 -14 1
-16 16 -8 9 5 20 7 23 3 4 -3 13 0 22 7 11 9 15 9 15 1 0 -7 9 -6 25 5 23 15
25 15 31 0 6 -15 7 -15 19 0 7 10 18 14 26 10 8 -4 3 2 -11 13 -14 11 -29 21
-33 21 -5 0 -6 4 -3 8 2 4 -4 8 -15 8 -26 0 -24 -3 11 -21 17 -9 28 -21 24
-26 -4 -6 -9 -7 -13 -3 -11 15 -54 37 -46 23 5 -7 3 -10 -6 -7 -8 3 -13 12
-11 22 2 9 -2 16 -8 16 -5 0 -9 -6 -7 -12z m38 -32 c8 5 9 3 5 -5 -5 -7 -14
-10 -22 -7 -7 3 -16 1 -19 -4 -3 -5 -14 -8 -25 -7 -23 1 -16 12 8 12 9 0 16 6
14 14 -3 12 0 12 12 2 8 -7 21 -9 27 -5z"/>
<path d="M6296 541 c8 -8 43 -8 38 0 -2 4 -13 7 -24 6 -10 -1 -17 -3 -14 -6z"/>
<path d="M6384 538 c-3 -4 5 -5 17 -3 30 6 36 14 9 12 -12 -1 -24 -5 -26 -9z"/>
<path d="M6455 541 c-6 -11 13 -26 22 -17 4 3 1 6 -6 6 -7 0 -9 5 -6 10 3 6 4
10 1 10 -3 0 -7 -4 -11 -9z"/>
<path d="M4275 529 c-4 -6 -5 -12 -2 -15 2 -3 7 2 10 11 7 17 1 20 -8 4z"/>
<path d="M4944 523 c2 -13 0 -26 -5 -29 -5 -3 -9 0 -9 5 0 6 -7 11 -15 11 -8
0 -15 5 -15 12 0 6 -2 9 -5 6 -7 -7 16 -58 25 -58 4 0 10 3 14 8 11 10 30 9
38 -3 5 -6 8 -6 8 2 0 6 9 10 20 8 12 -2 18 0 15 6 -4 5 -10 7 -15 4 -4 -3
-11 2 -14 11 -4 12 -2 15 9 10 8 -3 15 -1 15 4 0 17 -28 11 -39 -7 -9 -16 -11
-16 -21 7 -9 22 -10 23 -6 3z"/>
<path d="M6840 535 c0 -5 5 -17 10 -25 5 -8 10 -10 10 -5 0 6 -5 17 -10 25 -5
8 -10 11 -10 5z"/>
<path d="M3814 516 c5 -14 3 -17 -11 -12 -15 6 -16 5 -5 -5 17 -18 35 1 21 21
-9 12 -10 12 -5 -4z"/>
<path d="M7031 523 c1 -4 1 -15 0 -23 -1 -13 -2 -13 -11 0 -5 8 -10 10 -10 5
0 -6 5 -16 12 -23 9 -9 9 -12 -3 -12 -8 0 -20 9 -27 20 -7 11 -20 19 -30 19
-16 -1 -16 -2 1 -6 9 -2 15 -9 11 -14 -3 -5 -9 -7 -14 -4 -15 9 -19 -23 -4
-35 8 -7 15 -9 16 -4 0 5 2 14 3 19 2 6 4 15 5 20 1 6 5 -1 9 -15 5 -18 15
-25 34 -27 14 -1 29 3 32 8 4 5 10 7 15 4 5 -3 11 -1 15 5 3 5 11 10 16 10 6
0 7 -5 3 -12 -5 -7 -3 -8 5 -3 7 4 22 -2 37 -16 19 -18 24 -19 24 -6 0 9 9 22
20 30 18 13 19 16 5 27 -13 11 -14 10 -8 -6 6 -17 5 -17 -10 -5 -9 7 -15 17
-12 21 3 4 -3 14 -13 21 -14 10 -15 10 -5 0 8 -10 7 -17 -8 -32 -25 -25 -32
-24 -19 2 7 11 9 23 7 26 -3 2 -8 -5 -12 -16 -3 -12 -11 -21 -16 -21 -6 0 -7
6 -3 13 5 8 3 8 -9 -2 -9 -7 -14 -18 -10 -24 3 -6 1 -7 -6 -3 -7 5 -9 16 -5
28 4 14 2 18 -5 14 -6 -4 -11 -18 -11 -32 0 -13 -5 -24 -10 -24 -10 0 -7 41 4
59 4 5 2 13 -4 16 -6 4 -10 3 -9 -2z m138 -46 c8 -10 7 -17 -1 -25 -15 -15
-39 3 -31 24 7 18 17 18 32 1z"/>
<path d="M7146 471 c-4 -5 -2 -12 3 -15 5 -4 12 -2 15 3 4 5 2 12 -3 15 -5 4
-12 2 -15 -3z"/>
<path d="M3954 508 c-4 -7 -3 -8 5 -4 17 11 43 -14 36 -33 -5 -13 -4 -13 6 -4
10 10 9 17 -6 33 -21 23 -31 25 -41 8z"/>
<path d="M4017 513 c-3 -5 6 -9 20 -10 19 -1 22 1 12 8 -17 11 -26 11 -32 2z"/>
<path d="M4075 510 c-3 -5 -1 -10 4 -10 6 0 11 5 11 10 0 6 -2 10 -4 10 -3 0
-8 -4 -11 -10z"/>
<path d="M7495 500 c6 -10 4 -12 -8 -7 -11 4 -14 2 -10 -9 3 -7 9 -14 13 -14
13 0 20 29 8 36 -7 5 -8 2 -3 -6z"/>
<path d="M3559 493 c-1 -5 -1 -11 0 -15 0 -5 -3 -8 -9 -8 -5 0 -10 5 -10 12 0
6 -3 9 -6 6 -3 -4 1 -19 10 -35 8 -15 15 -21 16 -13 0 13 1 13 10 0 7 -11 10
-11 10 -2 0 9 5 10 19 3 14 -8 22 -7 31 4 11 14 7 19 -12 16 -13 -2 -9 17 5
22 6 3 2 4 -11 4 -12 -1 -25 -10 -28 -20 -3 -10 -9 -16 -12 -12 -10 10 -9 29
3 37 6 5 6 8 -2 8 -7 0 -14 -3 -14 -7z m66 -35 c5 4 5 2 1 -5 -8 -14 -36 -6
-36 9 0 7 5 6 13 -1 8 -6 18 -7 22 -3z"/>
<path d="M7621 480 c-13 -11 -19 -20 -14 -20 6 0 18 9 28 20 23 25 17 25 -14
0z"/>
<path d="M3075 480 c-3 -5 -1 -10 4 -10 6 0 11 5 11 10 0 6 -2 10 -4 10 -3 0
-8 -4 -11 -10z"/>
<path d="M3157 476 c-4 -10 -1 -13 8 -9 8 3 12 9 9 14 -7 12 -11 11 -17 -5z"/>
<path d="M3340 483 c0 -15 -47 -22 -59 -10 -8 8 -11 7 -11 -1 0 -7 5 -12 11
-12 5 0 7 -4 4 -10 -3 -6 1 -7 9 -4 11 4 16 0 16 -11 0 -20 22 -15 28 6 3 11
2 11 -6 1 -7 -11 -10 -11 -15 2 -4 10 -1 16 8 16 16 0 30 18 21 27 -3 4 -6 2
-6 -4z"/>
<path d="M3387 470 c-7 -26 5 -32 64 -36 32 -2 49 1 49 8 0 7 6 4 13 -7 19
-26 32 -1 14 25 -11 16 -16 18 -20 7 -5 -15 -34 -16 -55 -3 -6 4 -12 4 -12 -1
0 -4 -4 -1 -10 7 -8 12 -10 12 -16 -3 -3 -9 -10 -17 -15 -17 -6 0 -5 9 1 20 6
11 7 20 2 20 -6 0 -12 -9 -15 -20z m67 -21 c3 -3 -5 -5 -19 -5 -13 0 -22 3
-19 7 4 8 30 6 38 -2z"/>
<path d="M3465 481 c-3 -6 3 -9 14 -8 11 0 17 5 15 9 -7 11 -22 10 -29 -1z"/>
<path d="M5980 485 c0 -2 7 -8 15 -15 12 -10 15 -10 15 2 0 8 -7 15 -15 15 -8
0 -15 -1 -15 -2z"/>
<path d="M6385 480 c-3 -5 -2 -10 4 -10 5 0 13 5 16 10 3 6 2 10 -4 10 -5 0
-13 -4 -16 -10z"/>
<path d="M7389 476 c5 -6 7 -19 6 -28 -2 -10 0 -18 4 -18 10 0 33 51 26 58 -3
3 -5 0 -5 -6 0 -7 -5 -12 -11 -12 -5 0 -8 4 -5 8 3 5 -1 9 -9 9 -9 0 -11 -4
-6 -11z"/>
<path d="M7517 484 c-3 -3 -3 -12 0 -20 5 -13 -1 -13 -47 -2 -8 1 -18 7 -21
11 -3 5 -9 1 -12 -8 -4 -9 -3 -13 3 -10 5 3 14 -3 19 -13 8 -15 20 -19 51 -17
45 3 45 3 25 -29 -14 -21 -14 -25 0 -36 12 -10 19 -10 27 -2 9 9 7 12 -7 12
-16 0 -17 2 -6 9 20 13 24 50 6 57 -8 4 -12 11 -8 17 4 6 11 3 20 -8 9 -14 13
-15 13 -4 0 12 2 12 10 -1 7 -10 6 -18 -3 -25 -12 -9 -13 -17 -9 -53 1 -7 6
-11 12 -7 5 3 7 13 4 23 -5 14 -4 14 4 3 13 -19 51 -22 60 -5 4 7 11 13 17 13
19 -1 15 17 -5 18 -11 1 -20 -4 -20 -13 0 -8 -4 -14 -10 -14 -5 0 -9 5 -7 11
1 6 -4 14 -11 16 -8 3 -10 -2 -6 -14 4 -13 3 -15 -4 -4 -5 7 -7 22 -4 33 4 18
6 18 14 4 5 -9 14 -16 20 -16 7 0 7 5 -1 14 -9 11 -9 16 0 22 8 5 9 3 4 -6 -5
-8 -4 -11 3 -6 6 3 16 -2 22 -11 11 -17 11 -17 6 0 -4 12 -2 16 6 11 7 -5 8
-3 3 6 -5 9 -4 11 4 6 6 -4 9 -12 5 -17 -7 -13 24 -61 36 -54 14 9 39 -6 38
-23 0 -9 3 -25 7 -35 6 -14 3 -16 -11 -11 -16 5 -16 4 -4 -5 20 -13 30 -2 35
40 4 26 2 31 -6 19 -9 -13 -10 -12 -5 3 3 9 1 17 -4 17 -6 0 -10 8 -10 18 0 9
-4 13 -8 7 -22 -30 -53 -8 -57 40 -1 20 -27 23 -33 4 -2 -6 -10 -5 -19 2 -9 8
-17 9 -21 3 -12 -17 -33 -10 -48 16 l-15 25 7 -25 c6 -21 5 -23 -8 -13 -11 10
-17 10 -28 0 -10 -10 -12 -9 -7 5 6 17 -5 33 -16 22z m-16 -41 c2 1 3 0 1 -2
-7 -11 -31 -8 -36 5 -4 11 -1 12 13 5 10 -6 20 -9 22 -8z"/>
<path d="M7655 480 c-3 -5 -1 -10 4 -10 6 0 11 5 11 10 0 6 -2 10 -4 10 -3 0
-8 -4 -11 -10z"/>
<path d="M7774 475 c1 -8 5 -18 9 -21 20 -20 4 -24 -17 -5 l-24 22 -16 -22
c-19 -28 -4 -54 24 -39 13 7 22 3 39 -21 12 -16 19 -34 16 -39 -3 -5 -1 -11 5
-15 6 -4 8 -11 5 -16 -4 -5 -3 -14 0 -19 4 -6 22 2 46 21 21 17 39 26 39 20 0
-5 -10 -17 -22 -25 -12 -9 -17 -16 -11 -16 7 0 15 5 18 10 4 6 11 7 17 4 6 -4
8 -2 4 4 -3 5 0 12 6 15 19 6 39 -4 31 -16 -3 -6 -1 -7 6 -3 6 4 8 12 5 18 -5
7 -1 9 9 5 9 -3 19 -2 22 3 4 6 11 10 16 10 6 0 7 -6 2 -12 -11 -19 -12 -37
-3 -43 5 -3 7 3 5 14 -5 25 20 47 38 34 15 -13 48 -13 64 -1 7 5 14 5 18 -2 3
-6 12 -7 18 -3 19 12 46 13 52 3 4 -7 13 -6 26 0 14 8 19 7 19 -2 1 -7 7 -2
15 12 15 27 18 28 41 5 9 -8 22 -15 30 -15 9 0 12 -5 8 -12 -4 -7 -3 -8 5 -4
15 9 5 26 -16 26 -9 0 -13 3 -9 7 14 14 31 9 44 -12 12 -19 13 -19 7 5 -6 23
-5 24 8 7 12 -14 16 -15 21 -5 5 10 7 10 12 1 4 -10 9 -9 21 2 16 17 38 20 28
5 -3 -5 -1 -10 4 -10 19 0 12 19 -10 31 -12 6 -19 7 -15 1 3 -5 -5 -9 -19 -9
-14 0 -22 4 -19 8 3 5 2 9 -3 8 -20 -4 -27 2 -13 12 13 9 13 10 0 6 -8 -2 -15
-9 -15 -14 0 -6 -3 -15 -7 -19 -5 -4 -8 -2 -8 5 0 8 -7 11 -15 7 -11 -4 -14 2
-11 24 2 16 -1 27 -6 24 -5 -3 -8 -11 -7 -17 3 -23 -1 -40 -8 -34 -3 4 -12 2
-20 -5 -12 -10 -13 -7 -8 18 4 21 3 23 -3 10 -6 -14 -11 -16 -16 -8 -4 7 -4
17 0 24 4 7 3 8 -5 4 -6 -4 -9 -16 -6 -27 5 -14 3 -17 -10 -13 -9 4 -14 13
-11 20 3 8 1 14 -4 14 -6 0 -10 -8 -10 -17 0 -16 -2 -16 -11 -3 -8 12 -9 10
-4 -7 4 -15 1 -24 -12 -31 -24 -11 -45 -10 -50 4 -2 7 8 9 27 6 16 -2 30 0 30
5 0 6 -22 10 -50 9 -27 0 -50 -3 -50 -7 0 -4 -10 -7 -22 -7 -27 0 -63 -8 -80
-18 -7 -5 -8 -3 -3 6 6 9 4 11 -5 5 -8 -5 -11 -4 -7 2 4 6 18 9 33 7 18 -2 24
1 20 11 -3 8 0 17 6 21 7 5 8 2 3 -6 -6 -9 -4 -11 5 -5 9 6 11 4 5 -4 -6 -10
-3 -11 12 -2 11 6 23 7 27 4 3 -3 6 -1 6 5 0 7 5 12 11 12 5 0 8 -4 4 -9 -6
-11 34 -6 44 5 3 4 -2 4 -11 1 -11 -4 -21 0 -26 10 -6 11 -11 12 -16 4 -4 -6
-12 -11 -18 -11 -6 0 -5 7 3 18 13 15 12 16 -3 4 -22 -18 -65 -25 -73 -12 -4
6 -11 7 -17 4 -8 -5 -9 -1 -5 10 4 10 3 15 -3 11 -6 -3 -10 -1 -10 4 0 6 -4
11 -10 11 -5 0 -9 -6 -7 -12 1 -7 -6 -12 -15 -12 -9 1 -14 -4 -12 -11 3 -6 -2
-12 -11 -12 -10 0 -14 7 -10 21 3 12 2 15 -1 9 -3 -7 -10 -13 -15 -13 -6 0 -8
3 -5 8 2 4 -9 8 -24 8 -25 1 -27 0 -15 -13 8 -8 19 -12 24 -9 5 3 14 -1 21 -9
7 -8 16 -12 21 -9 5 3 9 -1 9 -8 0 -10 3 -9 11 2 9 13 10 13 6 0 -2 -8 -11
-13 -18 -12 -28 7 -32 7 -35 -3 -2 -6 6 -11 18 -12 13 -1 24 -7 26 -13 5 -14
23 -13 21 3 -4 36 2 45 31 43 17 0 30 -4 30 -9 0 -4 -11 -5 -24 -3 -19 3 -23
0 -20 -20 1 -13 -1 -25 -4 -25 -32 -6 -51 -5 -45 4 3 6 1 7 -5 3 -7 -4 -12 -1
-12 6 0 10 -2 10 -9 -1 -7 -11 -9 -11 -14 0 -4 10 -6 10 -6 2 -1 -8 -8 -6 -21
7 -10 10 -17 28 -15 39 2 13 -1 18 -10 15 -8 -4 -12 -15 -9 -32 5 -26 4 -26
-9 -8 -16 22 -15 52 2 49 21 -5 11 15 -10 20 -12 3 -18 10 -15 16 4 5 2 12 -3
15 -5 4 -8 -1 -7 -9z m-3 -42 c13 -15 16 -21 7 -14 -14 10 -21 11 -31 2 -19
-15 -29 -3 -16 20 12 24 11 24 40 -8z m202 -6 c3 -7 -3 -13 -14 -13 -13 0 -15
3 -7 13 6 7 12 13 13 13 2 0 5 -6 8 -13z m281 -49 c4 3 4 -2 0 -13 -5 -11 -9
-14 -12 -7 -2 8 -8 8 -19 -3 -20 -20 -36 -9 -21 15 9 13 17 16 29 10 9 -5 19
-6 23 -2z m66 -4 c0 -8 -19 -13 -24 -6 -3 5 1 9 9 9 8 0 15 -2 15 -3z m-447
-27 c4 3 7 4 7 2 0 -3 -14 -16 -32 -29 -23 -17 -30 -19 -25 -7 3 9 2 19 -4 23
-6 4 -6 11 2 20 10 13 14 12 29 -1 9 -8 20 -12 23 -8z m207 13 c9 -6 17 -5 22
3 5 9 12 7 25 -7 14 -16 14 -17 1 -7 -10 7 -18 8 -22 2 -4 -5 -19 -8 -34 -7
-35 5 -34 4 -27 16 8 12 16 12 35 0z"/>
<path d="M7736 433 c-6 -14 -5 -15 5 -6 7 7 10 15 7 18 -3 3 -9 -2 -12 -12z"/>
<path d="M7825 351 c-6 -11 13 -26 22 -17 4 3 1 6 -6 6 -7 0 -9 5 -6 10 3 6 4
10 1 10 -3 0 -7 -4 -11 -9z"/>
<path d="M3362 468 c-15 -15 -15 -28 0 -28 6 0 8 3 5 7 -4 3 -2 12 4 20 14 16
7 17 -9 1z"/>
<path d="M2810 462 c0 -6 -8 -9 -17 -6 -15 5 -16 4 -3 -5 16 -11 40 3 27 16
-4 3 -7 1 -7 -5z"/>
<path d="M2923 459 c19 -11 23 -30 5 -26 -7 1 -13 -5 -13 -13 -2 -24 6 -32 20
-20 9 7 16 6 25 -5 11 -13 15 -12 31 8 10 12 18 18 19 13 0 -5 7 -2 16 5 14
11 19 10 39 -13 17 -20 25 -24 34 -15 7 7 24 12 39 12 18 1 28 7 30 19 3 12 0
16 -7 11 -6 -3 -8 -11 -5 -17 5 -7 2 -8 -7 -2 -20 12 -39 14 -39 3 0 -5 -5 -9
-10 -9 -6 0 -5 8 2 20 9 14 14 16 20 7 6 -9 8 -8 8 3 0 13 1 13 10 0 5 -8 10
-10 10 -5 0 6 -5 17 -10 25 -8 12 -10 12 -10 1 0 -10 -3 -11 -13 -2 -11 8 -18
6 -32 -9 -20 -22 -44 -28 -26 -6 8 9 8 16 2 20 -5 4 -12 2 -16 -4 -4 -6 -11
-8 -16 -5 -5 3 -6 -2 -2 -12 5 -15 3 -16 -7 -6 -11 10 -17 10 -29 0 -12 -10
-14 -9 -8 6 3 9 2 17 -3 17 -5 0 -10 -10 -13 -22 -3 -22 -4 -22 -12 -3 -9 22
-24 35 -40 35 -5 -1 -2 -5 8 -11z m175 -21 c-7 -13 -11 -27 -9 -33 1 -5 -3 -5
-9 1 -9 9 -7 17 6 33 24 27 28 27 12 -1z m-83 -8 c4 -6 3 -9 -2 -8 -4 1 -18
-3 -30 -10 -15 -8 -24 -9 -28 -2 -5 8 -11 8 -19 1 -9 -8 -13 -7 -13 3 0 14 14
16 33 4 6 -4 20 -1 30 7 23 17 21 17 29 5z"/>
<path d="M3190 459 c0 -5 -4 -8 -9 -5 -5 4 -7 -3 -4 -14 5 -17 40 -48 44 -38
1 2 2 18 4 37 2 22 0 29 -6 20 -6 -10 -9 -11 -9 -1 0 6 -4 12 -10 12 -5 0 -10
-5 -10 -11z m23 -23 c4 -10 1 -13 -9 -9 -15 6 -19 23 -5 23 5 0 11 -7 14 -14z"/>
<path d="M4040 455 c-20 -24 -6 -28 15 -5 10 11 13 20 8 20 -6 0 -16 -7 -23
-15z"/>
<path d="M4254 451 c13 -13 18 -13 28 -2 10 11 10 12 1 7 -7 -4 -13 -3 -13 2
0 5 -7 9 -15 9 -14 0 -14 -2 -1 -16z"/>
<path d="M6687 454 c5 -14 35 -12 40 2 2 6 -8 10 -21 10 -14 0 -22 -5 -19 -12z"/>
<path d="M2555 451 c-3 -5 -1 -12 5 -16 12 -7 4 -25 -11 -25 -6 0 -7 6 -3 13
5 8 2 8 -9 -2 -14 -11 -20 -11 -34 0 -14 12 -16 12 -8 0 6 -11 4 -13 -8 -8
-10 4 -17 1 -17 -5 0 -7 -13 0 -28 15 -20 19 -29 23 -29 13 0 -8 3 -15 6 -14
18 2 21 -4 7 -17 -16 -16 -30 -20 -22 -6 8 12 -18 21 -33 11 -9 -5 -10 -10 -2
-14 6 -4 11 -2 11 5 0 7 6 4 14 -7 9 -12 11 -21 4 -25 -5 -4 -3 -9 6 -12 9 -4
15 -3 15 1 -3 19 2 33 10 27 5 -3 12 -1 15 3 3 5 16 9 28 8 13 -1 26 3 30 9 5
6 8 5 8 -3 0 -7 4 -11 9 -7 6 3 9 -3 8 -14 0 -11 -5 -17 -9 -15 -4 3 -8 0 -8
-6 0 -6 8 -10 18 -8 9 2 16 11 14 20 -1 8 5 22 15 29 14 12 16 12 8 0 -6 -11
-5 -12 6 -5 8 4 20 9 27 10 11 2 11 0 0 -14 -11 -13 -11 -15 4 -9 11 4 22 -2
32 -19 9 -13 21 -24 27 -24 6 0 -3 16 -20 35 -35 40 -36 45 -18 65 9 11 8 11
-7 0 -18 -14 -19 -13 -13 3 4 11 3 16 -4 12 -5 -4 -7 -16 -3 -28 7 -22 6 -22
-14 -3 -12 10 -19 23 -16 27 3 5 3 9 0 9 -3 0 -7 -4 -11 -9z"/>
<path d="M6385 450 c-3 -5 -1 -10 4 -10 6 0 11 5 11 10 0 6 -2 10 -4 10 -3 0
-8 -4 -11 -10z"/>
<path d="M8050 445 c-7 -9 -8 -15 -2 -15 5 0 12 7 16 15 3 8 4 15 2 15 -2 0
-9 -7 -16 -15z"/>
<path d="M2129 437 c6 -8 7 -18 3 -22 -4 -5 -1 -5 6 -1 10 6 10 11 1 22 -6 8
-14 14 -16 14 -3 0 0 -6 6 -13z"/>
<path d="M2450 438 c0 -11 12 -10 30 2 12 7 10 9 -8 7 -12 0 -22 -5 -22 -9z"/>
<path d="M2510 436 c7 -7 13 -7 20 0 6 6 3 10 -10 10 -13 0 -16 -4 -10 -10z"/>
<path d="M8015 440 c-3 -5 -1 -10 4 -10 6 0 11 5 11 10 0 6 -2 10 -4 10 -3 0
-8 -4 -11 -10z"/>
<path d="M8156 432 c-2 -4 4 -8 14 -8 10 0 16 4 14 8 -3 4 -9 8 -14 8 -5 0
-11 -4 -14 -8z"/>
<path d="M1957 410 c3 -11 9 -20 15 -20 5 0 4 9 -2 20 -6 11 -12 20 -14 20 -2
0 -2 -9 1 -20z"/>
<path d="M2055 421 c-3 -6 4 -15 15 -21 11 -6 20 -16 20 -22 0 -7 -5 -6 -15 2
-8 7 -15 9 -15 4 0 -4 -7 1 -16 12 -8 10 -13 14 -10 8 3 -7 -2 -18 -11 -25
-15 -12 -16 -12 -10 4 4 10 3 16 -2 12 -5 -3 -12 1 -15 7 -3 7 -3 3 0 -9 4
-18 1 -21 -15 -18 -11 2 -30 9 -43 15 -22 11 -22 10 -4 -4 19 -16 19 -16 -2
-16 -19 0 -26 9 -24 31 1 3 -6 6 -14 6 -10 0 -11 -4 -4 -11 18 -18 11 -30 -8
-13 -14 13 -21 14 -30 5 -7 -7 -12 -9 -12 -5 0 4 -13 1 -30 -8 -37 -19 -41
-19 -34 3 5 13 4 14 -4 3 -5 -7 -21 -13 -36 -13 -17 0 -26 -6 -26 -17 0 -9 3
-12 8 -6 10 14 42 15 65 3 13 -7 17 -7 13 0 -12 20 19 18 53 -2 19 -11 31 -15
27 -8 -4 7 -3 12 3 12 5 0 11 -3 14 -7 2 -5 2 -3 1 4 -2 7 1 15 6 18 6 4 10 1
10 -4 0 -6 8 -10 18 -9 37 3 53 -2 46 -14 -5 -9 -2 -9 9 1 13 10 20 11 30 2 8
-6 18 -7 22 -3 5 4 6 0 3 -9 -5 -12 2 -15 31 -15 20 0 41 7 47 15 6 8 22 16
35 17 l24 4 -25 -15 c-24 -13 -24 -14 -2 -12 12 1 22 6 22 11 0 5 3 6 7 3 3
-4 12 -2 20 4 16 14 17 -3 1 -19 -9 -9 -9 -15 -1 -23 8 -8 13 -7 18 2 5 8 4
10 -3 5 -7 -4 -12 -3 -12 3 0 5 4 12 9 15 11 7 33 -18 24 -27 -3 -4 -1 -7 5
-7 15 0 15 13 0 28 -6 6 -8 15 -4 19 4 4 12 0 17 -10 13 -22 33 -23 25 -1 -5
12 -2 15 10 10 18 -7 44 9 44 27 0 5 -8 3 -18 -6 -18 -17 -35 -12 -40 11 -1 8
2 11 9 6 8 -5 9 -3 4 6 -5 8 -4 11 3 6 6 -4 8 -14 5 -24 -5 -14 -3 -15 7 -5
17 16 23 53 9 53 -5 0 -7 -4 -4 -10 3 -5 1 -10 -4 -10 -10 0 -15 14 -12 33 0
4 -4 7 -10 7 -6 0 -8 -9 -3 -22 6 -20 5 -21 -9 -9 -9 7 -15 17 -12 20 2 4 -2
8 -10 8 -12 0 -12 -3 -2 -16 10 -12 9 -14 -6 -8 -11 4 -16 3 -12 -3 3 -6 1
-10 -6 -10 -6 0 -9 8 -6 20 3 12 1 18 -5 14 -5 -3 -8 -15 -5 -25 3 -12 0 -19
-8 -19 -9 0 -12 9 -9 25 2 14 0 25 -6 25 -5 0 -9 -6 -7 -12 1 -7 -4 -12 -12
-10 -12 3 -12 0 -1 -12 7 -10 8 -16 2 -16 -6 0 -14 5 -17 10 -4 6 -11 8 -16 5
-5 -4 -9 0 -9 7 0 10 -2 10 -9 -1 -7 -12 -12 -11 -30 1 -11 8 -18 18 -14 21 3
4 4 7 0 7 -3 0 -8 -4 -12 -9z m204 -42 c-7 -4 -17 -5 -23 -2 -5 4 -7 -1 -3
-10 7 -19 -8 -33 -18 -17 -5 8 -11 8 -20 0 -9 -7 -15 -8 -20 -1 -8 14 -38 9
-59 -8 -23 -20 -64 -22 -70 -4 -3 8 -10 12 -15 9 -5 -3 -15 2 -22 11 -8 10 -9
14 -2 10 6 -4 14 -3 18 3 6 10 32 9 51 -3 7 -4 17 -1 23 7 12 15 28 16 49 3 6
-5 16 -6 21 -2 5 3 12 1 16 -4 3 -6 18 -3 37 9 17 10 36 16 41 13 5 -3 3 -9
-4 -14z m-384 -22 c-16 -8 -45 1 -45 15 0 5 4 7 9 3 5 -3 12 -1 16 5 4 6 11 5
19 -3 12 -10 12 -13 1 -20z m392 -2 c0 -8 -4 -15 -9 -15 -10 0 -11 14 -1 23 9
10 10 9 10 -8z"/>
<path d="M2096 361 c-15 -14 -18 -14 -26 -1 -9 13 -10 13 -10 0 0 -13 -1 -13
-10 0 -8 12 -11 13 -22 2 -7 -8 -8 -13 -3 -12 6 2 12 1 15 0 19 -9 72 -5 81 6
6 8 16 11 23 7 6 -3 7 -2 3 2 -13 15 -34 14 -51 -4z"/>
<path d="M7392 408 c-17 -17 -15 -24 7 -25 14 -1 17 3 14 18 -6 22 -6 22 -21
7z"/>
<path d="M7844 403 c1 -7 8 -19 16 -26 10 -10 12 -9 7 6 -4 10 -3 15 2 12 5
-3 12 -1 15 4 3 5 -5 11 -18 13 -16 3 -23 0 -22 -9z"/>
<path d="M8415 409 c-4 -6 -5 -12 -2 -15 2 -3 7 2 10 11 7 17 1 20 -8 4z"/>
<path d="M1726 397 c3 -10 9 -15 12 -12 3 3 0 11 -7 18 -10 9 -11 8 -5 -6z"/>
<path d="M1797 396 c-4 -10 -1 -13 8 -9 8 3 12 9 9 14 -7 12 -11 11 -17 -5z"/>
<path d="M2341 393 c12 -15 12 -16 -5 -10 -16 6 -17 5 -6 -8 10 -12 16 -13 29
-3 15 12 15 11 1 -6 -14 -18 -13 -19 3 -13 11 4 16 3 12 -3 -3 -6 -1 -10 6
-10 7 0 10 -3 7 -6 -4 -3 -16 -1 -27 6 -26 13 -52 2 -27 -12 13 -7 14 -13 5
-31 l-11 -22 21 23 c25 25 51 31 31 7 -7 -8 -8 -15 -4 -15 5 0 15 9 22 20 7
11 17 20 24 20 6 0 3 -9 -7 -20 -17 -18 -17 -20 -2 -14 9 3 17 10 17 14 0 5 8
7 18 5 9 -2 21 -4 25 -4 5 -1 5 -6 1 -13 -4 -7 -3 -8 4 -4 16 10 16 11 -14 31
-15 9 -23 11 -19 4 6 -8 4 -10 -4 -4 -9 5 -10 10 -2 18 15 15 14 27 -4 27 -8
0 -14 -5 -12 -11 1 -6 -6 -13 -15 -14 -18 -3 -22 6 -19 34 2 7 -2 10 -8 7 -5
-3 -16 1 -24 9 -21 20 -33 19 -16 -2z m24 -71 c-3 -3 -11 0 -18 7 -9 10 -8 11
6 5 10 -3 15 -9 12 -12z"/>
<path d="M2830 398 c0 -5 -6 -8 -12 -7 -26 3 -39 -1 -33 -11 3 -5 11 -7 18 -4
7 2 21 -4 31 -15 14 -15 15 -24 7 -38 -6 -10 -11 -12 -11 -5 0 6 -5 12 -11 12
-5 0 -8 -4 -4 -9 3 -5 0 -13 -6 -17 -8 -4 -9 -3 -5 4 4 7 2 12 -3 12 -19 0
-12 -19 12 -32 28 -15 49 -19 41 -7 -3 5 0 9 7 9 10 0 10 3 1 12 -8 8 -8 15
-2 23 7 9 4 20 -9 36 -17 21 -17 25 -4 35 14 9 14 11 -1 11 -9 0 -16 -4 -16
-9z m18 -100 c-2 -5 -8 -9 -13 -9 -5 0 -11 4 -13 9 -1 5 4 9 13 9 9 0 14 -4
13 -9z"/>
<path d="M8165 400 c3 -5 8 -10 11 -10 2 0 4 5 4 10 0 6 -5 10 -11 10 -5 0 -7
-4 -4 -10z"/>
<path d="M8477 397 c-3 -7 3 -13 14 -13 13 0 15 3 7 13 -6 7 -12 13 -13 13 -2
0 -5 -6 -8 -13z"/>
<path d="M1655 393 c3 -4 -5 -13 -17 -20 l-23 -14 24 7 c16 4 21 3 17 -5 -4
-6 -2 -11 3 -11 12 0 10 36 -2 45 -4 3 -5 2 -2 -2z"/>
<path d="M2575 390 c-4 -6 -11 -7 -17 -4 -7 5 -9 2 -6 -7 6 -15 -10 -44 -26
-48 -13 -4 -26 22 -21 40 4 11 -2 15 -24 15 -24 0 -28 -4 -27 -23 0 -13 5 -23
9 -23 4 0 20 -12 34 -27 16 -15 29 -21 31 -14 2 6 8 9 13 6 5 -4 6 0 4 7 -4 9
2 14 15 14 13 0 19 -5 15 -14 -2 -7 -1 -11 4 -8 5 3 12 -1 15 -10 6 -15 9 -15
29 -1 26 17 60 6 51 -17 -3 -8 -1 -17 5 -21 7 -3 8 0 5 9 -3 9 3 19 16 26 20
10 21 10 16 -8 -4 -11 -2 -23 3 -27 7 -4 8 1 4 12 -6 15 -4 16 8 6 13 -10 16
-10 16 2 0 8 -4 12 -9 9 -4 -3 -8 -1 -8 5 0 23 20 20 34 -6 8 -15 15 -22 16
-15 0 7 5 10 10 7 6 -4 8 -11 5 -16 -3 -5 1 -6 10 -3 14 6 14 8 -2 19 -10 7
-21 11 -24 9 -4 -2 -6 7 -6 21 0 13 2 24 6 23 19 -2 31 3 26 12 -9 14 8 13 23
-2 8 -8 12 -8 12 -1 0 14 -29 37 -37 29 -3 -3 -15 1 -25 10 -21 20 -95 28
-104 12 -5 -7 -1 -9 9 -5 10 3 17 2 17 -3 0 -14 -24 -12 -38 2 -17 17 -15 -2
2 -21 13 -14 13 -19 0 -35 -8 -12 -14 -14 -14 -7 0 22 -34 57 -52 53 -10 -2
-18 -8 -18 -13 0 -6 10 -8 23 -4 17 5 19 4 7 -4 -15 -10 -13 -12 12 -15 6 0
13 -8 15 -16 4 -13 3 -13 -7 0 -10 13 -11 13 -7 -2 3 -9 -1 -19 -8 -22 -10 -3
-14 1 -12 14 1 10 -2 19 -7 18 -17 0 -27 31 -16 52 11 20 7 29 -5 10z m164 -9
c9 -6 11 -16 6 -32 -7 -21 -6 -22 8 -10 9 7 14 18 10 25 -4 6 1 5 10 -3 9 -7
17 -19 16 -25 0 -6 -3 -6 -6 2 -4 10 -8 10 -19 1 -12 -9 -12 -15 -2 -28 11
-14 11 -14 -3 -4 -9 7 -19 10 -23 6 -3 -4 -12 -8 -19 -9 -7 -1 -19 -3 -27 -5
-10 -3 -15 3 -15 16 0 12 6 19 14 17 8 -2 11 3 8 12 -4 11 -1 13 10 9 12 -5
14 -3 8 8 -8 12 -6 12 8 0 10 -8 17 -9 17 -3 0 6 -8 16 -17 21 -10 6 -13 10
-8 11 6 0 16 -4 24 -9z m-216 -54 c4 3 7 1 7 -5 0 -20 -15 -14 -41 16 l-24 27
26 -23 c14 -12 29 -19 32 -15z"/>
<path d="M2710 336 c-7 -9 -16 -14 -19 -11 -4 2 -8 -2 -8 -10 0 -11 4 -12 13
-4 7 6 18 8 23 5 13 -9 21 7 12 22 -6 10 -11 9 -21 -2z"/>
<path d="M3185 390 c-3 -5 3 -10 15 -10 12 0 18 5 15 10 -3 6 -10 10 -15 10
-5 0 -12 -4 -15 -10z"/>
<path d="M1353 375 c0 -8 4 -12 9 -9 5 3 6 10 3 15 -9 13 -12 11 -12 -6z"/>
<path d="M1470 381 c0 -6 4 -13 10 -16 6 -3 7 1 4 9 -7 18 -14 21 -14 7z"/>
<path d="M1510 379 c0 -5 5 -7 10 -4 6 3 10 8 10 11 0 2 -4 4 -10 4 -5 0 -10
-5 -10 -11z"/>
<path d="M1590 380 c0 -5 5 -10 10 -10 6 0 10 5 10 10 0 6 -4 10 -10 10 -5 0
-10 -4 -10 -10z"/>
<path d="M7671 370 c-13 -9 -34 -16 -47 -14 -13 1 -26 -2 -29 -6 -3 -5 -12 -7
-19 -4 -8 3 -17 1 -21 -5 -3 -6 -11 -11 -16 -11 -6 0 -8 4 -5 9 3 4 -3 16 -14
26 -12 11 -20 14 -21 7 -3 -26 -4 -31 -11 -38 -5 -4 -16 1 -27 10 -14 13 -21
14 -26 6 -4 -7 -3 -15 2 -19 5 -3 15 -15 21 -26 6 -11 12 -15 12 -9 0 6 10 10
23 9 12 -1 32 5 45 12 24 14 43 8 64 -22 4 -5 6 5 3 24 -2 18 -1 30 3 26 7 -6
8 -10 11 -37 1 -10 3 -10 10 1 6 9 11 10 15 2 4 -6 12 -11 19 -11 6 0 1 7 -11
16 -31 21 -28 38 3 18 14 -9 28 -14 32 -10 3 3 13 0 21 -7 13 -10 14 -9 7 2
-6 11 -2 13 19 9 19 -4 24 -2 16 7 -11 13 -38 14 -58 1 -7 -4 -16 -5 -19 -2
-4 3 -1 6 6 6 7 0 10 4 6 9 -3 5 -1 12 4 15 5 4 12 2 15 -3 3 -4 17 -8 31 -8
13 0 22 4 19 9 -3 5 -12 7 -20 4 -7 -3 -19 1 -27 8 -11 12 -17 11 -36 -4z
m-153 -31 c-10 -7 -11 -9 0 -9 8 0 10 -5 6 -12 -6 -9 -9 -9 -12 0 -3 10 -7 10
-20 0 -14 -10 -14 -9 1 8 9 11 14 24 10 28 -4 4 1 4 11 0 14 -5 15 -9 4 -15z
m-49 -23 c-3 -3 -11 5 -18 17 -13 21 -12 21 5 5 10 -10 16 -20 13 -22z m131
18 c0 -8 -19 -13 -24 -6 -3 5 1 9 9 9 8 0 15 -2 15 -3z"/>
<path d="M8530 365 c0 -8 4 -15 8 -15 5 0 9 7 9 15 0 8 -4 15 -9 15 -4 0 -8
-7 -8 -15z"/>
<path d="M8595 369 c-4 -6 -5 -12 -2 -15 2 -3 7 2 10 11 7 17 1 20 -8 4z"/>
<path d="M1526 362 c-3 -5 1 -9 9 -9 8 0 15 4 15 9 0 4 -4 8 -9 8 -6 0 -12 -4
-15 -8z"/>
<path d="M1560 366 c0 -2 7 -9 15 -16 13 -11 14 -10 9 4 -5 14 -24 23 -24 12z"/>
<path d="M8487 363 c7 -2 9 -12 6 -21 -6 -18 -5 -17 14 8 10 13 8 16 -10 17
-12 0 -17 -1 -10 -4z"/>
<path d="M8626 358 c3 -4 9 -8 15 -8 5 0 9 4 9 8 0 5 -7 9 -15 9 -8 0 -12 -4
-9 -9z"/>
<path d="M1813 335 c0 -8 4 -12 9 -9 5 3 6 10 3 15 -9 13 -12 11 -12 -6z"/>
<path d="M7205 340 c-4 -6 -3 -10 2 -9 4 1 10 0 13 -1 3 -1 14 -3 25 -5 20 -4
20 -4 1 11 -23 17 -33 18 -41 4z"/>
<path d="M7355 340 c-3 -5 1 -10 10 -10 9 0 13 5 10 10 -3 6 -8 10 -10 10 -2
0 -7 -4 -10 -10z"/>
<path d="M8277 336 c5 -14 3 -17 -7 -11 -8 5 -11 4 -7 -3 8 -11 33 -11 42 1 3
4 2 5 -2 2 -3 -3 -12 3 -20 13 -12 16 -13 16 -6 -2z"/>
<path d="M8430 340 c0 -5 5 -10 11 -10 5 0 7 5 4 10 -3 6 -8 10 -11 10 -2 0
-4 -4 -4 -10z"/>
<path d="M8555 340 c-3 -6 1 -7 9 -4 18 7 21 14 7 14 -6 0 -13 -4 -16 -10z"/>
<path d="M3186 325 c4 -8 10 -15 15 -15 4 0 6 7 3 15 -4 8 -10 15 -15 15 -4 0
-6 -7 -3 -15z"/>
<path d="M6106 332 c-4 -6 -2 -22 5 -34 9 -18 9 -21 -1 -11 -7 6 -19 9 -26 6
-8 -3 -17 2 -20 11 -3 9 -10 16 -16 16 -5 0 -7 -4 -4 -9 4 -5 3 -11 -1 -14 -5
-2 -2 -2 4 -1 17 4 37 -34 26 -50 -4 -6 -1 -4 8 6 21 22 32 12 18 -16 -10 -20
-9 -20 5 -2 9 10 13 23 10 27 -9 16 7 9 24 -9 10 -9 14 -13 10 -8 -15 19 -8
28 9 15 10 -8 14 -9 10 -2 -9 15 32 14 52 -1 11 -8 13 -8 8 0 -4 7 0 14 8 18
9 3 12 12 8 22 -5 14 -8 13 -18 -6 -10 -19 -13 -20 -18 -6 -3 8 -13 13 -21 10
-8 -3 -17 -1 -20 5 -4 6 -13 8 -21 5 -9 -4 -18 2 -23 17 -6 14 -11 18 -16 11z
m59 -50 c-11 -11 -34 -10 -38 2 -4 9 3 11 19 8 14 -2 22 -7 19 -10z m-61 0 c3
-5 -1 -9 -9 -9 -8 0 -12 4 -9 9 3 4 7 8 9 8 2 0 6 -4 9 -8z"/>
<path d="M6340 326 c0 -7 -6 -19 -14 -25 -10 -9 -15 -8 -20 4 -3 8 -11 15 -17
15 -9 0 -9 -4 0 -14 8 -10 9 -16 1 -21 -6 -3 -7 -12 -3 -18 4 -7 8 -15 8 -19
0 -3 4 -10 9 -15 5 -4 6 -3 3 3 -7 13 16 38 26 28 3 -3 3 -13 0 -22 -4 -10 1
-8 15 6 12 12 22 27 22 34 0 6 9 2 21 -11 l21 -22 22 20 c25 24 45 29 27 7 -8
-10 -9 -16 -1 -21 9 -6 14 0 12 17 -1 3 6 9 14 12 12 5 15 2 10 -11 -4 -10 -4
-14 0 -10 4 4 14 1 23 -5 13 -10 14 -10 4 2 -19 21 -15 32 6 18 11 -7 17 -16
14 -22 -3 -5 -1 -6 6 -2 6 4 9 11 7 15 -3 4 10 15 29 24 36 17 47 37 20 37 -8
0 -15 -5 -15 -12 0 -6 -3 -8 -6 -5 -4 3 -16 1 -27 -5 -29 -15 -80 -18 -95 -5
-22 18 -50 18 -67 1 -15 -15 -17 -15 -22 4 -6 24 -33 38 -33 18z m15 -16 c-3
-5 0 -10 7 -10 9 0 9 -3 -2 -10 -8 -5 -11 -10 -7 -10 5 0 5 -5 2 -10 -5 -8
-11 -8 -20 0 -9 8 -15 8 -20 0 -3 -6 -11 -8 -16 -4 -5 3 -7 10 -3 15 3 5 9 7
13 4 5 -2 16 4 26 15 19 21 30 27 20 10z m95 -7 c0 -2 -8 -12 -17 -23 -12 -14
-20 -16 -29 -9 -10 8 -11 14 -1 24 10 11 47 17 47 8z m116 -8 c-11 -8 -25 -15
-30 -15 -6 1 0 7 14 15 32 19 40 18 16 0z"/>
<path d="M6335 291 c-3 -5 -2 -12 3 -15 5 -3 9 1 9 9 0 17 -3 19 -12 6z"/>
<path d="M6415 289 c-4 -6 -5 -12 -2 -15 2 -3 7 2 10 11 7 17 1 20 -8 4z"/>
<path d="M1985 320 c-3 -6 1 -7 9 -4 18 7 21 14 7 14 -6 0 -13 -4 -16 -10z"/>
<path d="M3262 317 c-8 -10 -6 -13 8 -14 13 -1 17 3 13 13 -6 17 -8 17 -21 1z"/>
<path d="M6945 320 c-2 -3 0 -12 5 -20 7 -11 11 -11 24 -1 9 8 16 17 16 22 0
9 -39 8 -45 -1z m35 -6 c0 -8 -19 -13 -24 -6 -3 5 1 9 9 9 8 0 15 -2 15 -3z"/>
<path d="M8113 315 c0 -8 4 -12 9 -9 5 3 6 10 3 15 -9 13 -12 11 -12 -6z"/>
<path d="M8170 319 c0 -5 5 -7 10 -4 6 3 10 8 10 11 0 2 -4 4 -10 4 -5 0 -10
-5 -10 -11z"/>
<path d="M8386 318 c3 -5 10 -6 15 -3 13 9 11 12 -6 12 -8 0 -12 -4 -9 -9z"/>
<path d="M2296 308 c3 -4 11 -5 19 -1 21 7 19 12 -4 10 -11 0 -18 -5 -15 -9z"/>
<path d="M3031 307 c-6 -6 -11 -8 -11 -4 0 4 -10 2 -22 -4 -21 -11 -21 -12 -3
-25 10 -8 24 -14 29 -14 6 0 4 5 -4 10 -8 5 -13 10 -10 11 3 0 13 2 23 4 9 2
17 -2 17 -8 0 -7 5 -5 10 3 8 12 10 12 11 -5 l0 -20 9 20 c13 32 -25 56 -49
32z m43 -8 c3 -3 -5 -5 -19 -5 -13 0 -22 3 -19 7 4 8 30 6 38 -2z m-59 -9 c-3
-5 -12 -10 -18 -10 -7 0 -6 4 3 10 19 12 23 12 15 0z"/>
<path d="M7350 305 c-7 -8 -19 -15 -26 -15 -8 0 -14 -4 -14 -8 0 -4 9 -8 20
-8 10 0 17 2 15 5 -3 2 2 13 12 23 9 10 14 18 11 18 -3 0 -11 -7 -18 -15z"/>
<path d="M7550 300 c0 -5 5 -10 10 -10 6 0 10 5 10 10 0 6 -4 10 -10 10 -5 0
-10 -4 -10 -10z"/>
<path d="M7690 300 c0 -5 5 -10 11 -10 5 0 7 5 4 10 -3 6 -8 10 -11 10 -2 0
-4 -4 -4 -10z"/>
<path d="M2450 285 c0 -8 4 -15 10 -15 5 0 7 7 4 15 -4 8 -8 15 -10 15 -2 0
-4 -7 -4 -15z"/>
<path d="M3521 291 c-10 -7 -11 -13 -2 -27 6 -11 11 -14 11 -9 0 6 9 11 20 12
17 2 24 -7 22 -28 -1 -3 6 -6 14 -6 10 0 11 4 4 11 -15 15 -12 30 3 18 9 -8
16 -6 24 7 9 14 8 18 -3 18 -7 0 -11 -4 -8 -8 2 -4 -5 -7 -16 -6 -11 1 -20 6
-20 11 0 5 -3 6 -7 3 -3 -4 -11 -3 -17 3 -7 5 -18 5 -25 1z m23 -9 c3 -5 -1
-9 -9 -9 -8 0 -12 4 -9 9 3 4 7 8 9 8 2 0 6 -4 9 -8z"/>
<path d="M3665 290 c-3 -6 -11 -7 -17 -4 -7 4 -8 2 -4 -4 4 -7 3 -12 -3 -12
-16 0 -33 -38 -21 -45 6 -4 10 -3 9 2 -3 20 2 34 11 28 6 -4 7 -11 4 -17 -4
-7 -2 -8 4 -4 6 4 8 14 5 24 -5 14 -3 15 7 5 10 -9 17 -10 27 -1 10 8 17 8 25
0 18 -18 27 -15 25 7 -1 15 -4 17 -14 9 -10 -8 -13 -7 -13 2 0 8 -3 10 -7 7
-3 -4 -12 -2 -19 4 -8 7 -14 7 -19 -1z m19 -21 c-3 -5 -10 -7 -15 -3 -5 3 -7
10 -3 15 3 5 10 7 15 3 5 -3 7 -10 3 -15z"/>
<path d="M3774 288 c-3 -5 -9 -6 -14 -3 -5 3 -8 -8 -8 -24 1 -25 3 -27 14 -16
17 17 18 29 2 19 -7 -4 -8 -3 -4 5 4 6 12 8 18 5 7 -5 8 -2 3 6 -5 9 -4 11 4
6 6 -4 9 -12 6 -17 -4 -5 -1 -9 4 -9 6 0 11 8 11 18 0 19 -26 26 -36 10z"/>
<path d="M4155 290 c3 -5 8 -10 11 -10 2 0 4 5 4 10 0 6 -5 10 -11 10 -5 0 -7
-4 -4 -10z"/>
<path d="M5596 291 c-4 -5 -2 -12 3 -15 5 -4 12 -2 15 3 4 5 2 12 -3 15 -5 4
-12 2 -15 -3z"/>
<path d="M2540 286 c0 -2 11 -6 25 -8 13 -3 22 -1 19 3 -5 9 -44 13 -44 5z"/>
<path d="M2639 288 c-6 -21 -5 -37 2 -32 5 3 7 9 4 14 -3 4 1 11 7 13 10 4 10
6 1 6 -7 1 -13 0 -14 -1z"/>
<path d="M4105 280 c3 -5 11 -10 16 -10 6 0 7 5 4 10 -3 6 -11 10 -16 10 -6 0
-7 -4 -4 -10z"/>
<path d="M4421 264 c-6 -15 -9 -29 -6 -32 3 -3 5 0 5 6 0 7 5 12 11 12 5 0 8
-4 5 -8 -3 -5 1 -9 9 -9 9 0 11 4 6 11 -5 6 -7 19 -6 29 5 26 -10 20 -24 -9z"/>
<path d="M4621 264 c-6 -15 -9 -29 -6 -32 3 -3 5 0 5 6 0 7 8 12 18 12 14 0
15 2 2 10 -13 8 -13 10 1 10 24 0 29 -10 18 -37 -6 -16 -6 -22 1 -18 6 3 10
11 10 17 0 6 7 16 17 23 13 9 13 14 3 20 -9 5 -11 4 -6 -3 10 -17 -3 -15 -20
3 -21 21 -29 19 -43 -11z"/>
<path d="M4894 281 c3 -5 -3 -20 -14 -34 -11 -14 -20 -29 -20 -34 0 -4 5 0 11
10 6 9 15 14 21 11 7 -4 8 -2 4 4 -4 7 -2 12 4 12 6 0 8 5 5 10 -3 6 -1 10 5
10 6 0 8 5 5 10 -3 6 -11 10 -16 10 -6 0 -8 -4 -5 -9z"/>
<path d="M5294 268 c1 -13 -3 -27 -9 -31 -6 -5 -4 -7 5 -4 15 4 25 57 11 57
-5 0 -8 -10 -7 -22z"/>
<path d="M5535 280 c3 -5 8 -10 11 -10 2 0 4 5 4 10 0 6 -5 10 -11 10 -5 0 -7
-4 -4 -10z"/>
<path d="M5634 273 c2 -9 8 -19 14 -21 7 -2 10 -8 6 -13 -3 -5 0 -9 5 -9 14 0
14 3 -1 35 -13 28 -27 34 -24 8z"/>
<path d="M3190 270 c0 -5 5 -10 10 -10 6 0 10 5 10 10 0 6 -4 10 -10 10 -5 0
-10 -4 -10 -10z"/>
<path d="M6950 271 c0 -6 4 -12 8 -15 5 -3 9 1 9 9 0 8 -4 15 -9 15 -4 0 -8
-4 -8 -9z"/>
<path d="M2896 262 c-3 -4 4 -9 15 -9 23 -2 25 3 4 10 -8 4 -16 3 -19 -1z"/>
<path d="M2970 260 c0 -5 5 -10 11 -10 5 0 7 5 4 10 -3 6 -8 10 -11 10 -2 0
-4 -4 -4 -10z"/>
<path d="M5229 263 c-1 -5 -1 -12 0 -16 1 -5 -9 -6 -21 -2 -21 5 -21 5 -5 -6
14 -8 22 -8 30 0 14 14 30 15 22 1 -3 -5 -1 -10 4 -10 13 0 14 11 3 25 -9 12
-32 18 -33 8z"/>
<path d="M5993 251 c4 -28 12 -34 14 -11 1 11 -2 22 -8 25 -5 4 -8 -3 -6 -14z"/>
<path d="M3372 251 c-11 -7 -11 -9 0 -14 9 -3 15 1 15 9 0 8 -1 14 -1 14 -1 0
-7 -4 -14 -9z"/>
<path d="M6635 250 c-4 -6 -11 -7 -17 -4 -7 4 -8 2 -4 -5 6 -9 11 -9 22 0 14
11 18 19 10 19 -3 0 -8 -5 -11 -10z"/>
<path d="M3166 238 c3 -5 10 -6 15 -3 13 9 11 12 -6 12 -8 0 -12 -4 -9 -9z"/>
<path d="M3230 239 c0 -5 5 -7 10 -4 6 3 10 8 10 11 0 2 -4 4 -10 4 -5 0 -10
-5 -10 -11z"/>
<path d="M3536 234 c-5 -14 -4 -15 9 -4 17 14 19 20 6 20 -5 0 -12 -7 -15 -16z"/>
<path d="M3690 242 c0 -5 7 -9 15 -9 8 0 12 4 9 9 -3 4 -9 8 -15 8 -5 0 -9 -4
-9 -8z"/>
<path d="M3790 246 c0 -2 7 -7 16 -10 8 -3 12 -2 9 4 -6 10 -25 14 -25 6z"/>
<path d="M5451 228 c9 -16 29 -17 29 -2 0 3 -4 2 -10 -1 -5 -3 -10 -2 -10 4 0
5 6 11 13 14 6 3 2 4 -10 4 -18 -1 -20 -4 -12 -19z"/>
<path d="M5870 246 c0 -2 7 -7 16 -10 8 -3 12 -2 9 4 -6 10 -25 14 -25 6z"/>
<path d="M3992 231 c-11 -7 -11 -9 0 -14 9 -3 15 1 15 9 0 8 -1 14 -1 14 -1 0
-7 -4 -14 -9z"/>
<path d="M3866 218 c3 -4 11 -5 19 -1 21 7 19 12 -4 10 -11 0 -18 -5 -15 -9z"/>
<path d="M4235 220 c-3 -5 -1 -10 4 -10 6 0 11 5 11 10 0 6 -2 10 -4 10 -3 0
-8 -4 -11 -10z"/>
<path d="M4296 222 c-3 -5 1 -9 9 -9 8 0 12 4 9 9 -3 4 -7 8 -9 8 -2 0 -6 -4
-9 -8z"/>
<path d="M4760 220 c-12 -7 -10 -9 7 -7 12 0 19 5 17 9 -6 10 -6 10 -24 -2z"/>
<path d="M5590 220 c0 -5 7 -7 15 -4 8 4 15 8 15 10 0 2 -7 4 -15 4 -8 0 -15
-4 -15 -10z"/>
<path d="M5715 220 c-3 -6 1 -7 9 -4 18 7 21 14 7 14 -6 0 -13 -4 -16 -10z"/>
</g>
</svg>
